<svg width="99" height="99" viewBox="0 0 99 99" fill="none" xmlns="http://www.w3.org/2000/svg">
<path fill-rule="evenodd" clip-rule="evenodd" d="M98.7286 49.1716C98.7286 76.2084 76.8304 98.1236 49.8147 98.1236C22.802 98.1236 0.900879 76.2084 0.900879 49.1716C0.900879 22.1378 22.802 0.219604 49.8147 0.219604C76.8304 0.219604 98.7286 22.1378 98.7286 49.1716Z" fill="#2C3842"/>
<mask id="mask0_427_749" style="mask-type:luminance" maskUnits="userSpaceOnUse" x="0" y="0" width="99" height="99">
<path d="M98.7302 49.173C98.7302 62.1558 93.5768 74.6069 84.4037 83.7872C75.2306 92.9674 62.7892 98.1248 49.8165 98.1248C36.8438 98.1248 24.4024 92.9674 15.2293 83.7872C6.05621 74.6069 0.902832 62.1558 0.902832 49.173C0.902832 36.1902 6.05621 23.7391 15.2293 14.5588C24.4024 5.37859 36.8438 0.221191 49.8165 0.221191C62.7892 0.221191 75.2306 5.37859 84.4037 14.5588C93.5768 23.7391 98.7302 36.1902 98.7302 49.173Z" fill="white"/>
</mask>
<g mask="url(#mask0_427_749)">
<path d="M39.4119 67.8741C40.0172 67.7609 29.6046 72.0504 14.9244 80.0602C12.0813 81.6144 11.1274 84.579 11.1274 87.8221V98.7507H88.503V86.5556C88.503 83.6491 85.8189 80.9902 83.2815 79.5859C72.3187 73.5158 58.7573 67.5957 58.956 67.5559L39.4119 67.8741Z" fill="#B5BDC4"/>
</g>
<path d="M59.2672 70.0927C59.2672 72.7794 58.2007 75.356 56.3025 77.2557C54.4042 79.1554 51.8296 80.2227 49.1451 80.2227C46.4605 80.2227 43.8859 79.1554 41.9876 77.2557C40.0894 75.356 39.0229 72.7794 39.0229 70.0927C39.0229 67.4061 40.0894 64.8295 41.9876 62.9297C43.8859 61.03 46.4605 59.9627 49.1451 59.9627C51.8296 59.9627 54.4042 61.03 56.3025 62.9297C58.2007 64.8295 59.2672 67.4061 59.2672 70.0927Z" fill="#FFCCAA"/>
<path d="M48.4423 10.1599C57.0236 10.1599 66.5496 18.032 66.0513 27.7796L64.9415 49.3368C64.4402 59.0844 54.5718 66.675 48.4423 66.675C42.3128 66.675 32.4444 59.0844 31.943 49.3368L30.8364 27.7796C30.335 18.032 39.864 10.1569 48.4453 10.1569L48.4423 10.1599Z" fill="#FFCCAA"/>
<path d="M69.5452 45.5796C69.591 49.6334 67.5978 52.9407 65.094 52.9683C62.5933 52.9989 60.5267 49.7344 60.4808 45.6806C60.435 41.6298 62.4282 38.3194 64.932 38.2919C67.4358 38.2643 69.4993 41.5288 69.5452 45.5796ZM36.7546 45.5796C36.8004 49.6334 34.8072 52.9407 32.3034 52.9683C29.8027 52.9989 27.7361 49.7344 27.6902 45.6806C27.6444 41.6298 29.6376 38.3194 32.1414 38.2919C34.6452 38.2643 36.7087 41.5288 36.7546 45.5796Z" fill="#FFCCAA"/>
</svg>
