<svg width="98" height="98" viewBox="0 0 98 98" fill="none" xmlns="http://www.w3.org/2000/svg">
<mask id="mask0_427_752" style="mask-type:luminance" maskUnits="userSpaceOnUse" x="0" y="0" width="98" height="98">
<path d="M98 49C98 61.9956 92.8375 74.459 83.6482 83.6482C74.459 92.8375 61.9956 98 49 98C36.0044 98 23.541 92.8375 14.3518 83.6482C5.16247 74.459 0 61.9956 0 49C0 36.0044 5.16247 23.541 14.3518 14.3518C23.541 5.16247 36.0044 0 49 0C61.9956 0 74.459 5.16247 83.6482 14.3518C92.8375 23.541 98 36.0044 98 49Z" fill="white"/>
</mask>
<g mask="url(#mask0_427_752)">
<path fill-rule="evenodd" clip-rule="evenodd" d="M98.0003 49.0002C98.0003 76.0635 76.0635 98.0003 49.0002 98.0003C21.9398 98.0003 0 76.0635 0 49.0002C0 21.9398 21.9398 0 49.0002 0C76.0635 0 98.0003 21.9398 98.0003 49.0002Z" fill="#2C3842"/>
<path d="M38.577 67.7195C39.1834 67.6062 28.7525 71.8999 14.0463 79.9176C11.1982 81.4733 10.2427 84.4409 10.2427 87.6871V98.6265H87.7548V86.4194C87.7548 83.5101 85.0659 80.8485 82.524 79.4428C71.5419 73.3668 57.9566 67.4408 58.1556 67.401L38.577 67.7195Z" fill="#B5BDC4"/>
<path d="M66.0838 23.2952C66.0838 31.2299 57.4904 35.5601 46.8911 35.5601C36.2887 35.5601 27.6953 31.2299 27.6953 23.2952C27.6953 15.3574 37.0175 6.76442 46.8911 9.66758C56.0112 6.70623 66.0838 15.3574 66.0838 23.2952Z" fill="black"/>
<path d="M58.4694 69.9419C58.4694 72.6311 57.4011 75.2103 55.4995 77.1119C53.5978 79.0135 51.0187 80.0818 48.3294 80.0818C45.6401 80.0818 43.061 79.0135 41.1594 77.1119C39.2578 75.2103 38.1895 72.6311 38.1895 69.9419C38.1895 67.2526 39.2578 64.6734 41.1594 62.7718C43.061 60.8702 45.6401 59.8019 48.3294 59.8019C51.0187 59.8019 53.5978 60.8702 55.4995 62.7718C57.4011 64.6734 58.4694 67.2526 58.4694 69.9419Z" fill="#9D675D"/>
<path d="M47.6252 9.95014C56.2217 9.95014 65.7645 17.83 65.2653 27.5871L64.1536 49.1656C63.6513 58.9227 53.7656 66.5208 47.6252 66.5208C41.4849 66.5208 31.5991 58.9227 31.0969 49.1656L29.9882 27.5871C29.486 17.83 39.0318 9.94708 47.6283 9.94708L47.6252 9.95014Z" fill="#9D675D"/>
<path d="M64.2425 47.2272C72.251 37.5741 72.6644 23.2538 63.0114 15.2454C55.3919 8.92435 43.3991 6.44372 37.3077 13.2731C35.4182 15.3954 32.7569 16.501 31.0296 18.2191C23.9797 25.2261 25.4742 36.7564 30.8857 45.0926V35.1394C30.8857 31.0449 36.3247 29.2747 41.7484 29.2747H51.8945C58.1849 29.2747 64.6161 33.4244 64.4201 40.6887L64.2425 47.2272Z" fill="black"/>
<path d="M68.7655 45.4046C68.8115 49.4625 66.8147 52.773 64.3065 52.8006C61.8014 52.8312 59.7311 49.5635 59.6852 45.5057C59.6392 41.4509 61.636 38.1373 64.1442 38.1097C66.6524 38.0822 68.7196 41.3499 68.7655 45.4046ZM35.9171 45.4046C35.963 49.4625 33.9662 52.773 31.458 52.8006C28.9529 52.8312 26.8827 49.5635 26.8367 45.5057C26.7908 41.4509 28.7875 38.1373 31.2957 38.1097C33.8039 38.0822 35.8711 41.3499 35.9171 45.4046Z" fill="#9D675D"/>
</g>
</svg>
