<svg width="54" height="54" viewBox="0 0 54 54" fill="none" xmlns="http://www.w3.org/2000/svg">
<path fill-rule="evenodd" clip-rule="evenodd" d="M54.0005 26.9998C54.0005 41.9121 41.9118 53.9995 27.0018 53.9995C12.0901 53.9995 0.00311279 41.9121 0.00311279 26.9998C0.00311279 12.0891 12.0901 0 27.0018 0C41.9118 0 54.0005 12.0891 54.0005 26.9998Z" fill="#EF4C45"/>
<path d="M26.5037 6.34674C30.5535 6.34674 35.047 10.0593 34.8108 14.6543L34.2877 24.818C34.0515 29.4131 29.3959 32.9922 26.5037 32.9922C23.6114 32.9922 18.9558 29.4147 18.7196 24.818L18.1965 14.6543C17.9602 10.0593 22.4572 6.34674 26.5037 6.34674Z" fill="#FFCCAA"/>
<path d="M37.3399 23.0562C37.3619 24.9664 36.422 26.5256 35.2408 26.5391C34.0596 26.5526 33.086 25.0137 33.064 23.1034C33.0421 21.1915 33.9837 19.6323 35.1632 19.6188C36.3444 19.607 37.3197 21.1442 37.3399 23.0562ZM20.1671 23.0562C20.1873 24.9664 19.2474 26.5256 18.0663 26.5391C16.8851 26.5526 15.9114 25.0137 15.8895 23.1034C15.8692 21.1915 16.8091 19.6323 17.9903 19.6188C19.1715 19.607 20.1452 21.1442 20.1671 23.0562Z" fill="#FFCCAA"/>
<path d="M36.7901 20.3208C37.3587 19.0856 37.6979 17.5567 37.6979 15.9165C37.6979 11.8783 35.6511 8.62829 33.1571 8.62829C33.0507 8.62829 32.9444 8.72274 32.8398 8.73118C31.014 6.48683 28.3024 5.03558 25.2363 5.03558C19.7404 5.03558 15.3109 9.62218 15.3109 15.2786C15.3109 17.1096 15.775 18.8291 16.59 20.3175C18.5609 19.1801 19.1127 21.6674 19.1127 23.4629L19.2173 20.9284C19.2477 20.169 19.7033 20.0863 19.4822 18.4477C27.9311 20.2348 29.7417 13.3144 32.364 13.3786C32.3606 15.4339 32.4534 17.4504 34.1071 18.8173C34.2302 20.2348 34.0548 21.4261 34.0548 23.1457C34.0548 21.5324 34.7955 19.3235 36.7884 20.3192L36.7901 20.3208Z" fill="#282425"/>
<mask id="mask0_172_1909" style="mask-type:luminance" maskUnits="userSpaceOnUse" x="0" y="0" width="54" height="54">
<path d="M53.9972 27.0004C53.9972 34.1611 51.1527 41.0286 46.0895 46.092C41.0263 51.1555 34.1591 54.0001 26.9986 54.0001C19.8381 54.0001 12.9709 51.1555 7.9077 46.092C2.84448 41.0286 0 34.1611 0 27.0004C0 19.8396 2.84448 12.9721 7.9077 7.90869C12.9709 2.84527 19.8381 0.000671387 26.9986 0.000671387C34.1591 0.000671387 41.0263 2.84527 46.0895 7.90869C51.1527 12.9721 53.9972 19.8396 53.9972 27.0004Z" fill="white"/>
</mask>
<g mask="url(#mask0_172_1909)">
<path d="M22.3691 33.4829C22.6543 33.4306 17.4621 35.5266 10.537 39.3048C9.19547 40.0355 8.74493 41.4344 8.74493 42.9633V54.0061H45.2505V42.3659C45.2505 40.9956 43.985 39.7418 42.7869 39.0803C37.615 36.2183 30.8062 33.5015 30.899 33.4829H22.3691Z" fill="#2C3842"/>
</g>
<path d="M31.0088 34.6001C31.0088 37.2377 27.6829 41.6454 26.6823 41.6454C25.6817 41.6454 22.2781 37.2377 22.2781 34.6001C22.2781 31.9609 24.0449 29.8245 26.6823 29.8245C29.3197 29.8245 31.0088 31.9609 31.0088 34.6001Z" fill="#FFCCAA"/>
<path d="M25.1181 21.0125H20.9182V23.5522H25.1181V21.0125Z" stroke="black" stroke-width="0.401" stroke-linecap="round" stroke-linejoin="round"/>
<path d="M32.3232 21.0125H28.1232V23.5522H32.3232V21.0125Z" stroke="black" stroke-width="0.401" stroke-linecap="round" stroke-linejoin="round"/>
<path d="M25.2869 22.1702H28.0121" stroke="black" stroke-width="0.401" stroke-linecap="round" stroke-linejoin="round"/>
</svg>
