<svg width="98" height="98" viewBox="0 0 98 98" fill="none" xmlns="http://www.w3.org/2000/svg">
<path fill-rule="evenodd" clip-rule="evenodd" d="M97.8277 48.952C97.8277 75.9888 75.9296 97.904 48.9138 97.904C21.9012 97.904 0 75.9888 0 48.952C0 21.9182 21.9012 0 48.9138 0C75.9296 0 97.8277 21.9182 97.8277 48.952Z" fill="#2C3842"/>
<mask id="mask0_427_748" style="mask-type:luminance" maskUnits="userSpaceOnUse" x="0" y="0" width="98" height="98">
<path d="M97.8293 48.9534C97.8293 61.9362 92.6759 74.3873 83.5028 83.5676C74.3298 92.7478 61.8884 97.9052 48.9156 97.9052C35.9429 97.9052 23.5015 92.7478 14.3284 83.5676C5.15533 74.3873 0.00195312 61.9362 0.00195312 48.9534C0.00195312 35.9706 5.15533 23.5195 14.3284 14.3392C23.5015 5.15899 35.9429 0.00158691 48.9156 0.00158691C61.8884 0.00158691 74.3298 5.15899 83.5028 14.3392C92.6759 23.5195 97.8293 35.9706 97.8293 48.9534Z" fill="white"/>
</mask>
<g mask="url(#mask0_427_748)">
<path d="M38.511 67.6545C39.1163 67.5413 28.7038 71.8308 14.0235 79.8406C11.1804 81.3948 10.2266 84.3594 10.2266 87.6025V98.5311H87.6021V86.336C87.6021 83.4295 84.918 80.7706 82.3806 79.3663C71.4178 73.2962 57.8564 67.3761 58.0551 67.3363L38.511 67.6545Z" fill="#B5BDC4"/>
</g>
<path d="M58.3663 69.8732C58.3663 72.5598 57.2998 75.1364 55.4016 77.0362C53.5033 78.9359 50.9287 80.0032 48.2442 80.0032C45.5596 80.0032 42.985 78.9359 41.0868 77.0362C39.1885 75.1364 38.1221 72.5598 38.1221 69.8732C38.1221 67.1865 39.1885 64.6099 41.0868 62.7102C42.985 60.8104 45.5596 59.7432 48.2442 59.7432C50.9287 59.7432 53.5033 60.8104 55.4016 62.7102C57.2998 64.6099 58.3663 67.1865 58.3663 69.8732Z" fill="#FFCCAA"/>
<path d="M47.5414 9.94032C56.1227 9.94032 65.6487 17.8124 65.1504 27.56L64.0406 49.1172C63.5393 58.8648 53.6709 66.4554 47.5414 66.4554C41.4119 66.4554 31.5435 58.8648 31.0422 49.1172L29.9355 27.56C29.4341 17.8124 38.9631 9.93726 47.5445 9.93726L47.5414 9.94032Z" fill="#FFCCAA"/>
<path d="M68.6443 45.3599C68.6902 49.4138 66.6969 52.7211 64.1931 52.7486C61.6924 52.7792 59.6258 49.5147 59.58 45.4609C59.5341 41.4101 61.5273 38.0997 64.0311 38.0722C66.5349 38.0447 68.5984 41.3091 68.6443 45.3599ZM35.8537 45.3599C35.8996 49.4138 33.9063 52.7211 31.4025 52.7486C28.9018 52.7792 26.8352 49.5147 26.7893 45.4609C26.7435 41.4101 28.7367 38.0997 31.2405 38.0722C33.7443 38.0447 35.8078 41.3091 35.8537 45.3599Z" fill="#FFCCAA"/>
<path d="M64.1292 47.1807C72.1236 37.5371 72.5363 23.2309 62.9003 15.2303C55.2942 8.91552 43.3225 6.43733 37.2419 13.26C35.3557 15.3802 32.699 16.4847 30.9748 18.2011C23.9374 25.2012 25.4292 36.7202 30.8312 45.0482V35.1048C30.8312 31.0143 36.2606 29.2459 41.6747 29.2459H51.803C58.0823 29.2459 64.5022 33.3915 64.3066 40.6486L64.1292 47.1807Z" fill="black"/>
</svg>
