<svg width="103" height="106" viewBox="0 0 103 106" fill="none" xmlns="http://www.w3.org/2000/svg">
<path fill-rule="evenodd" clip-rule="evenodd" d="M99.1267 51.7146C99.1267 78.501 77.4314 100.213 50.6659 100.213C23.9034 100.213 2.20508 78.501 2.20508 51.7146C2.20508 24.9312 23.9034 3.21582 50.6659 3.21582C77.4314 3.21582 99.1267 24.9312 99.1267 51.7146Z" fill="#2C3842"/>
<path d="M67.499 33.9372C67.499 24.6176 59.95 17.0626 50.6377 17.0626C41.3254 17.0626 33.7764 24.6176 33.7764 33.9372V54.9126C33.7764 64.2321 41.3254 71.7871 50.6377 71.7871C59.95 71.7871 67.499 64.2321 67.499 54.9126V33.9372Z" fill="#FFCCAA"/>
<path d="M59.8242 73.536C59.8242 75.9679 58.859 78.3002 57.1407 80.0198C55.4225 81.7394 53.0921 82.7054 50.6621 82.7054C48.2322 82.7054 45.9018 81.7394 44.1835 80.0198C42.4653 78.3002 41.5 75.9679 41.5 73.536C41.5 71.1042 42.4653 68.7718 44.1835 67.0523C45.9018 65.3327 48.2322 64.3667 50.6621 64.3667C53.0921 64.3667 55.4225 65.3327 57.1407 67.0523C58.859 68.7718 59.8242 71.1042 59.8242 73.536Z" fill="#FFCCAA"/>
<path d="M47.8338 13.4424C43.9388 13.6486 39.9711 16.113 36.0397 22.7907C25.2269 20.3718 30.2335 37.4189 33.8892 41.4898C33.8892 41.4898 33.5864 31.5841 35.6641 27.9861C40.4193 24.5912 48.2579 24.7639 52.1741 27.9861C55.6693 31.1173 62.3145 35.4303 67.0849 33.839C67.0849 36.7277 67.0637 38.3312 67.5392 40.9107C67.5937 40.9107 70.1622 38.8922 69.1596 32.6116C69.5473 32.2782 69.8623 31.8537 70.1985 31.3839L75.6685 23.9274C75.6685 23.9274 71.9128 26.7827 69.6321 27.1343C66.7063 27.5859 57.7895 12.9181 47.8338 13.4424ZM41.0312 61.5438C44.06 60.4981 49.7087 59.5736 50.8384 59.5827C51.9681 59.5827 56.6446 60.2073 60.37 61.6441V58.825C52.7072 56.0242 46.4073 56.4697 41.0312 58.825V61.5438Z" fill="#A5714E"/>
<path d="M51.3709 58.7587L56.535 63.5237C56.535 63.5237 58.2372 62.8961 58.7642 63.4205C60.3543 65.0118 60.8268 65.9486 62.3079 66.2578C63.5255 66.5124 65.0338 66.1729 65.9122 65.2939C67.1055 64.0996 67.054 63.4962 68.1959 63.4386C70.6129 63.3174 73.4781 65.6483 73.8143 68.049C74.2232 70.9832 71.5336 73.4354 68.8925 74.7751C67.687 75.3844 65.9031 75.0026 64.84 74.169C59.585 70.0376 59.055 69.2888 55.8263 66.0576C55.275 65.5059 55.7808 64.1905 55.7808 64.1905L50.7954 59.3588L51.3709 58.7587Z" fill="#A5714E"/>
<path d="M36.5114 44.928C36.6144 48.5958 34.8637 51.6209 32.5982 51.6845C30.3326 51.7451 28.4154 48.8259 28.3124 45.1582C28.2094 41.4905 29.9601 38.4654 32.2256 38.4017C34.4912 38.3411 36.4114 41.2603 36.5114 44.928ZM72.3724 42.8545C72.3027 46.5222 70.4097 49.4625 68.1442 49.42C65.8786 49.3746 64.1007 46.3679 64.1704 42.7002C64.2401 39.0325 66.1331 36.0921 68.3986 36.1376C70.6641 36.18 72.4421 39.1871 72.3724 42.8578V42.8545Z" fill="#FFCCAA"/>
<mask id="mask0_427_746" style="mask-type:luminance" maskUnits="userSpaceOnUse" x="2" y="3" width="98" height="98">
<path d="M99.1279 51.715C99.1279 64.5776 94.0222 76.9134 84.9341 86.0086C75.846 95.1038 63.5198 100.213 50.6672 100.213C37.8146 100.213 25.4885 95.1038 16.4003 86.0086C7.31219 76.9134 2.20654 64.5776 2.20654 51.715C2.20654 38.8524 7.31219 26.5166 16.4003 17.4214C25.4885 8.32618 37.8146 3.21655 50.6672 3.21655C63.5198 3.21655 75.846 8.32618 84.9341 17.4214C94.0222 26.5166 99.1279 38.8524 99.1279 51.715Z" fill="white"/>
</mask>
<g mask="url(#mask0_427_746)">
<path d="M41.6856 71.5441C42.2338 71.4441 32.372 75.324 19.0877 82.5776C16.5132 83.981 15.647 86.6667 15.647 89.6008V100.01L85.685 101.092V88.452C85.685 85.8239 83.2528 83.42 80.957 82.1469C71.0346 76.6514 59.401 71.7651 59.5797 71.7288L50.6448 81.647L41.6856 71.5441Z" fill="#8EB3CE"/>
</g>
<mask id="mask1_427_746" style="mask-type:luminance" maskUnits="userSpaceOnUse" x="2" y="3" width="98" height="98">
<path d="M99.1256 51.6975C99.1256 64.5601 94.02 76.8958 84.9319 85.991C75.8438 95.0862 63.5176 100.196 50.6651 100.196C37.8126 100.196 25.4864 95.0862 16.3983 85.991C7.31023 76.8958 2.20459 64.5601 2.20459 51.6975C2.20459 38.835 7.31023 26.4992 16.3983 17.404C25.4864 8.30883 37.8126 3.19922 50.6651 3.19922C63.5176 3.19922 75.8438 8.30883 84.9319 17.404C94.02 26.4992 99.1256 38.835 99.1256 51.6975Z" fill="white"/>
</mask>
<g mask="url(#mask1_427_746)">
<path d="M40.9729 72.3257C37.1202 76.6317 33.2132 81.2003 31.5103 87.0473L41.1178 89.8484L34.0224 93.402L39.9101 100.222H49.1402C44.726 92.2299 41.8334 80.2366 41.6885 71.5371L40.9729 72.3257Z" fill="#7A9AB2"/>
</g>
<mask id="mask2_427_746" style="mask-type:luminance" maskUnits="userSpaceOnUse" x="2" y="3" width="98" height="98">
<path d="M99.1256 51.6975C99.1256 64.5601 94.02 76.8958 84.9319 85.991C75.8438 95.0862 63.5176 100.196 50.6651 100.196C37.8126 100.196 25.4864 95.0862 16.3983 85.991C7.31023 76.8958 2.20459 64.5601 2.20459 51.6975C2.20459 38.835 7.31023 26.4992 16.3983 17.404C25.4864 8.30883 37.8126 3.19922 50.6651 3.19922C63.5176 3.19922 75.8438 8.30883 84.9319 17.404C94.02 26.4992 99.1256 38.835 99.1256 51.6975Z" fill="white"/>
</mask>
<g mask="url(#mask2_427_746)">
<path d="M60.3209 72.6394C64.1705 76.9453 68.1259 81.227 69.8318 87.074L60.2243 89.8751L67.3167 93.4287L61.278 100.222H52.0479C56.4621 92.2292 59.4573 80.5503 59.6053 71.8478L60.3209 72.6394Z" fill="#7A9AB2"/>
</g>
<mask id="mask3_427_746" style="mask-type:luminance" maskUnits="userSpaceOnUse" x="2" y="3" width="98" height="98">
<path d="M99.1256 51.6975C99.1256 64.5601 94.02 76.8958 84.9319 85.991C75.8438 95.0862 63.5176 100.196 50.6651 100.196C37.8126 100.196 25.4864 95.0862 16.3983 85.991C7.31023 76.8958 2.20459 64.5601 2.20459 51.6975C2.20459 38.835 7.31023 26.4992 16.3983 17.404C25.4864 8.30883 37.8126 3.19922 50.6651 3.19922C63.5176 3.19922 75.8438 8.30883 84.9319 17.404C94.02 26.4992 99.1256 38.835 99.1256 51.6975Z" fill="white"/>
</mask>
<g mask="url(#mask3_427_746)">
<path d="M49.1007 88.8386L46.4316 94.0329C47.2469 96.0877 48.1617 98.3844 49.0404 100.255H52.2046L54.762 94.0846L52.1956 88.8386H49.1007Z" fill="white"/>
</g>
<mask id="mask4_427_746" style="mask-type:luminance" maskUnits="userSpaceOnUse" x="16" y="18" width="70" height="70">
<path d="M85.1421 53.1139C85.2622 62.2501 81.7509 70.9645 75.3806 77.3399C69.0103 83.7154 60.3028 87.2298 51.1737 87.1099C42.0446 86.99 33.2417 83.2457 26.7016 76.7006C20.1614 70.1556 16.4197 61.346 16.2996 52.2098C16.1795 43.0736 19.6908 34.3592 26.0611 27.9837C32.4314 21.6082 41.1388 18.0939 50.2679 18.2138C59.397 18.3337 68.1999 22.078 74.7401 28.623C81.2802 35.1681 85.0219 43.9777 85.1421 53.1139Z" fill="white"/>
</mask>
<g mask="url(#mask4_427_746)">
<path d="M50.0421 74.0028L48.0891 75.9574C47.599 76.4479 47.6095 77.2537 48.1127 77.7573L50.1178 79.7639C50.621 80.2675 51.4262 80.278 51.9163 79.7874L53.8693 77.8329C54.3594 77.3424 54.3488 76.5366 53.8456 76.0331L51.8405 74.0265C51.3373 73.5229 50.5322 73.5123 50.0421 74.0028Z" fill="white"/>
</g>
</svg>
