<svg width="105" height="105" viewBox="0 0 105 105" fill="none" xmlns="http://www.w3.org/2000/svg">
<path fill-rule="evenodd" clip-rule="evenodd" d="M101.378 52.4995C101.378 79.4958 79.4957 101.378 52.4994 101.378C25.5061 101.378 3.62061 79.4958 3.62061 52.4995C3.62061 25.5062 25.5061 3.62073 52.4994 3.62073C79.4957 3.62073 101.378 25.5062 101.378 52.4995Z" fill="#2C3842"/>
<mask id="mask0_427_751" style="mask-type:luminance" maskUnits="userSpaceOnUse" x="3" y="3" width="99" height="99">
<path d="M101.378 52.4993C101.378 65.4628 96.2281 77.8952 87.0616 87.0618C77.8951 96.2283 65.4626 101.378 52.4992 101.378C39.5358 101.378 27.1033 96.2283 17.9368 87.0618C8.77029 77.8952 3.62061 65.4628 3.62061 52.4993C3.62061 39.5359 8.77029 27.1034 17.9368 17.9369C27.1033 8.77041 39.5358 3.62073 52.4992 3.62073C65.4626 3.62073 77.8951 8.77041 87.0616 17.9369C96.2281 27.1034 101.378 39.5359 101.378 52.4993Z" fill="white"/>
</mask>
<g mask="url(#mask0_427_751)">
<path d="M42.102 71.1725C42.7069 71.0594 32.3018 75.3425 17.6321 83.3403C14.791 84.8922 13.8379 87.8524 13.8379 91.0906V102.003H91.158V89.8261C91.158 86.9239 88.4758 84.2689 85.9402 82.8667C74.9852 76.8057 61.4336 70.8945 61.6322 70.8547L42.102 71.1725Z" fill="#EF4C45"/>
<path d="M69.5405 26.8582C69.5405 34.7732 60.9683 39.0928 50.3953 39.0928C39.8191 39.0928 31.2471 34.7732 31.2471 26.8582C31.2471 18.9401 40.5462 10.3684 50.3953 13.2644C59.4928 10.3104 69.5405 18.9401 69.5405 26.8582Z" fill="black"/>
<path d="M61.945 73.3893C61.945 76.0719 60.8794 78.6447 58.9825 80.5416C57.0856 82.4385 54.5128 83.5042 51.8302 83.5042C49.1476 83.5042 46.5748 82.4385 44.6779 80.5416C42.781 78.6447 41.7153 76.0719 41.7153 73.3893C41.7153 70.7067 42.781 68.134 44.6779 66.237C46.5748 64.3401 49.1476 63.2745 51.8302 63.2745C54.5128 63.2745 57.0856 64.3401 58.9825 66.237C60.8794 68.134 61.945 70.7067 61.945 73.3893Z" fill="#9D675D"/>
</g>
<path d="M51.1284 13.5461C59.7035 13.5461 69.2227 21.4065 68.7247 31.1394L67.6158 52.6644C67.1148 62.3974 57.2535 69.9767 51.1284 69.9767C45.0033 69.9767 35.142 62.3974 34.641 52.6644L33.5351 31.1394C33.0341 21.4065 42.5563 13.5431 51.1314 13.5431L51.1284 13.5461Z" fill="#9D675D"/>
<path d="M31.3258 26.356C30.7117 35.7435 32.34 67.48 29.4531 79.3083C33.119 82.2867 36.5039 84.4619 41.7491 83.9884C38.7309 72.7222 38.2604 64.9507 38.2604 36.1253L31.3258 26.356ZM69.4817 26.1147C70.0469 34.4697 71.4032 66.2917 74.5773 79.3083C70.5448 82.5861 66.8178 84.5108 61.0501 83.9884C64.7557 70.1501 64.1875 67.6389 64.1875 35.4655L69.4817 26.1147Z" fill="black"/>
<path d="M50.6902 13.5774C54.3563 15.694 52.151 21.3119 48.2568 28.0569C44.3615 34.8039 38.0628 47.3753 34.3967 45.2587C30.7292 43.1412 31.3247 26.6586 36.2936 21.1499C38.2761 14.5563 47.0227 11.46 50.6902 13.5774Z" fill="black"/>
<path d="M50.6899 13.5776C46.9662 15.7276 49.5607 21.1698 53.4265 27.8655C57.2933 34.5631 63.259 46.5034 66.9828 44.3535C70.708 42.2027 70.5414 26.3005 65.5779 20.8499C63.6414 14.2863 54.4152 11.4269 50.6899 13.5776Z" fill="black"/>
<path d="M72.2159 48.9128C72.2617 52.9606 70.2699 56.2629 67.7679 56.2904C65.269 56.321 63.2038 53.0614 63.158 49.0136C63.1122 44.9689 65.104 41.6635 67.606 41.636C70.108 41.6085 72.17 44.8681 72.2159 48.9128ZM39.4488 48.9128C39.4946 52.9606 37.5028 56.2629 35.0008 56.2904C32.5019 56.321 30.4367 53.0614 30.3909 49.0136C30.3451 44.9689 32.3369 41.6635 34.8389 41.636C37.3409 41.6085 39.4029 44.8681 39.4488 48.9128Z" fill="#9D675D"/>
</svg>
