<svg width="99" height="99" viewBox="0 0 99 99" fill="none" xmlns="http://www.w3.org/2000/svg">
<path fill-rule="evenodd" clip-rule="evenodd" d="M98.098 49.6953C98.098 76.7312 76.2 98.6457 49.1843 98.6457C22.1716 98.6457 0.270508 76.7312 0.270508 49.6953C0.270508 22.6624 22.1716 0.744873 49.1843 0.744873C76.2 0.744873 98.098 22.6624 98.098 49.6953Z" fill="#2C3842"/>
<path d="M31.6821 33.2567H64.3473V72.5272H31.6821V33.2567Z" fill="black"/>
<mask id="mask0_427_747" style="mask-type:luminance" maskUnits="userSpaceOnUse" x="0" y="0" width="99" height="99">
<path d="M98.0992 49.7003C98.0992 62.6827 92.9458 75.1334 83.7727 84.3133C74.5997 93.4933 62.1583 98.6505 49.1856 98.6505C36.2129 98.6505 23.7715 93.4933 14.5984 84.3133C5.42534 75.1334 0.271973 62.6827 0.271973 49.7003C0.271973 36.7178 5.42534 24.2671 14.5984 15.0872C23.7715 5.90723 36.2129 0.75 49.1856 0.75C62.1583 0.75 74.5997 5.90723 83.7727 15.0872C92.9458 24.2671 98.0992 36.7178 98.0992 49.7003Z" fill="white"/>
</mask>
<g mask="url(#mask0_427_747)">
<path d="M39.3254 67.2349C39.8971 67.134 30.0318 71.1938 16.1189 78.7872C13.4225 80.2558 12.5176 83.0706 12.5176 86.1422V98.661H85.8515V84.9397C85.8515 82.1893 83.308 79.6684 80.899 78.3376C70.514 72.5859 57.6589 66.9718 57.8484 66.9351L39.3254 67.2349Z" fill="#EF4C45"/>
</g>
<path d="M58.1385 69.3249C58.1612 70.5998 57.9299 71.8666 57.4581 73.0511C56.9863 74.2356 56.2834 75.3142 55.3905 76.2238C54.4976 77.1335 53.4325 77.8562 52.2575 78.3494C51.0825 78.8426 49.821 79.0967 48.5468 79.0967C47.2726 79.0967 46.0112 78.8426 44.8361 78.3494C43.6611 77.8562 42.596 77.1335 41.7031 76.2238C40.8102 75.3142 40.1073 74.2356 39.6355 73.0511C39.1637 71.8666 38.9324 70.5998 38.9551 69.3249C38.9551 66.7787 39.9658 64.3367 41.7649 62.5363C43.564 60.7359 46.0041 59.7245 48.5484 59.7245C51.0926 59.7245 53.5327 60.7359 55.3318 62.5363C57.1309 64.3367 58.1416 66.7787 58.1416 69.3249H58.1385Z" fill="#FFCCAA"/>
<path d="M47.8055 13.4723C53.3328 10.9636 65.0476 19.9978 64.5707 29.2372L63.5221 49.6648C63.0452 58.9042 53.6935 66.1 47.885 66.1C42.0765 66.1 32.7218 58.9042 32.2479 49.6648L31.1993 29.2372C30.7224 19.9978 41.5629 11.0951 47.8055 13.4723Z" fill="#FFCCAA"/>
<path d="M66.2393 24.0422C66.2393 31.9691 57.6611 36.2951 47.0804 36.2951C36.4967 36.2951 27.9185 31.9691 27.9185 24.0422C27.9185 16.1122 37.2243 7.52767 47.0804 10.428C56.1845 7.46955 66.2393 16.1122 66.2393 24.0422Z" fill="black"/>
<path d="M54.0111 80.5402C54.0111 83.5598 51.1405 90.4648 48.548 90.4648C45.9556 90.4648 43.085 83.5598 43.085 80.5402C43.085 77.5236 45.5307 76.5079 48.548 76.5079C51.5654 76.5079 54.0111 77.5236 54.0111 80.5402Z" fill="#D9453F"/>
<path d="M58.2164 66.0765L47.7329 77.5057L52.1155 81.5317L62.599 70.1025L58.2164 66.0765Z" fill="white"/>
<path d="M39.006 66.0569L49.2764 77.2538L44.9478 81.2301L34.6774 70.0333L39.006 66.0569Z" fill="white"/>
<path d="M27.9956 23.5377C27.3811 32.9392 29.0106 64.7232 26.1216 76.5692C29.7901 79.5521 33.1774 81.7306 38.4264 81.2564C35.406 69.9733 34.9352 62.1901 34.9352 33.3216L27.9956 23.5377ZM66.1789 23.296C66.7444 31.6635 68.1018 63.5331 71.2781 76.5692C67.2428 79.852 63.5131 81.7795 57.7412 81.2564C61.4495 67.3973 60.8809 64.8824 60.8809 32.6608L66.1789 23.296Z" fill="black"/>
</svg>
