<svg width="99" height="99" viewBox="0 0 99 99" fill="none" xmlns="http://www.w3.org/2000/svg">
<path fill-rule="evenodd" clip-rule="evenodd" d="M98.0408 49.2859C98.0408 76.3218 76.1399 98.2364 49.1276 98.2364C22.1122 98.2364 0.214355 76.3218 0.214355 49.2859C0.214355 22.2529 22.1122 0.335327 49.1276 0.335327C76.1399 0.335327 98.0408 22.2529 98.0408 49.2859Z" fill="#EF4C45"/>
<mask id="mask0_427_744" style="mask-type:luminance" maskUnits="userSpaceOnUse" x="0" y="0" width="99" height="99">
<path d="M98.0385 49.2899C98.0385 62.2723 92.8852 74.7231 83.7122 83.903C74.5392 93.083 62.098 98.2403 49.1255 98.2403C36.1529 98.2403 23.7117 93.083 14.5387 83.903C5.36572 74.7231 0.212402 62.2723 0.212402 49.2899C0.212402 36.3074 5.36572 23.8567 14.5387 14.6767C23.7117 5.49673 36.1529 0.339478 49.1255 0.339478C62.098 0.339478 74.5392 5.49673 83.7122 14.6767C92.8852 23.8567 98.0385 36.3074 98.0385 49.2899Z" fill="white"/>
</mask>
<g mask="url(#mask0_427_744)">
<path d="M40.1238 60.1105C40.6497 60.0187 31.6435 63.7268 18.9444 70.6564C16.4865 71.9994 15.6611 74.5631 15.6611 77.3686V98.1021H82.5866V76.2732C82.5866 73.7615 80.2632 71.4609 78.0713 70.2463C68.5883 64.9964 56.8583 59.875 57.0295 59.8383L40.1238 60.1105Z" fill="#CCCCCC"/>
</g>
<path d="M57.7819 62.025C57.7819 64.3489 56.8595 66.5775 55.2175 68.2208C53.5755 69.864 51.3486 70.7872 49.0265 70.7872C46.7044 70.7872 44.4774 69.864 42.8354 68.2208C41.1934 66.5775 40.271 64.3489 40.271 62.025C40.271 59.7011 41.1934 57.4725 42.8354 55.8293C44.4774 54.186 46.7044 53.2628 49.0265 53.2628C51.3486 53.2628 53.5755 54.186 55.2175 55.8293C56.8595 57.4725 57.7819 59.7011 57.7819 62.025Z" fill="#FFCCAA"/>
<path d="M69.7197 29.069C69.7197 18.3667 61.0504 9.6908 50.3562 9.6908C39.662 9.6908 30.9927 18.3667 30.9927 29.069V39.3182C30.9927 50.0205 39.662 58.6964 50.3562 58.6964C61.0504 58.6964 69.7197 50.0205 69.7197 39.3182V29.069Z" fill="#FFCCAA"/>
<path d="M61.8328 54.3857C69.8974 50.8582 74.0519 41.6647 74.0519 32.2907C74.0519 26.2279 71.6453 20.4134 67.3615 16.1263C63.0777 11.8392 57.2677 9.43066 51.2095 9.43066C45.0495 9.43066 39.6354 12.0526 35.5267 16.0176C26.8599 17.4188 24.7505 27.2365 24.7505 33.5665C24.7505 43.6319 31.1642 52.44 35.7468 52.44C31.904 43.3719 33.7169 34.1997 40.0939 26.6858C45.7312 31.0087 50.9007 35.8427 60.7659 35.5888C62.8202 42.1359 63.0526 48.79 61.4935 54.2511L61.8328 54.3857ZM38.5868 55.0159C48.4092 70.7596 36.8137 75.4129 40.0909 86.9347C40.0909 86.9347 31.152 82.8628 30.7821 77.3436C28.5718 68.9608 35.6398 60.9573 35.9852 54.967L38.5868 55.0159ZM60.1636 55.1506C50.3382 70.8973 61.9337 75.5506 58.6565 87.0693C58.6565 87.0693 67.5954 83.0004 67.9653 77.4812C70.1786 69.0954 63.1107 61.2357 62.7622 55.2454L60.1636 55.1506Z" fill="#2C3842"/>
<path d="M40.1788 53.7159C40.1788 54.7561 38.7053 55.6004 36.8833 55.6004C35.0643 55.6004 33.5908 54.7561 33.5908 53.7159C33.5908 52.6727 35.0643 51.8282 36.8833 51.8282C38.7053 51.8282 40.1788 52.6727 40.1788 53.7159ZM65.3263 53.7159C65.3263 54.7561 63.8528 55.6004 62.0308 55.6004C60.2118 55.6004 58.7383 54.7561 58.7383 53.7159C58.7383 52.6727 60.2118 51.8282 62.0308 51.8282C63.8528 51.8282 65.3263 52.6727 65.3263 53.7159Z" fill="#FEC351"/>
</svg>
