<svg width="99" height="99" viewBox="0 0 99 99" fill="none" xmlns="http://www.w3.org/2000/svg">
<path fill-rule="evenodd" clip-rule="evenodd" d="M98.4131 49.1007C98.4131 76.1376 76.515 98.0529 49.4993 98.0529C22.4866 98.0529 0.585449 76.1376 0.585449 49.1007C0.585449 22.0668 22.4866 0.148438 49.4993 0.148438C76.515 0.148438 98.4131 22.0668 98.4131 49.1007Z" fill="#2C3842"/>
<path d="M74.5065 52.6923C74.4393 56.1527 72.6509 58.9277 70.5139 58.8879C68.374 58.8451 66.6926 56.0059 66.7598 52.5426C66.8271 49.0792 68.6155 46.3012 70.7524 46.344C72.8924 46.3868 74.5738 49.229 74.5065 52.6923ZM34.9108 52.6923C34.8435 56.1557 33.0582 58.9277 30.9182 58.8879C28.7782 58.8482 27.0968 56.0059 27.1641 52.5426C27.2313 49.0792 29.0197 46.3041 31.1597 46.347C33.2997 46.3868 34.978 49.229 34.9108 52.6923Z" fill="#FFCCAA"/>
<mask id="mask0_427_743" style="mask-type:luminance" maskUnits="userSpaceOnUse" x="0" y="0" width="99" height="99">
<path d="M98.4148 49.1016C98.4148 62.0845 93.2614 74.5357 84.0883 83.716C74.9152 92.8963 62.4738 98.0537 49.5011 98.0537C36.5284 98.0537 24.087 92.8963 14.9139 83.716C5.74078 74.5357 0.587402 62.0845 0.587402 49.1016C0.587402 36.1187 5.74078 23.6676 14.9139 14.4873C24.087 5.30696 36.5284 0.149536 49.5011 0.149536C62.4738 0.149536 74.9152 5.30696 84.0883 14.4873C93.2614 23.6676 98.4148 36.1187 98.4148 49.1016Z" fill="white"/>
</mask>
<g mask="url(#mask0_427_743)">
<path d="M40.6062 63.4039C41.1259 63.3121 32.2267 66.9743 19.6803 73.8215C17.2499 75.1493 16.4336 77.6857 16.4336 80.4546V101.29H82.5651V79.3715C82.5651 76.8902 80.2723 74.617 78.1017 73.4146C68.7317 68.2287 57.1421 63.1683 57.3133 63.1346L40.6062 63.4039Z" fill="#EF4C45"/>
</g>
<path d="M50.4783 70.2419C50.4783 72.1691 49.7134 74.0173 48.3517 75.38C46.9901 76.7427 45.1433 77.5083 43.2177 77.5083C41.292 77.5083 39.4453 76.7427 38.0836 75.38C36.722 74.0173 35.957 72.1691 35.957 70.2419C35.957 68.3148 36.722 66.4665 38.0836 65.1038C39.4453 63.7411 41.292 62.9756 43.2177 62.9756C45.1433 62.9756 46.9901 63.7411 48.3517 65.1038C49.7134 66.4665 50.4783 68.3148 50.4783 70.2419Z" fill="white"/>
<path d="M63.9441 70.2419C63.9441 72.1691 63.1792 74.0173 61.8176 75.38C60.4559 76.7427 58.6091 77.5083 56.6835 77.5083C54.7579 77.5083 52.9111 76.7427 51.5495 75.38C50.1878 74.0173 49.4229 72.1691 49.4229 70.2419C49.4229 68.3148 50.1878 66.4665 51.5495 65.1038C52.9111 63.7411 54.7579 62.9756 56.6835 62.9756C58.6091 62.9756 60.4559 63.7411 61.8176 65.1038C63.1792 66.4665 63.9441 68.3148 63.9441 70.2419Z" fill="white"/>
<path d="M59.6185 56.0244C66.7722 57.496 71.1806 63.0643 66.7233 72.6314C77.3009 86.1147 54.3328 88.8253 60.3828 78.7136C61.1868 85.2304 66.0446 79.2553 64.6322 77.8418C60.4929 73.6961 54.9809 71.3464 56.1671 61.764C56.3658 60.1639 57.9218 57.3766 59.6216 56.0212L59.6185 56.0244Z" fill="#FEC351"/>
<path d="M57.5762 65.2977C57.5762 67.5941 56.6647 69.7965 55.0422 71.4203C53.4197 73.044 51.2191 73.9562 48.9246 73.9562C46.63 73.9562 44.4295 73.044 42.807 71.4203C41.1845 69.7965 40.2729 67.5941 40.2729 65.2977C40.2729 63.0013 41.1845 60.7991 42.807 59.1753C44.4295 57.5515 46.63 56.6394 48.9246 56.6394C51.2191 56.6394 53.4197 57.5515 55.0422 59.1753C56.6647 60.7991 57.5762 63.0013 57.5762 65.2977Z" fill="#FFCCAA"/>
<path d="M69.2599 29.483C69.2599 18.9087 60.6945 10.3365 50.1285 10.3365C39.5625 10.3365 30.9971 18.9087 30.9971 29.483V42.8624C30.9971 53.4367 39.5625 62.0088 50.1285 62.0088C60.6945 62.0088 69.2599 53.4367 69.2599 42.8624V29.483Z" fill="#FFCCAA"/>
<path d="M35.5682 17.6398C38.6161 5.71692 62.8499 8.06351 67.3499 15.8653C71.85 23.664 72.4309 31.2638 66.87 40.7545C66.87 40.7545 65.1488 39.0166 64.8859 37.7439C64.354 35.1525 67.0718 33.0446 65.2803 31.1018C63.4521 29.1192 59.5696 33.8859 57.2982 32.4327C55.577 31.3312 57.3715 27.6506 55.6718 26.5155C53.4003 24.998 49.955 28.8408 47.5398 27.5497C45.7912 26.6165 46.534 23.3214 44.8801 22.2261C42.9481 20.9411 39.9032 23.0092 37.9344 21.7854C36.5862 20.9441 35.0668 19.6041 35.5682 17.6398Z" fill="#FEC351"/>
<path d="M38.7992 17.7072C33.0641 24.5146 33.5746 29.2018 33.5746 37.8389C25.2164 30.343 27.8425 17.2545 37.7353 14.9629C38.0838 16.4957 38.4507 18.1967 38.7992 17.7072Z" fill="#FEC351"/>
</svg>
