<svg width="43" height="43" viewBox="0 0 43 43" fill="none" xmlns="http://www.w3.org/2000/svg">
<path d="M21.5 4.03125C11.868 4.03125 4.03125 11.868 4.03125 21.5C4.03125 31.132 11.868 38.9688 21.5 38.9688C31.132 38.9688 38.9688 31.132 38.9688 21.5C38.9688 11.868 31.132 4.03125 21.5 4.03125ZM21.5 6.71875C29.6794 6.71875 36.2812 13.3206 36.2812 21.5C36.2812 29.6794 29.6794 36.2812 21.5 36.2812C13.3206 36.2812 6.71875 29.6794 6.71875 21.5C6.71875 13.3206 13.3206 6.71875 21.5 6.71875ZM20.1562 13.4375V20.1562H13.4375V22.8438H20.1562V29.5625H22.8438V22.8438H29.5625V20.1562H22.8438V13.4375H20.1562Z" fill="black"/>
</svg>
