<svg width="24" height="22" viewBox="0 0 24 22" fill="none" xmlns="http://www.w3.org/2000/svg">
<path d="M22.7359 12.2359C23.4195 11.5523 23.4195 10.4422 22.7359 9.75859L13.9859 1.00859C13.3023 0.324997 12.1921 0.324997 11.5085 1.00859C10.825 1.69218 10.825 2.80234 11.5085 3.48593L19.0226 11L11.514 18.5141C10.8304 19.1977 10.8304 20.3078 11.514 20.9914C12.1976 21.675 13.3078 21.675 13.9914 20.9914L22.7414 12.2414L22.7359 12.2359ZM3.48589 20.9859L12.2359 12.2359C12.9195 11.5523 12.9195 10.4422 12.2359 9.75859L3.48589 1.00859C2.80229 0.324997 1.69214 0.324997 1.00854 1.00859C0.324951 1.69218 0.324951 2.80234 1.00854 3.48593L8.52261 11L1.01401 18.5141C0.33042 19.1977 0.33042 20.3078 1.01401 20.9914C1.69761 21.675 2.80776 21.675 3.49136 20.9914L3.48589 20.9859Z" fill="black"/>
</svg>
