<svg width="23" height="22" viewBox="0 0 23 22" fill="none" xmlns="http://www.w3.org/2000/svg">
<path d="M0.512648 9.68921C-0.170946 10.3728 -0.170946 11.483 0.512648 12.1666L9.26265 20.9166C9.94624 21.6002 11.0564 21.6002 11.74 20.9166C12.4236 20.233 12.4236 19.1228 11.74 18.4392L4.22593 10.9252L11.7345 3.41109C12.4181 2.7275 12.4181 1.61734 11.7345 0.933744C11.0509 0.250151 9.94077 0.250151 9.25718 0.933744L0.507175 9.68375L0.512648 9.68921ZM19.7626 0.939215L11.0126 9.68921C10.3291 10.3728 10.3291 11.483 11.0126 12.1666L19.7626 20.9166C20.4462 21.6002 21.5564 21.6002 22.24 20.9166C22.9236 20.233 22.9236 19.1228 22.24 18.4392L14.7259 10.9252L22.2345 3.41109C22.9181 2.7275 22.9181 1.61734 22.2345 0.933744C21.5509 0.250151 20.4408 0.250151 19.7572 0.933744L19.7626 0.939215Z" fill="black"/>
</svg>
