<svg width="18" height="18" viewBox="0 0 18 18" fill="none" xmlns="http://www.w3.org/2000/svg">
<path d="M15.3633 2.63528C14.5283 1.79866 13.5363 1.1352 12.4443 0.682963C11.3522 0.23073 10.1816 -0.00136298 8.99963 6.0211e-06C4.02925 6.0211e-06 0 4.02942 0 9C0 11.4853 1.00787 13.7359 2.63667 15.3647C3.47166 16.2013 4.46366 16.8648 5.55572 17.317C6.64777 17.7693 7.81839 18.0014 9.00037 18C13.9708 18 18 13.9706 18 9C18 6.51471 16.9921 4.26415 15.3633 2.63528ZM14.207 14.2046C13.5237 14.889 12.7121 15.4318 11.8186 15.8019C10.9252 16.172 9.96745 16.3621 9.00037 16.3614C4.93363 16.3614 1.63705 13.0647 1.63705 8.99775C1.63628 8.03063 1.8264 7.07288 2.1965 6.17939C2.5666 5.28589 3.10939 4.47423 3.79378 3.79094C4.47695 3.10662 5.28846 2.56385 6.18178 2.19374C7.0751 1.82363 8.03268 1.63346 8.99963 1.63412C13.0656 1.63412 16.3622 4.93084 16.3622 8.997C16.3629 9.96399 16.1727 10.9216 15.8026 11.815C15.4325 12.7083 14.8898 13.5199 14.2055 14.2031L14.207 14.2046Z" fill="black"/>
<path d="M10.3402 8.97164L13.6922 5.59982C13.8576 5.41853 13.9469 5.18 13.9416 4.93403C13.9363 4.68805 13.8368 4.45365 13.6638 4.27973C13.4908 4.10582 13.2577 4.00584 13.0132 4.00067C12.7686 3.99549 12.5315 4.08552 12.3514 4.25197L12.3523 4.25109L9.00023 7.62291L5.64816 4.25109C5.46793 4.08477 5.2308 3.99489 4.98627 4.00022C4.74174 4.00556 4.5087 4.10569 4.33581 4.27971C4.16291 4.45374 4.06352 4.68821 4.05838 4.93419C4.05324 5.18017 4.14274 5.41863 4.30821 5.59982L4.30734 5.59894L7.6594 8.97076L4.30734 12.3426C4.21302 12.4296 4.1372 12.535 4.08442 12.6522C4.03164 12.7695 4.003 12.8963 4.00022 13.0251C3.99745 13.1538 4.0206 13.2817 4.06827 13.4012C4.11595 13.5207 4.18717 13.6292 4.27764 13.7203C4.36811 13.8114 4.47597 13.8831 4.59472 13.9311C4.71347 13.9791 4.84065 14.0025 4.96861 13.9998C5.09658 13.9971 5.22267 13.9684 5.33931 13.9153C5.45594 13.8623 5.56071 13.7861 5.64729 13.6913L5.64816 13.6904L9.00023 10.3186L12.3523 13.6904C12.4388 13.7853 12.5435 13.8616 12.6601 13.9147C12.7767 13.9678 12.9028 13.9966 13.0308 13.9994C13.1587 14.0021 13.2859 13.9789 13.4047 13.9309C13.5235 13.8829 13.6314 13.8113 13.7219 13.7203C13.8125 13.6293 13.8837 13.5208 13.9315 13.4014C13.9793 13.2819 14.0025 13.154 13.9998 13.0253C13.9971 12.8965 13.9685 12.7697 13.9158 12.6524C13.8631 12.5351 13.7874 12.4297 13.6931 12.3426L13.6922 12.3417L10.3402 8.97164Z" fill="black"/>
</svg>
