<svg xmlns="http://www.w3.org/2000/svg" xmlns:xlink="http://www.w3.org/1999/xlink" width="200" zoomAndPan="magnify" viewBox="0 0 350 350" height="200" version="1.0"><defs><g/></defs><g fill="#95b1ee" fill-opacity="1"><g transform="translate(157.266922, 210.833912)"><g><path d="M 1.765625 -19.3125 C 1.765625 -19.988281 1.785156 -20.492188 1.828125 -20.828125 C 1.867188 -21.160156 1.992188 -21.550781 2.203125 -22 C 2.609375 -22.757812 3.75 -23.140625 5.625 -23.140625 C 7.03125 -23.140625 8.03125 -22.890625 8.625 -22.390625 C 9.125 -21.972656 9.382812 -21.34375 9.40625 -20.5 C 9.4375 -20.207031 9.453125 -19.78125 9.453125 -19.21875 L 9.453125 -3.828125 C 9.453125 -3.148438 9.429688 -2.640625 9.390625 -2.296875 C 9.347656 -1.960938 9.207031 -1.578125 8.96875 -1.140625 C 8.59375 -0.378906 7.46875 0 5.59375 0 C 3.738281 0 2.609375 -0.394531 2.203125 -1.1875 C 1.992188 -1.625 1.867188 -2.003906 1.828125 -2.328125 C 1.785156 -2.648438 1.765625 -3.164062 1.765625 -3.875 Z M 9 -27.46875 C 8.78125 -27.039062 8.390625 -26.738281 7.828125 -26.5625 C 7.273438 -26.382812 6.535156 -26.296875 5.609375 -26.296875 C 4.679688 -26.296875 3.9375 -26.382812 3.375 -26.5625 C 2.820312 -26.738281 2.4375 -27.046875 2.21875 -27.484375 C 2 -27.929688 1.867188 -28.320312 1.828125 -28.65625 C 1.785156 -28.988281 1.765625 -29.492188 1.765625 -30.171875 C 1.765625 -30.847656 1.785156 -31.351562 1.828125 -31.6875 C 1.867188 -32.03125 1.992188 -32.40625 2.203125 -32.8125 C 2.609375 -33.601562 3.75 -34 5.625 -34 C 7.476562 -34 8.59375 -33.601562 8.96875 -32.8125 C 9.207031 -32.375 9.347656 -31.984375 9.390625 -31.640625 C 9.429688 -31.304688 9.453125 -30.800781 9.453125 -30.125 C 9.453125 -29.457031 9.429688 -28.953125 9.390625 -28.609375 C 9.347656 -28.273438 9.21875 -27.894531 9 -27.46875 Z M 9 -27.46875 "/></g></g></g><g fill="#95b1ee" fill-opacity="1"><g transform="translate(172.883765, 210.833912)"><g><path d="M 9.015625 -11.578125 C 9.015625 -10.335938 9.425781 -9.375 10.25 -8.6875 C 11.070312 -8 11.941406 -7.65625 12.859375 -7.65625 C 13.785156 -7.65625 14.648438 -7.925781 15.453125 -8.46875 C 16.265625 -9.007812 16.921875 -9.28125 17.421875 -9.28125 C 18.296875 -9.28125 19.363281 -8.503906 20.625 -6.953125 C 21.300781 -6.097656 21.640625 -5.332031 21.640625 -4.65625 C 21.640625 -3.539062 20.832031 -2.503906 19.21875 -1.546875 C 17.550781 -0.367188 15.5 0.21875 13.0625 0.21875 C 10.332031 0.21875 7.707031 -0.765625 5.1875 -2.734375 C 3.988281 -3.671875 3.003906 -4.921875 2.234375 -6.484375 C 1.472656 -8.054688 1.09375 -9.785156 1.09375 -11.671875 C 1.09375 -13.566406 1.472656 -15.285156 2.234375 -16.828125 C 3.003906 -18.367188 3.988281 -19.609375 5.1875 -20.546875 C 7.625 -22.472656 10.21875 -23.4375 12.96875 -23.4375 C 14.082031 -23.4375 15.164062 -23.28125 16.21875 -22.96875 C 17.28125 -22.664062 18.0625 -22.367188 18.5625 -22.078125 L 19.265625 -21.640625 C 19.796875 -21.285156 20.207031 -21.003906 20.5 -20.796875 C 21.257812 -20.210938 21.640625 -19.546875 21.640625 -18.796875 C 21.640625 -18.054688 21.332031 -17.21875 20.71875 -16.28125 C 19.664062 -14.664062 18.65625 -13.859375 17.6875 -13.859375 C 17.125 -13.859375 16.332031 -14.179688 15.3125 -14.828125 C 14.78125 -15.328125 14.019531 -15.578125 13.03125 -15.578125 C 12.050781 -15.578125 11.132812 -15.222656 10.28125 -14.515625 C 9.4375 -13.804688 9.015625 -12.828125 9.015625 -11.578125 Z M 9.015625 -11.578125 "/></g></g></g><g fill="#95b1ee" fill-opacity="1"><g transform="translate(200.025674, 210.833912)"><g><path d="M 15.390625 -11.609375 L 21.25 -6.78125 C 21.976562 -6.15625 22.4375 -5.679688 22.625 -5.359375 C 22.820312 -5.035156 22.921875 -4.726562 22.921875 -4.4375 C 22.921875 -3.738281 22.460938 -2.785156 21.546875 -1.578125 C 20.554688 -0.347656 19.675781 0.265625 18.90625 0.265625 C 18.269531 0.265625 17.378906 -0.160156 16.234375 -1.015625 L 15.796875 -1.3125 C 15.117188 -1.875 14.078125 -2.847656 12.671875 -4.234375 C 11.265625 -5.628906 10.191406 -6.625 9.453125 -7.21875 L 9.453125 -3.828125 C 9.453125 -3.148438 9.429688 -2.640625 9.390625 -2.296875 C 9.347656 -1.960938 9.207031 -1.578125 8.96875 -1.140625 C 8.59375 -0.378906 7.46875 0 5.59375 0 C 3.738281 0 2.609375 -0.394531 2.203125 -1.1875 C 1.992188 -1.625 1.867188 -2.007812 1.828125 -2.34375 C 1.785156 -2.6875 1.765625 -3.195312 1.765625 -3.875 L 1.765625 -30.21875 C 1.765625 -30.894531 1.785156 -31.398438 1.828125 -31.734375 C 1.867188 -32.066406 1.992188 -32.457031 2.203125 -32.90625 C 2.609375 -33.695312 3.75 -34.09375 5.625 -34.09375 C 7.03125 -34.09375 8.03125 -33.84375 8.625 -33.34375 C 9.125 -32.925781 9.382812 -32.28125 9.40625 -31.40625 C 9.4375 -31.144531 9.453125 -30.734375 9.453125 -30.171875 L 9.453125 -16.234375 C 9.984375 -16.671875 10.78125 -17.414062 11.84375 -18.46875 C 12.914062 -19.53125 13.71875 -20.28125 14.25 -20.71875 L 14.78125 -21.0625 C 15.800781 -21.851562 16.675781 -22.25 17.40625 -22.25 C 18.144531 -22.25 18.988281 -21.65625 19.9375 -20.46875 C 20.894531 -19.28125 21.375 -18.347656 21.375 -17.671875 C 21.375 -17.003906 20.832031 -16.21875 19.75 -15.3125 Z M 15.390625 -11.609375 "/></g></g></g><g fill="#95b1ee" fill-opacity="1"><g transform="translate(228.003373, 210.833912)"><g><path d="M 3.875 -32.28125 L 28.328125 -32.28125 C 29.265625 -32.28125 29.953125 -32.171875 30.390625 -31.953125 C 30.828125 -31.734375 31.117188 -31.390625 31.265625 -30.921875 C 31.421875 -30.453125 31.5 -29.835938 31.5 -29.078125 C 31.5 -28.316406 31.421875 -27.707031 31.265625 -27.25 C 31.117188 -26.789062 30.875 -26.472656 30.53125 -26.296875 C 30 -26.035156 29.25 -25.90625 28.28125 -25.90625 L 19.875 -25.90625 L 19.875 -3.78125 C 19.875 -3.101562 19.851562 -2.601562 19.8125 -2.28125 C 19.769531 -1.957031 19.640625 -1.582031 19.421875 -1.15625 C 19.203125 -0.738281 18.8125 -0.441406 18.25 -0.265625 C 17.695312 -0.0859375 16.960938 0 16.046875 0 C 15.140625 0 14.414062 -0.0859375 13.875 -0.265625 C 13.332031 -0.441406 12.953125 -0.738281 12.734375 -1.15625 C 12.515625 -1.582031 12.378906 -1.960938 12.328125 -2.296875 C 12.285156 -2.640625 12.265625 -3.148438 12.265625 -3.828125 L 12.265625 -25.90625 L 3.828125 -25.90625 C 2.890625 -25.90625 2.195312 -26.015625 1.75 -26.234375 C 1.3125 -26.453125 1.019531 -26.796875 0.875 -27.265625 C 0.726562 -27.734375 0.65625 -28.347656 0.65625 -29.109375 C 0.65625 -29.878906 0.726562 -30.488281 0.875 -30.9375 C 1.019531 -31.394531 1.269531 -31.710938 1.625 -31.890625 C 2.15625 -32.148438 2.90625 -32.28125 3.875 -32.28125 Z M 3.875 -32.28125 "/></g></g></g><g fill="#95b1ee" fill-opacity="1"><g transform="translate(264.558883, 210.833912)"><g><path d="M 16.796875 -20.71875 C 16.972656 -22.363281 18.132812 -23.1875 20.28125 -23.1875 C 21.425781 -23.1875 22.273438 -23.097656 22.828125 -22.921875 C 23.378906 -22.742188 23.765625 -22.429688 23.984375 -21.984375 C 24.210938 -21.546875 24.347656 -21.160156 24.390625 -20.828125 C 24.429688 -20.492188 24.453125 -19.988281 24.453125 -19.3125 L 24.453125 -3.921875 C 24.453125 -3.242188 24.429688 -2.734375 24.390625 -2.390625 C 24.347656 -2.054688 24.222656 -1.671875 24.015625 -1.234375 C 23.609375 -0.472656 22.601562 -0.09375 21 -0.09375 C 19.40625 -0.09375 18.335938 -0.289062 17.796875 -0.6875 C 17.253906 -1.082031 16.9375 -1.660156 16.84375 -2.421875 C 15.757812 -0.867188 13.945312 -0.09375 11.40625 -0.09375 C 8.875 -0.09375 6.519531 -1.25 4.34375 -3.5625 C 2.175781 -5.875 1.09375 -8.5625 1.09375 -11.625 C 1.09375 -14.695312 2.1875 -17.382812 4.375 -19.6875 C 6.5625 -21.988281 8.957031 -23.140625 11.5625 -23.140625 C 12.5625 -23.140625 13.472656 -22.960938 14.296875 -22.609375 C 15.117188 -22.253906 15.691406 -21.921875 16.015625 -21.609375 C 16.335938 -21.304688 16.597656 -21.007812 16.796875 -20.71875 Z M 8.796875 -11.5625 C 8.796875 -10.59375 9.175781 -9.71875 9.9375 -8.9375 C 10.695312 -8.164062 11.617188 -7.78125 12.703125 -7.78125 C 13.796875 -7.78125 14.703125 -8.175781 15.421875 -8.96875 C 16.140625 -9.757812 16.5 -10.628906 16.5 -11.578125 C 16.5 -12.535156 16.148438 -13.425781 15.453125 -14.25 C 14.765625 -15.070312 13.84375 -15.484375 12.6875 -15.484375 C 11.53125 -15.484375 10.59375 -15.070312 9.875 -14.25 C 9.15625 -13.425781 8.796875 -12.53125 8.796875 -11.5625 Z M 8.796875 -11.5625 "/></g></g></g><g fill="#95b1ee" fill-opacity="1"><g transform="translate(295.175914, 210.833912)"><g><path d="M 1.9375 -2.0625 C 1.375 -2.414062 1.09375 -2.972656 1.09375 -3.734375 C 1.09375 -4.492188 1.648438 -5.65625 2.765625 -7.21875 C 3.085938 -7.71875 3.609375 -7.96875 4.328125 -7.96875 C 5.046875 -7.96875 6.019531 -7.609375 7.25 -6.890625 C 8.488281 -6.171875 9.601562 -5.8125 10.59375 -5.8125 C 12.382812 -5.8125 13.28125 -6.160156 13.28125 -6.859375 C 13.28125 -7.421875 12.300781 -7.832031 10.34375 -8.09375 C 8.488281 -8.351562 6.65625 -9.039062 4.84375 -10.15625 C 3.988281 -10.6875 3.28125 -11.515625 2.71875 -12.640625 C 2.164062 -13.773438 1.890625 -15.117188 1.890625 -16.671875 C 1.890625 -21.304688 5.070312 -23.625 11.4375 -23.625 C 13.519531 -23.625 15.660156 -23.125 17.859375 -22.125 C 18.878906 -21.65625 19.390625 -21.066406 19.390625 -20.359375 C 19.390625 -19.660156 19.066406 -18.796875 18.421875 -17.765625 C 17.785156 -16.742188 17.128906 -16.234375 16.453125 -16.234375 C 16.097656 -16.234375 15.441406 -16.453125 14.484375 -16.890625 C 13.535156 -17.328125 12.503906 -17.546875 11.390625 -17.546875 C 9.660156 -17.546875 8.796875 -17.222656 8.796875 -16.578125 C 8.796875 -15.703125 9.789062 -15.128906 11.78125 -14.859375 C 13.71875 -14.660156 15.597656 -14.109375 17.421875 -13.203125 C 18.265625 -12.785156 18.972656 -12.070312 19.546875 -11.0625 C 20.117188 -10.050781 20.40625 -8.78125 20.40625 -7.25 C 20.40625 -5.726562 20.117188 -4.429688 19.546875 -3.359375 C 18.972656 -2.296875 18.175781 -1.5 17.15625 -0.96875 C 15.28125 -0.0625 12.925781 0.390625 10.09375 0.390625 C 7.257812 0.390625 4.539062 -0.425781 1.9375 -2.0625 Z M 1.9375 -2.0625 "/></g></g></g><g fill="#95b1ee" fill-opacity="1"><g transform="translate(321.086133, 210.833912)"><g><path d="M 15.390625 -11.609375 L 21.25 -6.78125 C 21.976562 -6.15625 22.4375 -5.679688 22.625 -5.359375 C 22.820312 -5.035156 22.921875 -4.726562 22.921875 -4.4375 C 22.921875 -3.738281 22.460938 -2.785156 21.546875 -1.578125 C 20.554688 -0.347656 19.675781 0.265625 18.90625 0.265625 C 18.269531 0.265625 17.378906 -0.160156 16.234375 -1.015625 L 15.796875 -1.3125 C 15.117188 -1.875 14.078125 -2.847656 12.671875 -4.234375 C 11.265625 -5.628906 10.191406 -6.625 9.453125 -7.21875 L 9.453125 -3.828125 C 9.453125 -3.148438 9.429688 -2.640625 9.390625 -2.296875 C 9.347656 -1.960938 9.207031 -1.578125 8.96875 -1.140625 C 8.59375 -0.378906 7.46875 0 5.59375 0 C 3.738281 0 2.609375 -0.394531 2.203125 -1.1875 C 1.992188 -1.625 1.867188 -2.007812 1.828125 -2.34375 C 1.785156 -2.6875 1.765625 -3.195312 1.765625 -3.875 L 1.765625 -30.21875 C 1.765625 -30.894531 1.785156 -31.398438 1.828125 -31.734375 C 1.867188 -32.066406 1.992188 -32.457031 2.203125 -32.90625 C 2.609375 -33.695312 3.75 -34.09375 5.625 -34.09375 C 7.03125 -34.09375 8.03125 -33.84375 8.625 -33.34375 C 9.125 -32.925781 9.382812 -32.28125 9.40625 -31.40625 C 9.4375 -31.144531 9.453125 -30.734375 9.453125 -30.171875 L 9.453125 -16.234375 C 9.984375 -16.671875 10.78125 -17.414062 11.84375 -18.46875 C 12.914062 -19.53125 13.71875 -20.28125 14.25 -20.71875 L 14.78125 -21.0625 C 15.800781 -21.851562 16.675781 -22.25 17.40625 -22.25 C 18.144531 -22.25 18.988281 -21.65625 19.9375 -20.46875 C 20.894531 -19.28125 21.375 -18.347656 21.375 -17.671875 C 21.375 -17.003906 20.832031 -16.21875 19.75 -15.3125 Z M 15.390625 -11.609375 "/></g></g></g><path stroke-linecap="round" transform="matrix(0.676024, 0, 0, 0.676024, 29.230716, 98.571423)" fill="none" stroke-linejoin="miter" d="M 8.002544 8.001267 L 155.764576 8.001267 " stroke="#364cb4" stroke-width="16" stroke-opacity="1" stroke-miterlimit="4"/><path stroke-linecap="round" transform="matrix(0, 0.676024, -0.676024, 0, 39.83746, 98.697766)" fill="none" stroke-linejoin="miter" d="M 7.99928 7.999384 L 164.538511 7.999384 " stroke="#364cb4" stroke-width="16" stroke-opacity="1" stroke-miterlimit="4"/><path stroke-linecap="round" transform="matrix(0.00000000117988, 0.676024, -0.676024, 0.00000000117988, 140.836109, 98.517613)" fill="none" stroke-linejoin="miter" d="M 7.99997 7.997385 L 166.3478 7.997385 " stroke="#364cb4" stroke-width="16" stroke-opacity="1" stroke-miterlimit="4"/><path stroke-linecap="round" transform="matrix(0.676024, 0, 0, 0.676024, 29.132949, 206.614323)" fill="none" stroke-linejoin="miter" d="M 6.997289 7.001727 L 86.465896 7.001727 " stroke="#364cb4" stroke-width="14" stroke-opacity="1" stroke-miterlimit="4"/><path stroke-linecap="round" transform="matrix(0.676024, 0, 0, 0.676024, 82.99959, 128.786564)" fill="none" stroke-linejoin="miter" d="M 7.997738 8.000827 L 7.997738 120.804299 " stroke="#364cb4" stroke-width="16" stroke-opacity="1" stroke-miterlimit="4"/><path stroke-linecap="round" transform="matrix(0.676024, 0, 0, 0.676024, 51.157564, 123.378376)" fill="none" stroke-linejoin="miter" d="M 8.000967 7.997916 L 98.471409 7.997916 " stroke="#364cb4" stroke-width="16" stroke-opacity="1" stroke-miterlimit="4"/><path stroke-linecap="round" transform="matrix(0.676021, -0.00197864, 0.00197864, 0.676021, 45.497207, 198.362653)" fill="none" stroke-linejoin="miter" d="M 4.002564 3.99967 L 42.168222 4.001589 " stroke="#364cb4" stroke-width="8" stroke-opacity="1" stroke-miterlimit="4"/><path stroke-linecap="round" transform="matrix(0.676012, 0.00394567, -0.00394567, 0.676012, 45.429556, 173.172893)" fill="none" stroke-linejoin="miter" d="M 3.999077 4.002678 L 42.303886 3.998683 " stroke="#364cb4" stroke-width="8" stroke-opacity="1" stroke-miterlimit="4"/><path stroke-linecap="round" transform="matrix(0, 0.676024, -0.676024, 0, 50.733512, 173.638465)" fill="none" stroke-linejoin="miter" d="M 4.001762 3.99729 L 40.185316 3.99729 " stroke="#364cb4" stroke-width="8" stroke-opacity="1" stroke-miterlimit="4"/><path stroke-linecap="round" transform="matrix(0.00000000117988, 0.676024, -0.676024, 0.00000000117988, 76.887933, 173.63659)" fill="none" stroke-linejoin="miter" d="M 3.998756 4.000362 L 40.320989 4.000362 " stroke="#364cb4" stroke-width="8" stroke-opacity="1" stroke-miterlimit="4"/><path stroke-linecap="round" transform="matrix(-0.382326, 0.557526, -0.557526, -0.382326, 84.598321, 159.1654)" fill="none" stroke-linejoin="miter" d="M 5.002437 4.999453 L 60.837189 5.000528 " stroke="#e7f1a8" stroke-width="10" stroke-opacity="1" stroke-miterlimit="4"/><path stroke-linecap="round" transform="matrix(0.467302, 0.488505, -0.488505, 0.467302, 49.712111, 178.520614)" fill="none" stroke-linejoin="miter" d="M 5.000571 5.00183 L 21.817983 5.000668 " stroke="#e7f1a8" stroke-width="10" stroke-opacity="1" stroke-miterlimit="4"/><path stroke-linecap="round" transform="matrix(0.467705, 0.488119, -0.488119, 0.467705, 50.683984, 177.993183)" fill="none" stroke-linejoin="miter" d="M 2.499935 2.500218 L 16.002634 2.497915 " stroke="#bdb17a" stroke-width="5" stroke-opacity="1" stroke-miterlimit="4"/><path stroke-linecap="round" transform="matrix(0.388272, -0.553401, 0.553401, 0.388272, 58.418746, 192.984187)" fill="none" stroke-linejoin="miter" d="M 2.501706 2.499721 L 60.651083 2.500311 " stroke="#bdb17a" stroke-width="5" stroke-opacity="1" stroke-miterlimit="4"/><path stroke-linecap="round" transform="matrix(0.392218, -0.550611, 0.550611, 0.392218, 55.087659, 186.975017)" fill="none" stroke-linejoin="miter" d="M 2.501593 2.499917 L 55.789789 2.503057 " stroke="#bdb17a" stroke-width="5" stroke-opacity="1" stroke-miterlimit="4"/><path stroke-linecap="round" transform="matrix(-0.467844, -0.487986, 0.487986, -0.467844, 55.141472, 195.239519)" fill="none" stroke-linejoin="miter" d="M 2.498705 2.497893 L 20.545936 2.501732 " stroke="#bdb17a" stroke-width="5" stroke-opacity="1" stroke-miterlimit="4"/><path stroke-linecap="round" transform="matrix(0.568873, 0.365229, -0.365229, 0.568873, 78.569771, 152.580312)" fill="none" stroke-linejoin="miter" d="M 3.618234 4.821355 C 6.364908 1.698333 9.114928 1.724955 11.861691 4.912329 " stroke="#bdb17a" stroke-width="5" stroke-opacity="1" stroke-miterlimit="4"/><path stroke-linecap="round" transform="matrix(-0.675186, 0.0336374, -0.0336374, -0.675186, 62.672835, 194.97939)" fill="none" stroke-linejoin="miter" d="M 3.531333 3.003412 C 5.676318 2.335025 7.770637 2.335225 9.820063 3.0043 " stroke="#bdb17a" stroke-width="5" stroke-opacity="1" stroke-miterlimit="4"/><path stroke-linecap="round" transform="matrix(-0.470187, 0.485729, -0.485729, -0.470187, 53.243622, 179.937907)" fill="none" stroke-linejoin="miter" d="M 3.611439 3.391056 C 6.02002 6.302953 8.427401 6.272624 10.833581 3.300071 " stroke="#bdb17a" stroke-width="5" stroke-opacity="1" stroke-miterlimit="4"/></svg>