<svg width="66" height="66" viewBox="0 0 66 66" fill="none" xmlns="http://www.w3.org/2000/svg">
<path d="M14.7392 30.1111C13.4129 30.1111 12.2918 29.6493 11.3761 28.7256C10.4587 27.8019 10 26.6719 10 25.3357C10 23.9995 10.4579 22.8688 11.3737 21.9435C12.2895 21.0182 13.4097 20.5556 14.7345 20.5556C16.0592 20.5556 17.1803 21.0174 18.0976 21.9411C19.015 22.8648 19.4737 23.9948 19.4737 25.3309C19.4737 26.6671 19.0158 27.7979 18.1 28.7232C17.1842 29.6485 16.0639 30.1111 14.7392 30.1111ZM25.3971 20.5556C24.0708 20.5556 22.9497 20.0937 22.0339 19.17C21.1166 18.2463 20.6579 17.1164 20.6579 15.7802C20.6579 14.444 21.1158 13.3132 22.0316 12.3879C22.9474 11.4626 24.0676 11 25.3924 11C26.7171 11 27.8382 11.4619 28.7555 12.3856C29.6729 13.3093 30.1316 14.4392 30.1316 15.7754C30.1316 17.1116 29.6737 18.2423 28.7579 19.1676C27.8421 20.0929 26.7218 20.5556 25.3971 20.5556ZM39.6076 20.5556C38.2813 20.5556 37.1603 20.0937 36.2445 19.17C35.3271 18.2463 34.8684 17.1164 34.8684 15.7802C34.8684 14.444 35.3263 13.3132 36.2421 12.3879C37.1579 11.4626 38.2782 11 39.6029 11C40.9276 11 42.0487 11.4619 42.9661 12.3856C43.8834 13.3093 44.3421 14.4392 44.3421 15.7754C44.3421 17.1116 43.8842 18.2423 42.9684 19.1676C42.0526 20.0929 40.9324 20.5556 39.6076 20.5556ZM50.2655 30.1111C48.9392 30.1111 47.8182 29.6493 46.9024 28.7256C45.985 27.8019 45.5263 26.6719 45.5263 25.3357C45.5263 23.9995 45.9842 22.8688 46.9 21.9435C47.8158 21.0182 48.9361 20.5556 50.2608 20.5556C51.5855 20.5556 52.7066 21.0174 53.6239 21.9411C54.5413 22.8648 55 23.9948 55 25.3309C55 26.6671 54.5421 27.7979 53.6263 28.7232C52.7105 29.6485 51.5903 30.1111 50.2655 30.1111ZM19.8289 54C18.3558 54 17.1392 53.4314 16.1792 52.2943C15.2176 51.1588 14.7368 49.8163 14.7368 48.2667C14.7368 46.3189 15.415 44.6531 16.7713 43.2691C18.1261 41.8836 19.4492 40.4805 20.7408 39.0599C21.8855 37.7954 22.8803 36.4441 23.725 35.0059C24.5682 33.5678 25.5471 32.2117 26.6618 30.9377C27.4387 30.0554 28.3182 29.2989 29.3003 28.6682C30.2824 28.0376 31.3489 27.7222 32.5 27.7222C33.6842 27.7222 34.7816 28.0248 35.7921 28.63C36.8026 29.2384 37.6821 29.9988 38.4305 30.9114C39.5358 32.1855 40.5053 33.5431 41.3389 34.9844C42.1726 36.4273 43.1468 37.7858 44.2616 39.0599C45.5516 40.4805 46.8739 41.8836 48.2287 43.2691C49.585 44.6531 50.2632 46.3189 50.2632 48.2667C50.2632 49.8163 49.7824 51.1588 48.8208 52.2943C47.8608 53.4314 46.6442 54 45.1711 54C43.0395 54 40.9276 53.8208 38.8355 53.4625C36.7434 53.1042 34.6316 52.925 32.5 52.925C30.3684 52.925 28.2566 53.1042 26.1645 53.4625C24.0724 53.8208 21.9605 54 19.8289 54Z" fill="black"/>
</svg>
