<svg width="66" height="66" viewBox="0 0 66 66" fill="none" xmlns="http://www.w3.org/2000/svg">
<path d="M19.7999 18.15C19.7999 17.7124 19.9737 17.2927 20.2832 16.9833C20.5926 16.6739 21.0123 16.5 21.4499 16.5H44.5499C44.9875 16.5 45.4072 16.6739 45.7166 16.9833C46.0261 17.2927 46.1999 17.7124 46.1999 18.15C46.1999 18.5876 46.0261 19.0073 45.7166 19.3168C45.4072 19.6262 44.9875 19.8 44.5499 19.8H21.4499C21.0123 19.8 20.5926 19.6262 20.2832 19.3168C19.9737 19.0073 19.7999 18.5876 19.7999 18.15ZM21.4499 23.1C21.0123 23.1 20.5926 23.2739 20.2832 23.5833C19.9737 23.8927 19.7999 24.3124 19.7999 24.75C19.7999 25.1876 19.9737 25.6073 20.2832 25.9168C20.5926 26.2262 21.0123 26.4 21.4499 26.4H44.5499C44.9875 26.4 45.4072 26.2262 45.7166 25.9168C46.0261 25.6073 46.1999 25.1876 46.1999 24.75C46.1999 24.3124 46.0261 23.8927 45.7166 23.5833C45.4072 23.2739 44.9875 23.1 44.5499 23.1H21.4499ZM19.7999 9.90002C17.1743 9.90002 14.6562 10.9431 12.7995 12.7997C10.9429 14.6563 9.8999 17.1744 9.8999 19.8V46.2C9.8999 48.8257 10.9429 51.3438 12.7995 53.2004C14.6562 55.057 17.1743 56.1 19.7999 56.1H46.1999C48.8256 56.1 51.3437 55.057 53.2003 53.2004C55.0569 51.3438 56.0999 48.8257 56.0999 46.2V19.8C56.0999 17.1744 55.0569 14.6563 53.2003 12.7997C51.3437 10.9431 48.8256 9.90002 46.1999 9.90002H19.7999ZM52.7999 33H41.2499C40.8123 33 40.3926 33.1739 40.0832 33.4833C39.7737 33.7927 39.5999 34.2124 39.5999 34.65V34.6863L39.5867 34.8843C39.5093 35.9792 39.2225 37.049 38.7419 38.0358C38.3165 38.9223 37.6655 39.6813 36.8543 40.2369C35.9963 40.8111 34.7753 41.25 32.9999 41.25C31.2245 41.25 30.0068 40.8111 29.1455 40.2369C28.3343 39.6813 27.6833 38.9223 27.2579 38.0358C26.7476 36.9891 26.4556 35.8495 26.3999 34.6863V34.65C26.3999 34.2124 26.2261 33.7927 25.9166 33.4833C25.6072 33.1739 25.1875 33 24.7499 33H13.1999V19.8C13.1999 18.0496 13.8953 16.3709 15.133 15.1331C16.3707 13.8954 18.0495 13.2 19.7999 13.2H46.1999C47.9503 13.2 49.6291 13.8954 50.8668 15.1331C52.1046 16.3709 52.7999 18.0496 52.7999 19.8V33ZM13.1999 36.3H23.2649C23.42 37.1712 23.717 38.3328 24.3044 39.5142C24.9182 40.7385 25.8653 42.0156 27.314 42.9825C28.7759 43.956 30.647 44.55 32.9999 44.55C35.3528 44.55 37.2239 43.956 38.6858 42.9825C40.1378 42.0156 41.0816 40.7385 41.6954 39.5142C42.2828 38.3328 42.5798 37.1712 42.7349 36.3H52.7999V46.2C52.7999 47.9505 52.1046 49.6292 50.8668 50.8669C49.6291 52.1047 47.9503 52.8 46.1999 52.8H19.7999C18.0495 52.8 16.3707 52.1047 15.133 50.8669C13.8953 49.6292 13.1999 47.9505 13.1999 46.2V36.3Z" fill="black"/>
</svg>
