<svg width="66" height="66" viewBox="0 0 66 66" fill="none" xmlns="http://www.w3.org/2000/svg">
<path d="M32.9 57C29.6305 57 26.545 56.3689 23.6435 55.1067C20.7402 53.8427 18.2059 52.1271 16.0404 49.96C13.875 47.7929 12.1593 45.2507 10.8935 42.3333C9.62761 39.416 8.99646 36.3049 9.00001 33C9.00001 29.6524 9.64538 26.5191 10.9361 23.6C12.2269 20.6809 13.9861 18.1404 16.2137 15.9787C18.4414 13.8169 21.0549 12.1138 24.0542 10.8693C27.0535 9.62489 30.2474 9.00178 33.636 9C36.7473 9 39.7093 9.52533 42.5219 10.576C45.3362 11.6284 47.8128 13.0862 49.9516 14.9493C52.0904 16.816 53.7998 19.0382 55.0799 21.616C56.36 24.1938 57 27.0071 57 30.056C57 34.1769 55.8124 37.4747 53.4371 39.9493C51.0619 42.424 47.8057 43.6631 43.6686 43.6667H38.9403C37.8221 43.6667 36.886 44.0516 36.1322 44.8213C35.3784 45.5911 35.0015 46.5191 35.0015 47.6053C35.0015 48.72 35.3348 49.6658 36.0015 50.4427C36.6682 51.2196 37.0016 52.1164 37.0016 53.1333C37.0016 54.4311 36.638 55.4 35.9108 56.04C35.1855 56.68 34.1836 57 32.9 57ZM18.3339 34.3333C19.0806 34.3333 19.7117 34.0756 20.2273 33.56C20.7429 33.0444 21.0007 32.4133 21.0007 31.6667C21.0007 30.92 20.7429 30.2889 20.2273 29.7733C19.7117 29.2578 19.0806 29 18.3339 29C17.5872 29 16.956 29.2578 16.4404 29.7733C15.9248 30.2889 15.667 30.92 15.667 31.6667C15.667 32.4133 15.9248 33.0444 16.4404 33.56C16.956 34.0756 17.5872 34.3333 18.3339 34.3333ZM26.3343 23.6667C27.081 23.6667 27.7122 23.4089 28.2277 22.8933C28.7433 22.3778 29.0011 21.7467 29.0011 21C29.0011 20.2533 28.7433 19.6222 28.2277 19.1067C27.7122 18.5911 27.081 18.3333 26.3343 18.3333C25.5876 18.3333 24.9565 18.5911 24.4409 19.1067C23.9253 19.6222 23.6675 20.2533 23.6675 21C23.6675 21.7467 23.9253 22.3778 24.4409 22.8933C24.9565 23.4089 25.5876 23.6667 26.3343 23.6667ZM39.6684 23.6667C40.4151 23.6667 41.0462 23.4089 41.5618 22.8933C42.0774 22.3778 42.3352 21.7467 42.3352 21C42.3352 20.2533 42.0774 19.6222 41.5618 19.1067C41.0462 18.5911 40.4151 18.3333 39.6684 18.3333C38.9217 18.3333 38.2905 18.5911 37.7749 19.1067C37.2594 19.6222 37.0016 20.2533 37.0016 21C37.0016 21.7467 37.2594 22.3778 37.7749 22.8933C38.2905 23.4089 38.9217 23.6667 39.6684 23.6667ZM47.6688 34.3333C48.4155 34.3333 49.0467 34.0756 49.5623 33.56C50.0778 33.0444 50.3356 32.4133 50.3356 31.6667C50.3356 30.92 50.0778 30.2889 49.5623 29.7733C49.0467 29.2578 48.4155 29 47.6688 29C46.9221 29 46.291 29.2578 45.7754 29.7733C45.2598 30.2889 45.002 30.92 45.002 31.6667C45.002 32.4133 45.2598 33.0444 45.7754 33.56C46.291 34.0756 46.9221 34.3333 47.6688 34.3333ZM32.9 54.3333C33.3676 54.3333 33.7232 54.2311 33.9667 54.0267C34.2121 53.8204 34.3347 53.5227 34.3347 53.1333C34.3347 52.5111 34.0014 51.8462 33.3347 51.1387C32.668 50.4311 32.3346 49.2667 32.3346 47.6453C32.3346 45.7111 32.9791 44.12 34.2681 42.872C35.557 41.624 37.1349 41 39.0017 41H43.6686C47.011 41 49.6245 40.016 51.509 38.048C53.3936 36.08 54.3359 33.416 54.3359 30.056C54.3359 24.6444 52.2548 20.2267 48.0928 16.8027C43.9308 13.3787 39.1128 11.6667 33.6387 11.6667C27.489 11.6667 22.2896 13.7333 18.0405 17.8667C13.7914 22 11.6668 27.0444 11.6668 33C11.6668 38.9111 13.7452 43.9449 17.9018 48.1013C22.0585 52.2578 27.0579 54.3351 32.9 54.3333Z" fill="black"/>
</svg>
