<svg width="35" height="35" viewBox="0 0 35 35" fill="none" xmlns="http://www.w3.org/2000/svg">
<path d="M10.2083 9.91671C10.2083 8.8697 9.22891 8.02087 8.02075 8.02087C6.81263 8.02087 5.83325 8.8697 5.83325 9.91671V25.0834C5.83325 26.1304 6.81263 26.9792 8.02075 26.9792C9.22891 26.9792 10.2083 26.1304 10.2083 25.0834V9.91671Z" stroke="black" stroke-width="2.66667" stroke-linejoin="round"/>
<path d="M29.1665 9.91671C29.1665 8.8697 28.1872 8.02087 26.979 8.02087C25.7708 8.02087 24.7915 8.8697 24.7915 9.91671V25.0834C24.7915 26.1304 25.7708 26.9792 26.979 26.9792C28.1872 26.9792 29.1665 26.1304 29.1665 25.0834V9.91671Z" stroke="black" stroke-width="2.66667" stroke-linejoin="round"/>
<path d="M5.83325 13.6112C5.83325 12.5373 4.85387 11.6667 3.64575 11.6667C2.43763 11.6667 1.45825 12.5373 1.45825 13.6112V21.3889C1.45825 22.4629 2.43763 23.3334 3.64575 23.3334C4.85387 23.3334 5.83325 22.4629 5.83325 21.3889V13.6112Z" stroke="black" stroke-width="2.66667" stroke-linejoin="round"/>
<path d="M33.5415 13.6112C33.5415 12.5373 32.5622 11.6667 31.354 11.6667C30.1458 11.6667 29.1665 12.5373 29.1665 13.6112V21.3889C29.1665 22.4629 30.1458 23.3334 31.354 23.3334C32.5622 23.3334 33.5415 22.4629 33.5415 21.3889V13.6112Z" stroke="black" stroke-width="2.66667" stroke-linejoin="round"/>
<path d="M24.7916 19.6875H10.2083V15.3125H24.7916V19.6875Z" stroke="black" stroke-width="2.66667" stroke-linejoin="round"/>
</svg>
