<svg width="34" height="33" viewBox="0 0 34 33" fill="none" xmlns="http://www.w3.org/2000/svg">
<path d="M3.58074 14.6667C2.57863 14.6667 1.73161 14.3122 1.03968 13.6033C0.346562 12.8944 0 12.0273 0 11.0018C0 9.97639 0.345965 9.10861 1.03789 8.3985C1.72982 7.68839 2.57625 7.33333 3.57716 7.33333C4.57807 7.33333 5.42509 7.68778 6.11821 8.39667C6.81133 9.10556 7.1579 9.97272 7.1579 10.9982C7.1579 12.0236 6.81193 12.8914 6.12 13.6015C5.42807 14.3116 4.58165 14.6667 3.58074 14.6667ZM11.6334 7.33333C10.6313 7.33333 9.78425 6.97889 9.09232 6.27C8.39919 5.56111 8.05263 4.69394 8.05263 3.6685C8.05263 2.64306 8.3986 1.77528 9.09053 1.06517C9.78246 0.355055 10.6289 0 11.6298 0C12.6307 0 13.4777 0.354444 14.1708 1.06333C14.864 1.77222 15.2105 2.63939 15.2105 3.66483C15.2105 4.69028 14.8646 5.55806 14.1726 6.26817C13.4807 6.97828 12.6343 7.33333 11.6334 7.33333ZM22.3702 7.33333C21.3681 7.33333 20.5211 6.97889 19.8292 6.27C19.136 5.56111 18.7895 4.69394 18.7895 3.6685C18.7895 2.64306 19.1354 1.77528 19.8274 1.06517C20.5193 0.355055 21.3657 0 22.3666 0C23.3675 0 24.2146 0.354444 24.9077 1.06333C25.6008 1.77222 25.9474 2.63939 25.9474 3.66483C25.9474 4.69028 25.6014 5.55806 24.9095 6.26817C24.2175 6.97828 23.3711 7.33333 22.3702 7.33333ZM30.4228 14.6667C29.4207 14.6667 28.5737 14.3122 27.8818 13.6033C27.1887 12.8944 26.8421 12.0273 26.8421 11.0018C26.8421 9.97639 27.1881 9.10861 27.88 8.3985C28.5719 7.68839 29.4184 7.33333 30.4193 7.33333C31.4202 7.33333 32.2672 7.68778 32.9603 8.39667C33.6534 9.10556 34 9.97272 34 10.9982C34 12.0236 33.654 12.8914 32.9621 13.6015C32.2702 14.3116 31.4238 14.6667 30.4228 14.6667ZM7.42632 33C6.31326 33 5.39407 32.5637 4.66874 31.691C3.94221 30.8196 3.57895 29.7892 3.57895 28.6C3.57895 27.1052 4.09133 25.8268 5.11611 24.7647C6.13968 23.7013 7.1394 22.6246 8.11526 21.5343C8.98018 20.5639 9.73176 19.5268 10.37 18.4232C11.0071 17.3195 11.7467 16.2788 12.5889 15.301C13.1759 14.6239 13.8404 14.0433 14.5824 13.5593C15.3245 13.0753 16.1303 12.8333 17 12.8333C17.8947 12.8333 18.7239 13.0656 19.4874 13.53C20.2509 13.9969 20.9154 14.5805 21.4808 15.2808C22.3159 16.2586 23.0484 17.3006 23.6783 18.4067C24.3082 19.514 25.0443 20.5566 25.8865 21.5343C26.8612 22.6246 27.8603 23.7013 28.8839 24.7647C29.9087 25.8268 30.4211 27.1052 30.4211 28.6C30.4211 29.7892 30.0578 30.8196 29.3313 31.691C28.6059 32.5637 27.6867 33 26.5737 33C24.9632 33 23.3675 32.8625 21.7868 32.5875C20.2061 32.3125 18.6105 32.175 17 32.175C15.3895 32.175 13.7939 32.3125 12.2132 32.5875C10.6325 32.8625 9.03684 33 7.42632 33Z" fill="black"/>
</svg>
