<svg width="34" height="35" viewBox="0 0 34 35" fill="none" xmlns="http://www.w3.org/2000/svg">
<path d="M28.6492 4.91402C27.0921 3.35397 25.2423 2.1168 23.2058 1.27352C21.1694 0.430242 18.9864 -0.00254155 16.7823 1.12275e-05C7.51365 1.12275e-05 0 7.51366 0 16.7823C0 21.4166 1.87946 25.6133 4.9168 28.6506C6.47388 30.2107 8.32373 31.4478 10.3602 32.2911C12.3966 33.1344 14.5796 33.5672 16.7837 33.5646C26.0523 33.5646 33.566 26.051 33.566 16.7823C33.566 12.148 31.6865 7.95136 28.6492 4.91402ZM26.4928 26.4873C25.2187 27.7635 23.7052 28.7757 22.0391 29.4658C20.373 30.156 18.5871 30.5105 16.7837 30.5091C9.20013 30.5091 3.05273 24.3617 3.05273 16.7781C3.05131 14.9747 3.40583 13.1888 4.09598 11.5227C4.78613 9.85661 5.79833 8.34311 7.07455 7.06897C8.34852 5.79291 9.8618 4.78081 11.5276 4.09067C13.1935 3.40052 14.9792 3.04591 16.7823 3.04714C24.3645 3.04714 30.5119 9.19455 30.5119 16.7767C30.5131 18.5799 30.1585 20.3655 29.4683 22.0314C28.7782 23.6972 27.7661 25.2105 26.49 26.4845L26.4928 26.4873Z" fill="black"/>
<path d="M18.9401 16.7836L24.3309 11.3928C24.5969 11.1029 24.7406 10.7215 24.732 10.3283C24.7235 9.93502 24.5634 9.56025 24.2852 9.2822C24.0069 9.00414 23.6321 8.8443 23.2388 8.83603C22.8455 8.82776 22.4643 8.9717 22.1746 9.23781L22.176 9.23641L16.7851 14.6273L11.3943 9.23641C11.1044 8.97049 10.7231 8.82679 10.3298 8.83532C9.93653 8.84385 9.56176 9.00393 9.28371 9.28217C9.00565 9.5604 8.84581 9.93528 8.83754 10.3285C8.82927 10.7218 8.97321 11.1031 9.23932 11.3928L9.23792 11.3914L14.6288 16.7822L9.23792 22.1731C9.08624 22.3122 8.96429 22.4806 8.87941 22.6682C8.79453 22.8557 8.74847 23.0584 8.74401 23.2642C8.73955 23.47 8.77678 23.6746 8.85345 23.8656C8.93012 24.0566 9.04466 24.2302 9.19016 24.3758C9.33566 24.5214 9.50912 24.636 9.70009 24.7128C9.89107 24.7896 10.0956 24.827 10.3014 24.8226C10.5072 24.8183 10.71 24.7724 10.8976 24.6876C11.0851 24.6029 11.2536 24.481 11.3929 24.3294L11.3943 24.328L16.7851 18.9372L22.176 24.328C22.3151 24.4797 22.4835 24.6017 22.6711 24.6865C22.8586 24.7714 23.0613 24.8175 23.2671 24.8219C23.4729 24.8264 23.6775 24.7892 23.8685 24.7125C24.0595 24.6358 24.2331 24.5213 24.3787 24.3758C24.5243 24.2303 24.6389 24.0568 24.7157 23.8659C24.7925 23.6749 24.8299 23.4703 24.8255 23.2645C24.8212 23.0588 24.7753 22.856 24.6905 22.6684C24.6058 22.4808 24.4839 22.3123 24.3323 22.1731L24.3309 22.1717L18.9401 16.7836Z" fill="black"/>
</svg>
