<svg width="66" height="66" viewBox="0 0 66 66" fill="none" xmlns="http://www.w3.org/2000/svg">
<g clip-path="url(#clip0_1140_586)">
<path d="M13.7962 55C12.6247 55 11.7924 54.4775 11.2992 53.4325C10.8061 52.3875 10.9225 51.4113 11.6485 50.5038L27.5462 31.2015V13.75H23.7402C23.3497 13.75 23.0225 13.618 22.7585 13.354C22.4945 13.09 22.3634 12.7628 22.3652 12.3723C22.3671 11.9818 22.4982 11.6554 22.7585 11.3933C23.0188 11.1311 23.3461 11 23.7402 11H42.355C42.7437 11 43.07 11.132 43.334 11.396C43.598 11.66 43.73 11.9872 43.73 12.3777C43.73 12.7682 43.598 13.0946 43.334 13.3567C43.07 13.6189 42.7437 13.75 42.355 13.75H38.5462V31.2015L54.4412 50.5065C55.1691 51.4122 55.2864 52.3875 54.7932 53.4325C54.3001 54.4775 53.4677 55 52.2962 55H13.7962ZM19.2962 49.5H46.7962L37.4462 38.5H28.6462L19.2962 49.5ZM13.7962 52.25H52.2962L35.7962 32.175V13.75H30.2962V32.175L13.7962 52.25Z" fill="black"/>
</g>
<defs>
<clipPath id="clip0_1140_586">
<rect width="66" height="66" rx="5" fill="white"/>
</clipPath>
</defs>
</svg>
