<svg width="48" height="49" viewBox="0 0 48 49" fill="none" xmlns="http://www.w3.org/2000/svg">
<path d="M9.232 40.8333C8.31067 40.8333 7.542 40.5189 6.926 39.89C6.31 39.2612 6.00133 38.4759 6 37.534V17.591C6 16.6504 6.30867 15.8658 6.926 15.2369C7.54333 14.6081 8.31133 14.293 9.23 14.2916H18V11.4639C18 10.5248 18.3087 9.74007 18.926 9.10988C19.5433 8.47969 20.312 8.16527 21.232 8.16663H26.77C27.69 8.16663 28.4587 8.48105 29.076 9.10988C29.6933 9.73871 30.0013 10.5234 30 11.4639V14.2916H38.77C39.69 14.2916 40.458 14.6067 41.074 15.2369C41.69 15.8671 41.9987 16.6518 42 17.591V37.536C42 38.4752 41.6913 39.2598 41.074 39.89C40.4567 40.5202 39.6887 40.8347 38.77 40.8333H9.232ZM9.232 38.7916H38.77C39.0767 38.7916 39.3587 38.661 39.616 38.3996C39.8733 38.1383 40.0013 37.8497 40 37.534V17.591C40 17.2765 39.872 16.988 39.616 16.7253C39.36 16.4626 39.078 16.3319 38.77 16.3333H9.23C8.92333 16.3333 8.64133 16.464 8.384 16.7253C8.12667 16.9866 7.99867 17.2752 8 17.591V37.536C8 37.8491 8.128 38.1369 8.384 38.3996C8.64 38.6623 8.922 38.793 9.23 38.7916M20 14.2916H28V11.4639C28 11.1509 27.872 10.863 27.616 10.6003C27.36 10.3376 27.078 10.2069 26.77 10.2083H21.23C20.9233 10.2083 20.6413 10.339 20.384 10.6003C20.1267 10.8616 19.9987 11.1495 20 11.4639V14.2916Z" fill="black"/>
</svg>
