<svg width="66" height="66" viewBox="0 0 66 66" fill="none" xmlns="http://www.w3.org/2000/svg">
<path d="M20.779 20.2C20.779 18.4327 19.1248 17 17.0841 17C15.0434 17 13.3892 18.4327 13.3892 20.2V45.8C13.3892 47.5673 15.0434 49 17.0841 49C19.1248 49 20.779 47.5673 20.779 45.8V20.2Z" stroke="black" stroke-width="2.66667" stroke-linejoin="round"/>
<path d="M52.8024 20.2C52.8024 18.4327 51.1482 17 49.1075 17C47.0668 17 45.4126 18.4327 45.4126 20.2V45.8C45.4126 47.5673 47.0668 49 49.1075 49C51.1482 49 52.8024 47.5673 52.8024 45.8V20.2Z" stroke="black" stroke-width="2.66667" stroke-linejoin="round"/>
<path d="M13.3898 26.4359C13.3898 24.6232 11.7356 23.1538 9.69492 23.1538C7.65428 23.1538 6 24.6232 6 26.4359V39.564C6 41.3767 7.65428 42.8461 9.69492 42.8461C11.7356 42.8461 13.3898 41.3767 13.3898 39.564V26.4359Z" stroke="black" stroke-width="2.66667" stroke-linejoin="round"/>
<path d="M60.1916 26.4359C60.1916 24.6232 58.5374 23.1538 56.4967 23.1538C54.456 23.1538 52.8018 24.6232 52.8018 26.4359V39.564C52.8018 41.3767 54.456 42.8461 56.4967 42.8461C58.5374 42.8461 60.1916 41.3767 60.1916 39.564V26.4359Z" stroke="black" stroke-width="2.66667" stroke-linejoin="round"/>
<path d="M41.7203 36.6923H24.4721C22.4329 36.6923 20.7798 35.0392 20.7798 33C20.7798 30.9607 22.4329 29.3076 24.4721 29.3076H41.7203C43.7595 29.3076 45.4126 30.9607 45.4126 33C45.4126 35.0392 43.7595 36.6923 41.7203 36.6923Z" stroke="black" stroke-width="2.66667" stroke-linejoin="round"/>
</svg>
