<svg width="66" height="66" viewBox="0 0 66 66" fill="none" xmlns="http://www.w3.org/2000/svg">
<path d="M22.3437 19.503L29.5157 9.9605C29.9521 9.37017 30.4709 8.9375 31.0722 8.6625C31.6736 8.3875 32.3162 8.25 33 8.25C33.6838 8.25 34.3264 8.3875 34.9277 8.6625C35.5291 8.9375 36.0479 9.36925 36.4842 9.95775L43.6562 19.503L54.7112 23.265C55.6902 23.595 56.4437 24.1496 56.9717 24.9288C57.5016 25.7098 57.7665 26.5714 57.7665 27.5138C57.7665 27.9483 57.7023 28.38 57.574 28.809C57.4457 29.238 57.2367 29.6496 56.947 30.0438L49.7007 39.8695L49.9757 50.402C50.0216 51.6963 49.5944 52.7863 48.6942 53.6718C47.7941 54.5573 46.7463 55 45.551 55L44.3025 54.846L33 51.5158L21.6975 54.846C21.4702 54.9377 21.2502 54.9863 21.0375 54.9918C20.823 54.9973 20.6268 55 20.449 55C19.2298 55 18.1757 54.5573 17.2865 53.6718C16.3973 52.7863 15.9766 51.6973 16.0242 50.4048L16.2992 39.8008L9.0695 30.0438C8.778 29.6459 8.56808 29.2307 8.43975 28.798C8.31325 28.3653 8.25 27.9327 8.25 27.5C8.25 26.5723 8.52225 25.7088 9.06675 24.9095C9.60942 24.112 10.3684 23.5455 11.3437 23.21L22.3437 19.503ZM24.0735 21.868L12.2705 25.8445C11.7407 26.0205 11.3786 26.3817 11.1842 26.928C10.9899 27.4743 11.0697 27.9767 11.4235 28.435L19.1015 38.995L18.7742 50.435C18.7376 51.0345 18.9484 51.5112 19.4067 51.865C19.8651 52.217 20.3775 52.305 20.944 52.129L33 48.664L45.0587 52.1978C45.6216 52.3738 46.1322 52.2858 46.5905 51.9338C47.0488 51.5799 47.2606 51.1033 47.2257 50.5038L46.8957 38.9978L54.5765 28.5753C54.9285 28.1169 55.0082 27.6137 54.8157 27.0655C54.6214 26.5192 54.2593 26.158 53.7295 25.982L41.9265 21.868L34.3227 11.7398C34.0056 11.2814 33.5647 11.0523 33 11.0523C32.4353 11.0523 31.9953 11.2814 31.68 11.7398L24.0735 21.868Z" fill="black"/>
</svg>
