<svg width="66" height="66" viewBox="0 0 66 66" fill="none" xmlns="http://www.w3.org/2000/svg">
<path d="M20.7143 15C23.019 15 25.1798 15.5905 27.1964 16.7714C29.2131 17.9524 30.981 19.6705 32.5 21.9256C34.019 19.6705 35.7869 17.9524 37.8036 16.7714C39.8202 15.5905 41.981 15 44.2857 15C47.6171 15 50.4143 16.1337 52.6771 18.4011C54.94 20.6686 56.0714 23.4714 56.0714 26.8095C56.0714 27.0965 56.061 27.3659 56.04 27.6178C56.0191 27.8698 55.9911 28.1392 55.9562 28.4261H53.3371C53.3808 28.1392 53.4113 27.8698 53.4288 27.6178C53.4445 27.3659 53.4524 27.0965 53.4524 26.8095C53.4524 24.1852 52.5794 21.9983 50.8333 20.2487C49.0873 18.4991 46.9048 17.6243 44.2857 17.6243C42.201 17.6243 40.2768 18.2209 38.5133 19.4141C36.7498 20.6056 35.1723 22.4007 33.7807 24.7993H31.2193C29.7928 22.3674 28.2065 20.5636 26.4605 19.3879C24.7144 18.2122 22.799 17.6243 20.7143 17.6243C18.1302 17.6243 15.9563 18.4991 14.1929 20.2487C12.4294 21.9983 11.5476 24.1852 11.5476 26.8095C11.5476 27.0965 11.5563 27.3659 11.5738 27.6178C11.5913 27.8698 11.621 28.1392 11.6629 28.4261H9.04381C9.01063 28.1392 8.9827 27.8698 8.96 27.6178C8.9373 27.3659 8.92683 27.0965 8.92857 26.8095C8.92857 23.4714 10.06 20.6686 12.3229 18.4011C14.5857 16.1337 17.3829 15 20.7143 15ZM18.3781 43.566H22.0343C23.4311 44.9551 24.9921 46.4624 26.7171 48.0877C28.444 49.7113 30.3716 51.4976 32.5 53.4466C34.6302 51.4994 36.5578 49.7131 38.2829 48.0877C40.0079 46.4606 41.5689 44.9534 42.9657 43.566H46.6376C45.0802 45.1668 43.3088 46.9216 41.3236 48.8304C39.3401 50.7374 37.0606 52.8614 34.4852 55.2023L32.5 57L30.5148 55.2023C27.9394 52.8614 25.6625 50.7374 23.6843 48.8304C21.7043 46.9216 19.9356 45.1668 18.3781 43.566ZM30.0119 45.18C30.2773 45.18 30.4999 45.1004 30.6798 44.9411C30.8596 44.7802 31.0028 44.572 31.1093 44.3165L35.5014 31.0977L39.0031 36.3779C39.2213 36.6613 39.4763 36.887 39.7679 37.055C40.0594 37.2229 40.3903 37.3069 40.7605 37.3069H60V34.6826H41.0067L36.1876 27.4368C36.0602 27.2443 35.8899 27.1 35.6769 27.0037C35.4639 26.9075 35.2343 26.8594 34.9881 26.8594C34.7227 26.8594 34.4922 26.9399 34.2967 27.1008C34.0994 27.2601 33.964 27.4674 33.8907 27.7228L29.4986 40.9758L25.9105 35.6116C25.694 35.3282 25.439 35.1025 25.1457 34.9345C24.8524 34.7666 24.5224 34.6826 24.1557 34.6826H5V37.3069H23.8938L28.7626 44.6026C28.8901 44.83 29.069 44.9831 29.2995 45.0619C29.53 45.1406 29.7675 45.18 30.0119 45.18Z" fill="black"/>
</svg>
