<svg width="66" height="66" viewBox="0 0 66 66" fill="none" xmlns="http://www.w3.org/2000/svg">
<path fill-rule="evenodd" clip-rule="evenodd" d="M32.1707 46.825C32.4202 46.9775 32.7075 47.0569 32.9999 47.0542C33.2922 47.0569 33.5795 46.9775 33.829 46.825L36.1936 45.4063C38.4813 44.0321 41.0559 43.206 43.7161 42.9928C46.3762 42.7795 49.0496 43.1849 51.5269 44.1771C53.3811 44.9188 55.3957 43.5521 55.3957 41.5583V17.2708C55.3957 16.0667 54.6624 14.9854 53.5436 14.5375C50.3524 13.261 46.9091 12.7396 43.483 13.0143C40.0569 13.289 36.7407 14.3522 33.7936 16.1208L32.9999 16.5917L32.204 16.1146C29.2569 14.3459 25.9407 13.2827 22.5146 13.0081C19.0885 12.7334 15.6453 13.2547 12.454 14.5313C11.9063 14.7495 11.437 15.1275 11.1071 15.6161C10.7771 16.1047 10.6019 16.6813 10.604 17.2708V41.5625C10.604 43.5563 12.6186 44.9208 14.4728 44.1792C16.9501 43.1869 19.6235 42.7816 22.2836 42.9948C24.9438 43.2081 27.5185 44.0341 29.8061 45.4083L32.1707 46.825ZM13.729 17.3917V41.1146C16.608 40.0342 19.6939 39.618 22.7562 39.8973C25.8186 40.1765 28.7783 41.1438 31.4144 42.7271L31.4374 42.7396V19.3021L30.5978 18.7979C28.0814 17.2877 25.2517 16.3755 22.3271 16.1317C19.4024 15.8879 16.4608 16.3189 13.729 17.3917ZM34.5853 42.725L34.5624 42.7396V19.3021L35.4019 18.7979C37.9184 17.2877 40.748 16.3755 43.6727 16.1317C46.5973 15.8879 49.5389 16.3189 52.2707 17.3917V41.1146C49.3917 40.0342 46.3058 39.618 43.2435 39.8973C40.1811 40.1765 37.2214 41.1438 34.5853 42.7271" fill="black"/>
<path d="M27.3228 47.6708C25.2519 46.4629 22.8974 45.8264 20.4999 45.8264C18.1024 45.8264 15.7479 46.4629 13.677 47.6708L13.4624 47.7958C13.2851 47.8992 13.1299 48.0366 13.0057 48.1999C12.8815 48.3633 12.7907 48.5496 12.7385 48.7481C12.6862 48.9466 12.6736 49.1534 12.7013 49.3568C12.729 49.5601 12.7965 49.756 12.8999 49.9333C13.0033 50.1106 13.1407 50.2658 13.304 50.39C13.4674 50.5142 13.6537 50.605 13.8522 50.6573C14.0506 50.7095 14.2575 50.7221 14.4608 50.6944C14.6642 50.6667 14.8601 50.5992 15.0374 50.4958L15.252 50.3708C16.8449 49.4418 18.6559 48.9523 20.4999 48.9523C22.3439 48.9523 24.1549 49.4418 25.7478 50.3708L28.0145 51.6917C29.5277 52.5742 31.2481 53.0392 32.9999 53.0392C34.7517 53.0392 36.4721 52.5742 37.9853 51.6917L40.252 50.3708C41.8449 49.4418 43.6559 48.9523 45.4999 48.9523C47.3439 48.9523 49.1549 49.4418 50.7478 50.3708L50.9624 50.4958C51.3205 50.7047 51.7468 50.7628 52.1477 50.6573C52.5485 50.5518 52.8911 50.2914 53.0999 49.9333C53.3088 49.5753 53.3668 49.1489 53.2614 48.7481C53.1559 48.3472 52.8955 48.0047 52.5374 47.7958L52.3228 47.6708C50.2519 46.4629 47.8974 45.8264 45.4999 45.8264C43.1024 45.8264 40.7479 46.4629 38.677 47.6708L36.4124 48.9917C35.3767 49.596 34.1991 49.9145 32.9999 49.9145C31.8008 49.9145 30.6231 49.596 29.5874 48.9917L27.3228 47.6708Z" fill="black"/>
</svg>
