<svg width="28" height="28" viewBox="0 0 28 28" fill="none" xmlns="http://www.w3.org/2000/svg">
<path d="M25.7361 15.2359C26.4197 14.5523 26.4197 13.4422 25.7361 12.7586L16.9861 4.00859C16.3025 3.325 15.1924 3.325 14.5088 4.00859C13.8252 4.69218 13.8252 5.80234 14.5088 6.48593L22.0229 14L14.5143 21.5141C13.8307 22.1977 13.8307 23.3078 14.5143 23.9914C15.1979 24.675 16.308 24.675 16.9916 23.9914L25.7416 15.2414L25.7361 15.2359ZM6.48613 23.9859L15.2361 15.2359C15.9197 14.5523 15.9197 13.4422 15.2361 12.7586L6.48613 4.00859C5.80254 3.325 4.69238 3.325 4.00879 4.00859C3.3252 4.69218 3.3252 5.80234 4.00879 6.48593L11.5229 14L4.01426 21.5141C3.33066 22.1977 3.33066 23.3078 4.01426 23.9914C4.69785 24.675 5.80801 24.675 6.4916 23.9914L6.48613 23.9859Z" fill="black"/>
</svg>
