<svg width="35" height="35" viewBox="0 0 35 35" fill="none" xmlns="http://www.w3.org/2000/svg">
<path d="M17.5 2.1875C14.4715 2.1875 11.511 3.08556 8.99284 4.76812C6.47471 6.45068 4.51207 8.84217 3.3531 11.6402C2.19413 14.4382 1.8909 17.517 2.48173 20.4873C3.07257 23.4577 4.53094 26.1861 6.67243 28.3276C8.81393 30.4691 11.5424 31.9274 14.5127 32.5183C17.483 33.1091 20.5619 32.8059 23.3598 31.6469C26.1578 30.4879 28.5493 28.5253 30.2319 26.0072C31.9144 23.489 32.8125 20.5285 32.8125 17.5C32.8079 13.4403 31.1931 9.54819 28.3225 6.67754C25.4518 3.8069 21.5597 2.19213 17.5 2.1875ZM17.5 30.625C14.019 30.625 10.6806 29.2422 8.21923 26.7808C5.75782 24.3194 4.37501 20.981 4.37501 17.5C4.37501 14.019 5.75782 10.6806 8.21923 8.21922C10.6806 5.75781 14.019 4.375 17.5 4.375V17.5L26.7761 26.7761C25.5597 27.9971 24.114 28.9657 22.5221 29.6262C20.9302 30.2867 19.2235 30.6262 17.5 30.625Z" fill="black"/>
</svg>
