<svg width="39" height="39" viewBox="0 0 39 39" fill="none" xmlns="http://www.w3.org/2000/svg">
<path fill-rule="evenodd" clip-rule="evenodd" d="M4.875 6.09375C4.55177 6.09375 4.24177 6.22215 4.01321 6.45071C3.78465 6.67927 3.65625 6.98927 3.65625 7.3125V9.75C3.65625 10.0732 3.78465 10.3832 4.01321 10.6118C4.24177 10.8403 4.55177 10.9688 4.875 10.9688H7.3125C7.63573 10.9688 7.94573 10.8403 8.17429 10.6118C8.40285 10.3832 8.53125 10.0732 8.53125 9.75V7.3125C8.53125 6.98927 8.40285 6.67927 8.17429 6.45071C7.94573 6.22215 7.63573 6.09375 7.3125 6.09375H4.875ZM7.3125 7.3125H4.875V9.75H7.3125V7.3125Z" fill="black"/>
<path d="M12.1875 8.53125C12.1875 8.20802 12.3159 7.89802 12.5445 7.66946C12.773 7.4409 13.083 7.3125 13.4062 7.3125H35.3438C35.667 7.3125 35.977 7.4409 36.2055 7.66946C36.4341 7.89802 36.5625 8.20802 36.5625 8.53125C36.5625 8.85448 36.4341 9.16448 36.2055 9.39304C35.977 9.6216 35.667 9.75 35.3438 9.75H13.4062C13.083 9.75 12.773 9.6216 12.5445 9.39304C12.3159 9.16448 12.1875 8.85448 12.1875 8.53125ZM13.4062 17.0625C13.083 17.0625 12.773 17.1909 12.5445 17.4195C12.3159 17.648 12.1875 17.958 12.1875 18.2812C12.1875 18.6045 12.3159 18.9145 12.5445 19.143C12.773 19.3716 13.083 19.5 13.4062 19.5H35.3438C35.667 19.5 35.977 19.3716 36.2055 19.143C36.4341 18.9145 36.5625 18.6045 36.5625 18.2812C36.5625 17.958 36.4341 17.648 36.2055 17.4195C35.977 17.1909 35.667 17.0625 35.3438 17.0625H13.4062ZM13.4062 26.8125C13.083 26.8125 12.773 26.9409 12.5445 27.1695C12.3159 27.398 12.1875 27.708 12.1875 28.0312C12.1875 28.3545 12.3159 28.6645 12.5445 28.893C12.773 29.1216 13.083 29.25 13.4062 29.25H35.3438C35.667 29.25 35.977 29.1216 36.2055 28.893C36.4341 28.6645 36.5625 28.3545 36.5625 28.0312C36.5625 27.708 36.4341 27.398 36.2055 27.1695C35.977 26.9409 35.667 26.8125 35.3438 26.8125H13.4062Z" fill="black"/>
<path fill-rule="evenodd" clip-rule="evenodd" d="M3.65625 17.0625C3.65625 16.7393 3.78465 16.4293 4.01321 16.2007C4.24177 15.9722 4.55177 15.8438 4.875 15.8438H7.3125C7.63573 15.8438 7.94573 15.9722 8.17429 16.2007C8.40285 16.4293 8.53125 16.7393 8.53125 17.0625V19.5C8.53125 19.8232 8.40285 20.1332 8.17429 20.3618C7.94573 20.5903 7.63573 20.7188 7.3125 20.7188H4.875C4.55177 20.7188 4.24177 20.5903 4.01321 20.3618C3.78465 20.1332 3.65625 19.8232 3.65625 19.5V17.0625ZM4.875 17.0625H7.3125V19.5H4.875V17.0625ZM4.875 25.5938C4.55177 25.5938 4.24177 25.7222 4.01321 25.9507C3.78465 26.1793 3.65625 26.4893 3.65625 26.8125V29.25C3.65625 29.5732 3.78465 29.8832 4.01321 30.1118C4.24177 30.3403 4.55177 30.4688 4.875 30.4688H7.3125C7.63573 30.4688 7.94573 30.3403 8.17429 30.1118C8.40285 29.8832 8.53125 29.5732 8.53125 29.25V26.8125C8.53125 26.4893 8.40285 26.1793 8.17429 25.9507C7.94573 25.7222 7.63573 25.5938 7.3125 25.5938H4.875ZM7.3125 26.8125H4.875V29.25H7.3125V26.8125Z" fill="black"/>
</svg>
