<svg width="28" height="28" viewBox="0 0 28 28" fill="none" xmlns="http://www.w3.org/2000/svg">
<path d="M0.512892 13.6892C-0.170702 14.3728 -0.170702 15.483 0.512892 16.1666L9.26289 24.9166C9.94648 25.6002 11.0566 25.6002 11.7402 24.9166C12.4238 24.233 12.4238 23.1228 11.7402 22.4392L4.22617 14.9252L11.7348 7.41109C12.4184 6.7275 12.4184 5.61734 11.7348 4.93375C11.0512 4.25015 9.94102 4.25015 9.25742 4.93375L0.50742 13.6837L0.512892 13.6892ZM19.7629 4.93922L11.0129 13.6892C10.3293 14.3728 10.3293 15.483 11.0129 16.1666L19.7629 24.9166C20.4465 25.6002 21.5566 25.6002 22.2402 24.9166C22.9238 24.233 22.9238 23.1228 22.2402 22.4392L14.7262 14.9252L22.2348 7.41109C22.9184 6.7275 22.9184 5.61734 22.2348 4.93375C21.5512 4.25015 20.441 4.25015 19.7574 4.93375L19.7629 4.93922Z" fill="black"/>
</svg>
