<svg width="27" height="27" viewBox="0 0 27 27" fill="none" xmlns="http://www.w3.org/2000/svg">
<path d="M23.0468 13.8516L24.7418 15.361C25.0548 15.6222 25.264 15.9869 25.3314 16.3889C25.3988 16.791 25.32 17.2039 25.1093 17.5529L23.0656 21.0441C22.907 21.3114 22.6806 21.532 22.4093 21.6835C22.1349 21.8354 21.8267 21.916 21.5131 21.9179C21.3185 21.9191 21.1249 21.89 20.9393 21.8316L18.7699 21.1154C18.3899 21.3591 17.9949 21.5773 17.5849 21.7698L17.1293 23.9691C17.045 24.3737 16.8197 24.7352 16.4937 24.9891C16.1635 25.2476 15.7542 25.3841 15.3349 25.3754H11.1031C10.6838 25.3841 10.2745 25.2476 9.94431 24.9891C9.61896 24.7349 9.39438 24.3734 9.31056 23.9691L8.85306 21.7698C8.44843 21.5747 8.05585 21.3555 7.67743 21.1135L5.50056 21.8316C5.31494 21.89 5.12137 21.9191 4.92681 21.9179C4.61379 21.9156 4.30632 21.8351 4.03243 21.6835C3.76138 21.5325 3.535 21.3126 3.37618 21.046L1.25931 17.5529C1.03924 17.2007 0.955146 16.7804 1.0228 16.3707C1.09045 15.961 1.30521 15.59 1.62681 15.3273L3.31993 13.1879V12.5241L1.62493 11.0148C1.31193 10.7536 1.10278 10.3889 1.03537 9.98687C0.967962 9.58481 1.04674 9.17189 1.25743 8.82289L3.37431 5.33164C3.53287 5.06439 3.75927 4.84381 4.03056 4.69226C4.30444 4.54071 4.61192 4.46013 4.92493 4.45789C5.11774 4.44573 5.31128 4.46343 5.49868 4.51039L7.63243 5.26039C8.01368 5.01664 8.40868 4.79851 8.81743 4.60601L9.27493 2.40664C9.35875 2.00233 9.58333 1.64088 9.90868 1.38664C10.2389 1.12816 10.6482 0.991714 11.0674 1.00039H15.2637C15.6829 0.991714 16.0923 1.12816 16.4224 1.38664C16.7506 1.64351 16.9756 2.00539 17.0562 2.40664L17.5137 4.60601C17.9199 4.79976 18.3118 5.01851 18.6893 5.26226L20.8681 4.54601C21.1099 4.46735 21.3654 4.43973 21.6184 4.46491C21.8714 4.49008 22.1165 4.5675 22.3381 4.69226C22.6099 4.84601 22.8349 5.06726 22.9943 5.32976L25.1093 8.82289C25.3323 9.17206 25.4207 9.59045 25.3579 9.99998C25.2951 10.4095 25.0855 10.7822 24.7681 11.0485L23.0468 12.5148V13.8516Z" stroke="black" stroke-width="1.5"/>
<path d="M17.8755 13.1879C17.8755 14.4311 17.3816 15.6234 16.5026 16.5024C15.6235 17.3815 14.4312 17.8754 13.188 17.8754C11.9448 17.8754 10.7525 17.3815 9.87343 16.5024C8.99435 15.6234 8.50049 14.4311 8.50049 13.1879C8.50049 11.9447 8.99435 10.7524 9.87343 9.8733C10.7525 8.99423 11.9448 8.50037 13.188 8.50037C14.4312 8.50037 15.6235 8.99423 16.5026 9.8733C17.3816 10.7524 17.8755 11.9447 17.8755 13.1879Z" stroke="black" stroke-width="1.5"/>
</svg>
