<svg width="22" height="36" viewBox="0 0 22 36" fill="none" xmlns="http://www.w3.org/2000/svg">
<path d="M20.855 0.730844C20.6325 0.507728 20.3681 0.33071 20.077 0.209929C19.7859 0.0891483 19.4739 0.0269775 19.1588 0.0269775C18.8436 0.0269775 18.5316 0.0891483 18.2405 0.209929C17.9494 0.33071 17.6851 0.507728 17.4625 0.730844L1.53501 16.6583C1.35732 16.8357 1.21636 17.0463 1.12018 17.2781C1.024 17.51 0.974487 17.7586 0.974487 18.0096C0.974487 18.2606 1.024 18.5092 1.12018 18.741C1.21636 18.9729 1.35732 19.1835 1.53501 19.3608L17.4625 35.2883C18.4017 36.2275 19.9158 36.2275 20.855 35.2883C21.7942 34.3492 21.7942 32.835 20.855 31.8958L6.97834 18L20.8742 4.10418C21.7942 3.18418 21.7942 1.65084 20.855 0.730844Z" fill="black"/>
</svg>
