<svg width="11" height="11" viewBox="0 0 11 11" fill="none" xmlns="http://www.w3.org/2000/svg">
<path d="M5.5 0C8.53765 0 11 2.46235 11 5.5C11 8.53765 8.53765 11 5.5 11C2.46235 11 0 8.53765 0 5.5C0 2.46235 2.46235 0 5.5 0ZM5.5 0.76725C4.2448 0.76725 3.041 1.26588 2.15344 2.15344C1.26588 3.041 0.76725 4.2448 0.76725 5.5C0.76725 6.7552 1.26588 7.959 2.15344 8.84656C3.041 9.73412 4.2448 10.2327 5.5 10.2327C6.7552 10.2327 7.959 9.73412 8.84656 8.84656C9.73412 7.959 10.2327 6.7552 10.2327 5.5C10.2327 4.2448 9.73412 3.041 8.84656 2.15344C7.959 1.26588 6.7552 0.76725 5.5 0.76725ZM5.42025 3.9655C5.632 3.9655 5.8036 4.13765 5.8036 4.3494V8.5063C5.79984 8.60553 5.75778 8.69944 5.68625 8.76832C5.61471 8.83719 5.51928 8.87567 5.41997 8.87567C5.32067 8.87567 5.22524 8.83719 5.1537 8.76832C5.08217 8.69944 5.04011 8.60553 5.03635 8.5063V4.34885C5.03635 4.1371 5.20795 3.9655 5.42025 3.9655ZM5.43565 2.43045C5.57131 2.43045 5.70141 2.48434 5.79734 2.58026C5.89326 2.67619 5.94715 2.80629 5.94715 2.94195C5.94715 3.07761 5.89326 3.20771 5.79734 3.30364C5.70141 3.39956 5.57131 3.45345 5.43565 3.45345C5.29999 3.45345 5.16989 3.39956 5.07396 3.30364C4.97804 3.20771 4.92415 3.07761 4.92415 2.94195C4.92415 2.80629 4.97804 2.67619 5.07396 2.58026C5.16989 2.48434 5.29999 2.43045 5.43565 2.43045Z" fill="#3C4045"/>
</svg>
