<svg width="53" height="53" viewBox="0 0 53 53" fill="none" xmlns="http://www.w3.org/2000/svg">
<circle cx="26.5" cy="26.5" r="25.75" fill="white" stroke="black" stroke-width="1.5"/>
<path d="M27.0046 16.5001C27.0047 16.3144 26.931 16.1363 26.7998 16.005C26.6686 15.8737 26.4906 15.7998 26.3049 15.7998C26.1193 15.7997 25.9412 15.8733 25.8099 16.0046C25.6785 16.1358 25.6047 16.3138 25.6046 16.4994L25.6007 25.5994L16.5007 25.5955C16.315 25.5954 16.1369 25.6691 16.0056 25.8003C15.8743 25.9315 15.8004 26.1095 15.8003 26.2952C15.8003 26.4808 15.8739 26.6589 16.0052 26.7902C16.1364 26.9216 16.3144 26.9954 16.5 26.9955L25.6 26.9994L25.5961 36.0994C25.596 36.2851 25.6697 36.4632 25.8009 36.5945C25.9321 36.7258 26.1101 36.7997 26.2958 36.7997C26.4814 36.7998 26.6595 36.7262 26.7908 36.5949C26.9222 36.4637 26.996 36.2857 26.9961 36.1001L27 27.0001L36.1 27.004C36.2857 27.0041 36.4638 26.9304 36.5951 26.7992C36.7264 26.668 36.8003 26.49 36.8003 26.3043C36.8004 26.1187 36.7268 25.9406 36.5955 25.8093C36.4643 25.6779 36.2863 25.6041 36.1006 25.604L27.0007 25.6001L27.0046 16.5001Z" fill="black"/>
</svg>
