<svg width="66" height="66" viewBox="0 0 66 66" fill="none" xmlns="http://www.w3.org/2000/svg">
<path d="M52.5497 53.5635L36.7055 38.1661C36.3898 37.8958 36.232 37.5636 36.232 37.1696C36.232 36.7756 36.3898 36.4241 36.7055 36.1151C37.0211 35.8061 37.3703 35.6516 37.7531 35.6516C38.1358 35.6516 38.484 35.8061 38.7977 36.1151L46.6917 43.8428L54.5857 51.5704C54.8619 51.8408 55 52.1826 55 52.5959C55 53.0092 54.8422 53.3501 54.5265 53.6186C54.2503 53.8909 53.9208 54.0174 53.5381 53.9981C53.1554 53.9788 52.8259 53.8339 52.5497 53.5635ZM11.714 47.9087C10.4908 45.79 9.56548 43.5922 8.93811 41.3151C8.3127 39.0362 8 36.7244 8 34.3798C8 30.9479 8.64809 27.6221 9.94428 24.4026C11.2405 21.1831 13.2173 18.292 15.8748 15.7291C18.5303 13.1276 21.5064 11.1886 24.803 9.912C28.0978 8.63733 31.4596 8 34.8884 8C37.321 8 39.6914 8.30901 41.9997 8.92703C44.308 9.54505 46.5373 10.4537 48.6878 11.6531C49.5736 12.1745 50.0658 12.9191 50.1645 13.8866C50.2631 14.8562 49.9248 15.7204 49.1494 16.4794L16.6442 48.2997C15.8708 49.0568 14.986 49.3967 13.9897 49.3195C12.9934 49.2422 12.2348 48.771 11.714 47.9058M12.4047 42.3914C13.1789 44.5333 15.8867 44.9073 17.5142 43.3141V43.3141C18.7502 42.1041 18.906 40.1756 17.954 38.7315C17.7436 38.4124 17.5339 38.0887 17.3248 37.7606C16.5534 36.5496 15.8708 35.2643 15.277 33.9047C14.6831 32.5451 14.2126 31.1024 13.8654 29.5766V29.5766C13.5842 28.3413 11.8867 28.0691 11.573 29.2966C11.0323 31.4128 10.8435 33.5765 11.0067 35.7877C11.1744 38.0756 11.6404 40.2769 12.4047 42.3914ZM18.8461 34.4748C20.2351 37.1179 23.7711 37.3188 25.8961 35.2214L35.6859 25.5587C37.8597 23.4131 37.6316 19.784 34.8922 18.4334C34.3725 18.1772 33.8504 17.9401 33.3259 17.7222C31.1242 16.8068 29.0388 16.1955 27.0699 15.8884C25.101 15.5814 23.3165 15.5862 21.7165 15.9029C20.1165 16.2197 18.8785 16.8068 18.0025 17.6643C17.1266 18.5334 16.5278 19.7501 16.2062 21.3145C15.8827 22.8808 15.8679 24.6305 16.1618 26.5638C16.4558 28.497 17.0703 30.5481 18.0055 32.7169C18.2588 33.3045 18.539 33.8905 18.8461 34.4748ZM44.1287 17.383C45.7759 15.7802 45.4268 13.0344 43.2633 12.2589C41.0568 11.4681 38.7673 11.0044 36.3947 10.868C34.163 10.7397 31.9812 10.9262 29.8491 11.4277C28.6872 11.701 28.9347 13.366 30.0943 13.6491V13.6491C31.6529 14.0276 33.1266 14.5037 34.5156 15.0773C35.9045 15.6509 37.2243 16.3153 38.4751 17.0704C38.854 17.2991 39.2264 17.531 39.5924 17.7659C41.0217 18.6833 42.9114 18.5674 44.1287 17.383V17.383Z" fill="black"/>
</svg>
