<svg width="66" height="66" viewBox="0 0 66 66" fill="none" xmlns="http://www.w3.org/2000/svg">
<path d="M23.0669 33L28.0719 27.9922C28.3414 27.7246 28.4853 27.4093 28.5037 27.0463C28.5202 26.6814 28.3772 26.3477 28.0747 26.0452C27.7703 25.7427 27.4431 25.5915 27.0929 25.5915C26.7428 25.5915 26.4155 25.7427 26.1112 26.0452L20.7129 31.4435C20.4728 31.6855 20.3041 31.9312 20.2069 32.1805C20.1098 32.4317 20.0612 32.7048 20.0612 33C20.0612 33.2952 20.1098 33.5683 20.2069 33.8195C20.3041 34.0707 20.4728 34.3163 20.7129 34.5565L26.1662 40.007C26.4338 40.2747 26.7519 40.4177 27.1204 40.436C27.4889 40.4543 27.8244 40.3113 28.1269 40.007C28.4294 39.7027 28.5807 39.3782 28.5807 39.0335C28.5807 38.6888 28.4294 38.3643 28.1269 38.06L23.0669 33ZM44.4427 33L39.3827 38.06C39.1132 38.3295 38.9693 38.6458 38.9509 39.0088C38.9326 39.3718 39.0756 39.7045 39.3799 40.007C39.6843 40.3113 40.0115 40.4635 40.3617 40.4635C40.7118 40.4635 41.0391 40.3113 41.3434 40.007L46.7939 34.5565C47.0341 34.3145 47.2028 34.0688 47.2999 33.8195C47.3971 33.5702 47.4457 33.297 47.4457 33C47.4457 32.703 47.3971 32.4298 47.2999 32.1805C47.2028 31.9312 47.0341 31.6864 46.7939 31.4463L41.3434 25.993C41.2096 25.8592 41.0583 25.7583 40.8897 25.6905C40.7228 25.6245 40.556 25.5915 40.3892 25.5915C40.2223 25.5915 40.0454 25.6245 39.8584 25.6905C39.6714 25.7565 39.5119 25.8573 39.3799 25.993C39.0774 26.2955 38.9262 26.62 38.9262 26.9665C38.9262 27.313 39.0774 27.6375 39.3799 27.94L44.4427 33ZM16.1974 55C14.9306 55 13.8737 54.5765 13.0267 53.7295C12.1797 52.8825 11.7553 51.8247 11.7534 50.556V15.444C11.7534 14.1772 12.1778 13.1202 13.0267 12.2732C13.8755 11.4262 14.9324 11.0018 16.1974 11H51.3122C52.5772 11 53.6341 11.4244 54.4829 12.2732C55.3318 13.1221 55.7553 14.179 55.7534 15.444V50.5588C55.7534 51.8238 55.3299 52.8807 54.4829 53.7295C53.6359 54.5783 52.5781 55.0018 51.3094 55H16.1974ZM16.1974 52.25H51.3122C51.7338 52.25 52.1216 52.074 52.4754 51.722C52.8293 51.37 53.0053 50.9813 53.0034 50.556V15.444C53.0034 15.0205 52.8274 14.6318 52.4754 14.278C52.1234 13.9242 51.7348 13.7482 51.3094 13.75H16.1974C15.7739 13.75 15.3853 13.926 15.0314 14.278C14.6776 14.63 14.5016 15.0187 14.5034 15.444V50.5588C14.5034 50.9804 14.6794 51.3682 15.0314 51.722C15.3834 52.0758 15.7712 52.2518 16.1947 52.25" fill="black"/>
</svg>
