<svg width="47" height="41" viewBox="0 0 47 41" fill="none" xmlns="http://www.w3.org/2000/svg">
<path d="M11.7267 40.9025C11.3626 40.9025 11.0575 40.7814 10.8113 40.5392C10.5652 40.297 10.4429 39.9946 10.4447 39.6322C10.4464 39.2697 10.5686 38.9674 10.8113 38.7251C11.0541 38.4829 11.3592 38.3618 11.7267 38.3618H18.1724C20.2772 38.3618 21.9834 36.6556 21.9834 34.5509C21.9834 32.4462 20.2772 30.7399 18.1724 30.7399H4.33168C3.15045 30.7399 2.16496 30.3487 1.3752 29.5662C0.585434 28.7836 0.189698 27.8072 0.187988 26.6368V4.35544C0.187988 3.18675 0.583725 2.21115 1.3752 1.42863C2.16667 0.646117 3.15131 0.254013 4.32912 0.252319H42.2018C43.3814 0.252319 44.366 0.644423 45.1558 1.42863C45.9455 2.21284 46.3413 3.18929 46.343 4.35799V26.6368C46.343 27.8055 45.9472 28.782 45.1558 29.5662C44.3643 30.3504 43.3797 30.7416 42.2018 30.7399H28.3585C26.2538 30.7399 24.5476 32.4462 24.5476 34.5509C24.5476 36.6556 26.2538 38.3618 28.3585 38.3618H34.8042C35.17 38.3618 35.4752 38.4829 35.7196 38.7251C35.9641 38.9674 36.0863 39.2697 36.0863 39.6322C36.0863 39.9946 35.9641 40.297 35.7196 40.5392C35.4752 40.7814 35.17 40.9025 34.8042 40.9025H11.7267ZM2.75215 26.6368C2.75215 27.0264 2.91626 27.3846 3.24447 27.7115C3.57269 28.0384 3.93423 28.201 4.32912 28.1993H42.2018C42.595 28.1993 42.9566 28.0367 43.2865 27.7115C43.6164 27.3863 43.7805 27.0281 43.7788 26.6368V4.35544C43.7788 3.96588 43.6147 3.60765 43.2865 3.28076C42.9583 2.95386 42.5967 2.79126 42.2018 2.79295H4.32912C3.93594 2.79295 3.5744 2.95555 3.24447 3.28076C2.91455 3.60596 2.75044 3.96503 2.75215 4.35799V26.6368ZM2.75215 26.6368V2.79295V28.1993V26.6368Z" fill="black"/>
</svg>
