<svg width="66" height="66" viewBox="0 0 66 66" fill="none" xmlns="http://www.w3.org/2000/svg">
<path d="M21.5387 53.6502C21.1746 53.6502 20.8695 53.529 20.6233 53.2868C20.3772 53.0446 20.255 52.7423 20.2567 52.3798C20.2584 52.0174 20.3806 51.715 20.6233 51.4728C20.8661 51.2306 21.1712 51.1095 21.5387 51.1095H27.9845C30.0892 51.1095 31.7954 49.4033 31.7954 47.2986V47.2986C31.7954 45.1938 30.0892 43.4876 27.9845 43.4876H14.1437C12.9625 43.4876 11.977 43.0964 11.1872 42.3138C10.3974 41.5313 10.0017 40.5549 10 39.3845V17.1031C10 15.9344 10.3957 14.9588 11.1872 14.1763C11.9787 13.3938 12.9633 13.0017 14.1411 13H52.0139C53.1934 13 54.178 13.3921 54.9678 14.1763C55.7575 14.9605 56.1533 15.937 56.155 17.1057V39.3845C56.155 40.5532 55.7592 41.5296 54.9678 42.3138C54.1763 43.0981 53.1917 43.4893 52.0139 43.4876H38.1705C36.0658 43.4876 34.3596 45.1938 34.3596 47.2986V47.2986C34.3596 49.4033 36.0658 51.1095 38.1705 51.1095H44.6162C44.9821 51.1095 45.2872 51.2306 45.5316 51.4728C45.7761 51.715 45.8983 52.0174 45.8983 52.3798C45.8983 52.7423 45.7761 53.0446 45.5316 53.2868C45.2872 53.529 44.9821 53.6502 44.6162 53.6502H21.5387ZM12.5642 39.3845C12.5642 39.7741 12.7283 40.1323 13.0565 40.4592C13.3847 40.7861 13.7462 40.9487 14.1411 40.947H52.0139C52.407 40.947 52.7686 40.7844 53.0985 40.4592C53.4284 40.134 53.5925 39.7757 53.5908 39.3845V17.1031C53.5908 16.7136 53.4267 16.3553 53.0985 16.0284C52.7703 15.7015 52.4087 15.5389 52.0139 15.5406H14.1411C13.748 15.5406 13.3864 15.7032 13.0565 16.0284C12.7266 16.3536 12.5625 16.7127 12.5642 17.1057V39.3845ZM12.5642 39.3845V15.5406V40.947V39.3845Z" fill="black"/>
</svg>
