<svg width="66" height="66" viewBox="0 0 66 66" fill="none" xmlns="http://www.w3.org/2000/svg">
<path d="M32.75 58.011L30.6655 56.1273C26.1775 52.0279 22.465 48.5189 19.528 45.6002C16.5928 42.6797 14.2755 40.1039 12.576 37.8727C10.8765 35.6416 9.68851 33.6249 9.01201 31.8227C8.33551 30.0206 7.99817 28.2047 8.00001 26.375C8.00001 22.877 9.18801 19.94 11.564 17.564C13.94 15.188 16.877 14 20.375 14C22.795 14 25.0638 14.6187 27.1813 15.8562C29.2988 17.0937 31.155 18.8941 32.75 21.2572C34.345 18.8941 36.2013 17.0937 38.3188 15.8562C40.4363 14.6187 42.705 14 45.125 14C48.623 14 51.56 15.188 53.936 17.564C56.312 19.94 57.5 22.877 57.5 26.375C57.5 28.201 57.1627 30.016 56.488 31.82C55.8115 33.6277 54.6235 35.6462 52.924 37.8755C51.2245 40.1048 48.9154 42.6797 45.9968 45.6002C43.0781 48.5189 39.3564 52.0279 34.8318 56.1273L32.75 58.011ZM32.75 54.2875C37.15 50.3092 40.7708 46.9028 43.6125 44.0685C46.4542 41.2342 48.7 38.7729 50.35 36.6848C52 34.5966 53.1458 32.7495 53.7875 31.1435C54.4292 29.5338 54.75 27.9443 54.75 26.375C54.75 23.625 53.8333 21.3333 52 19.5C50.1667 17.6667 47.875 16.75 45.125 16.75C42.936 16.75 40.9157 17.3752 39.064 18.6255C37.2123 19.8758 35.5568 21.7578 34.0975 24.2713H31.408C29.9102 21.7229 28.2446 19.8318 26.4113 18.598C24.5779 17.366 22.5668 16.75 20.3778 16.75C17.6644 16.75 15.3819 17.6667 13.5303 19.5C11.6786 21.3333 10.7518 23.625 10.75 26.375C10.75 27.9443 11.0708 29.5338 11.7125 31.1435C12.3542 32.7532 13.5 34.6003 15.15 36.6848C16.8 38.7693 19.0458 41.2213 21.8875 44.041C24.7292 46.8607 28.35 50.2762 32.75 54.2875Z" fill="black"/>
</svg>
