<svg width="76" height="77" viewBox="0 0 76 77" fill="none" xmlns="http://www.w3.org/2000/svg">
<path d="M49.6179 35.1961C50.6022 35.1961 51.4338 34.8517 52.1125 34.1629C52.7912 33.4742 53.1306 32.639 53.1306 31.6575C53.1306 30.6759 52.787 29.8439 52.0998 29.1614C51.4106 28.4853 50.5738 28.1472 49.5894 28.1472C48.605 28.1472 47.7735 28.4906 47.0948 29.1772C46.4161 29.8639 46.0767 30.6991 46.0767 31.6827C46.0767 32.6664 46.4213 33.4984 47.1106 34.1787C47.7977 34.857 48.6335 35.1961 49.6179 35.1961ZM28.7029 35.1961C29.6851 35.1961 30.5156 34.8517 31.1944 34.1629C31.8752 33.4742 32.2156 32.639 32.2156 31.6575C32.2156 30.6738 31.871 29.8418 31.1817 29.1614C30.4924 28.4853 29.6567 28.1472 28.6744 28.1472C27.6901 28.1472 26.8585 28.4906 26.1798 29.1772C25.5011 29.866 25.1617 30.7012 25.1617 31.6827C25.1617 32.6664 25.5053 33.4984 26.1925 34.1787C26.8817 34.857 27.7185 35.1961 28.7029 35.1961ZM39.1462 54.9999C42.1603 54.9999 44.9385 54.1689 47.4805 52.507C50.0205 50.843 51.928 48.6367 53.2033 45.8879H25.089C26.3643 48.6388 28.2719 50.8451 30.8118 52.507C33.3517 54.1689 36.1298 54.9978 39.1462 54.9999ZM39.1556 68.0044C35.2203 68.0044 31.5211 67.2588 28.0579 65.7675C24.5947 64.2741 21.5816 62.2478 19.0185 59.6886C16.4553 57.1294 14.4266 54.1216 12.9321 50.6651C11.4377 47.2086 10.6904 43.513 10.6904 39.5783C10.6904 35.6437 11.4377 31.9471 12.9321 28.4885C14.4245 25.0278 16.449 22.0167 19.0058 19.4554C21.5626 16.8941 24.5737 14.8668 28.0389 13.3734C31.5042 11.88 35.2035 11.1333 39.1367 11.1333C43.0699 11.1333 46.7691 11.88 50.2344 13.3734C53.6976 14.8647 56.7107 16.8889 59.2738 19.446C61.837 22.0031 63.8657 25.012 65.3602 28.4727C66.8546 31.9334 67.6019 35.629 67.6019 39.5594C67.6019 43.4898 66.8557 47.1864 65.3634 50.6493C63.871 54.1121 61.8433 57.1231 59.2802 59.6823C56.717 62.2415 53.707 64.2688 50.2502 65.7643C46.7934 67.2598 43.0952 68.0065 39.1556 68.0044ZM39.1462 64.8449C46.2074 64.8449 52.1884 62.3963 57.0891 57.4991C61.9898 52.6018 64.4401 46.6251 64.4401 39.5689C64.4401 32.5126 61.9898 26.5359 57.0891 21.6387C52.1884 16.7414 46.2074 14.2928 39.1462 14.2928C32.0849 14.2928 26.1039 16.7414 21.2032 21.6387C16.3025 26.5359 13.8522 32.5126 13.8522 39.5689C13.8522 46.6251 16.3025 52.6018 21.2032 57.4991C26.1039 62.3963 32.0849 64.8449 39.1462 64.8449Z" fill="black"/>
</svg>
