<svg width="41" height="41" viewBox="0 0 41 41" fill="none" xmlns="http://www.w3.org/2000/svg">
<path d="M12.2999 11.275C12.2999 11.0032 12.4079 10.7425 12.6001 10.5502C12.7923 10.358 13.0531 10.25 13.3249 10.25H27.6749C27.9468 10.25 28.2075 10.358 28.3997 10.5502C28.5919 10.7425 28.6999 11.0032 28.6999 11.275C28.6999 11.5469 28.5919 11.8076 28.3997 11.9998C28.2075 12.192 27.9468 12.3 27.6749 12.3H13.3249C13.0531 12.3 12.7923 12.192 12.6001 11.9998C12.4079 11.8076 12.2999 11.5469 12.2999 11.275ZM13.3249 14.35C13.0531 14.35 12.7923 14.458 12.6001 14.6502C12.4079 14.8425 12.2999 15.1032 12.2999 15.375C12.2999 15.6469 12.4079 15.9076 12.6001 16.0998C12.7923 16.292 13.0531 16.4 13.3249 16.4H27.6749C27.9468 16.4 28.2075 16.292 28.3997 16.0998C28.5919 15.9076 28.6999 15.6469 28.6999 15.375C28.6999 15.1032 28.5919 14.8425 28.3997 14.6502C28.2075 14.458 27.9468 14.35 27.6749 14.35H13.3249ZM12.2999 6.15002C10.6688 6.15002 9.10454 6.79797 7.9512 7.95132C6.79785 9.10467 6.1499 10.6689 6.1499 12.3V28.7C6.1499 30.3311 6.79785 31.8954 7.9512 33.0487C9.10454 34.2021 10.6688 34.85 12.2999 34.85H28.6999C30.331 34.85 31.8953 34.2021 33.0486 33.0487C34.202 31.8954 34.8499 30.3311 34.8499 28.7V12.3C34.8499 10.6689 34.202 9.10467 33.0486 7.95132C31.8953 6.79797 30.331 6.15002 28.6999 6.15002H12.2999ZM32.7999 20.5H25.6249C25.3531 20.5 25.0923 20.608 24.9001 20.8002C24.7079 20.9925 24.5999 21.2532 24.5999 21.525V21.5476L24.5917 21.6706C24.5436 22.3507 24.3654 23.0153 24.0669 23.6283C23.8026 24.179 23.3982 24.6505 22.8943 24.9957C22.3613 25.3524 21.6028 25.625 20.4999 25.625C19.397 25.625 18.6406 25.3524 18.1055 24.9957C17.6016 24.6505 17.1972 24.179 16.9329 23.6283C16.6159 22.9781 16.4345 22.2701 16.3999 21.5476V21.525C16.3999 21.2532 16.2919 20.9925 16.0997 20.8002C15.9075 20.608 15.6468 20.5 15.3749 20.5H8.1999V12.3C8.1999 11.2126 8.63187 10.1698 9.40076 9.40089C10.1697 8.63199 11.2125 8.20002 12.2999 8.20002H28.6999C29.7873 8.20002 30.8301 8.63199 31.599 9.40089C32.3679 10.1698 32.7999 11.2126 32.7999 12.3V20.5ZM8.1999 22.55H14.4524C14.5488 23.0912 14.7333 23.8128 15.0982 24.5467C15.4795 25.3073 16.0678 26.1006 16.9678 26.7013C17.8759 27.306 19.0383 27.675 20.4999 27.675C21.9616 27.675 23.1239 27.306 24.0321 26.7013C24.9341 26.1006 25.5204 25.3073 25.9017 24.5467C26.2666 23.8128 26.4511 23.0912 26.5474 22.55H32.7999V28.7C32.7999 29.7874 32.3679 30.8303 31.599 31.5992C30.8301 32.3681 29.7873 32.8 28.6999 32.8H12.2999C11.2125 32.8 10.1697 32.3681 9.40076 31.5992C8.63187 30.8303 8.1999 29.7874 8.1999 28.7V22.55Z" fill="black"/>
</svg>
