<svg width="66" height="66" viewBox="0 0 66 66" fill="none" xmlns="http://www.w3.org/2000/svg">
<path d="M31.625 25.135V21.8543C30.03 21.5408 28.7155 20.7588 27.6815 19.5085C26.6438 18.2582 26.125 16.797 26.125 15.125C26.125 13.2073 26.7914 11.5821 28.1243 10.2492C29.4571 8.91642 31.0823 8.25 33 8.25C34.9177 8.25 36.5429 8.91642 37.8757 10.2492C39.2086 11.5821 39.875 13.2073 39.875 15.125C39.875 16.797 39.3571 18.2572 38.3213 19.5057C37.2836 20.7561 35.9682 21.538 34.375 21.8515V25.1377L52.778 35.728C53.4747 36.1277 54.0192 36.6722 54.4115 37.3615C54.8038 38.0508 55 38.7933 55 39.589V42.911C55 43.7085 54.8038 44.451 54.4115 45.1385C54.0173 45.8278 53.4728 46.3723 52.778 46.772L35.222 56.8893C34.5253 57.2871 33.7847 57.486 33 57.486C32.2153 57.486 31.4747 57.2871 30.778 56.8893L13.222 46.7692C12.5253 46.3714 11.9818 45.8278 11.5913 45.1385C11.1971 44.4492 11 43.7067 11 42.911V39.589C11 38.7915 11.1971 38.049 11.5913 37.3615C11.9836 36.6703 12.5272 36.1258 13.222 35.728L31.625 25.135ZM15.7383 37.444L32.1557 46.9095C32.4362 47.0855 32.7177 47.1735 33 47.1735C33.2823 47.1735 33.5647 47.0855 33.847 46.9095L50.2095 37.444L34.375 28.2865V37.125H31.625V28.2892L15.7383 37.444Z" fill="black"/>
</svg>
