<svg width="66" height="66" viewBox="0 0 66 66" fill="none" xmlns="http://www.w3.org/2000/svg">
<path d="M41.858 28.944C42.7142 28.944 43.4374 28.6443 44.0277 28.0448C44.6181 27.4453 44.9133 26.7183 44.9133 25.864C44.9133 25.0097 44.6144 24.2855 44.0168 23.6915C43.4173 23.103 42.6894 22.8088 41.8333 22.8088C40.9771 22.8088 40.2538 23.1076 39.6635 23.7053C39.0732 24.3029 38.778 25.0298 38.778 25.886C38.778 26.7422 39.0778 27.4663 39.6773 28.0585C40.2749 28.6488 41.0018 28.944 41.858 28.944ZM23.6667 28.944C24.5211 28.944 25.2434 28.6443 25.8337 28.0448C26.4259 27.4453 26.722 26.7183 26.722 25.864C26.722 25.0078 26.4222 24.2837 25.8227 23.6915C25.2232 23.103 24.4963 22.8088 23.642 22.8088C22.7858 22.8088 22.0626 23.1076 21.4723 23.7053C20.8819 24.3048 20.5868 25.0317 20.5868 25.886C20.5868 26.7422 20.8856 27.4663 21.4832 28.0585C22.0827 28.6488 22.8106 28.944 23.6667 28.944ZM32.75 46.181C35.3717 46.181 37.788 45.4578 39.999 44.0113C42.2082 42.5629 43.8673 40.6425 44.9765 38.25H20.5235C21.6327 40.6443 23.2918 42.5648 25.501 44.0113C27.7102 45.4578 30.1265 46.1792 32.75 46.181ZM32.7583 57.5C29.3354 57.5 26.1179 56.851 23.1058 55.553C20.0936 54.2532 17.4728 52.4895 15.2435 50.262C13.0142 48.0345 11.2496 45.4165 9.94975 42.408C8.64992 39.3995 8 36.1829 8 32.7583C8 29.3336 8.64992 26.1161 9.94975 23.1058C11.2478 20.0936 13.0087 17.4728 15.2325 15.2435C17.4563 13.0142 20.0753 11.2496 23.0893 9.94975C26.1033 8.64992 29.3207 8 32.7417 8C36.1627 8 39.3803 8.64992 42.3942 9.94975C45.4064 11.2478 48.0272 13.0096 50.2565 15.2353C52.4858 17.4609 54.2504 20.0798 55.5503 23.092C56.8501 26.1042 57.5 29.3208 57.5 32.7418C57.5 36.1628 56.851 39.3803 55.553 42.3943C54.255 45.4083 52.4913 48.029 50.262 50.2565C48.0327 52.484 45.4147 54.2486 42.408 55.5503C39.4013 56.8519 36.1848 57.5018 32.7583 57.5ZM32.75 54.75C38.8917 54.75 44.0937 52.6188 48.3562 48.3563C52.6187 44.0938 54.75 38.8917 54.75 32.75C54.75 26.6083 52.6187 21.4063 48.3562 17.1438C44.0937 12.8813 38.8917 10.75 32.75 10.75C26.6083 10.75 21.4062 12.8813 17.1437 17.1438C12.8812 21.4063 10.75 26.6083 10.75 32.75C10.75 38.8917 12.8812 44.0938 17.1437 48.3563C21.4062 52.6188 26.6083 54.75 32.75 54.75Z" fill="black"/>
</svg>
