<svg width="51" height="50" viewBox="0 0 51 50" fill="none" xmlns="http://www.w3.org/2000/svg">
<path d="M47.8107 49.3051L30.9328 32.8201C30.5965 32.5307 30.4284 32.175 30.4284 31.7532C30.4284 31.3314 30.5965 30.955 30.9328 30.6242C31.269 30.2934 31.641 30.1279 32.0487 30.1279C32.4564 30.1279 32.8274 30.2934 33.1615 30.6242L49.9796 47.1712C50.2738 47.4607 50.4209 47.8267 50.4209 48.2692C50.4209 48.7117 50.2528 49.0766 49.9165 49.3641C49.6223 49.6556 49.2713 49.791 48.8636 49.7704C48.4559 49.7497 48.105 49.5946 47.8107 49.3051ZM4.31075 43.2508C3.00776 40.9825 2.02211 38.6294 1.3538 36.1916C0.687596 33.7516 0.354492 31.2766 0.354492 28.7663C0.354492 25.092 1.04487 21.5313 2.42562 18.0844C3.80637 14.6375 5.91217 11.5421 8.74303 8.79826C11.5718 6.01302 14.742 3.93702 18.2538 2.57025C21.7635 1.20554 25.3446 0.523193 28.9972 0.523193C31.5885 0.523193 34.1135 0.854031 36.5724 1.51571C39.0313 2.17738 41.4061 3.15025 43.6968 4.43431C44.6405 4.9926 45.1648 5.78971 45.2699 6.82564C45.375 7.86364 45.0145 8.78895 44.1886 9.60157L9.56265 43.6695C8.73883 44.4801 7.79626 44.844 6.73495 44.7613C5.67364 44.6786 4.86558 44.174 4.31075 43.2477M5.04283 37.3335C5.86663 39.6272 8.76564 40.0277 10.5029 38.3184C11.8134 37.0291 11.9787 34.9807 10.9699 33.4438C10.7418 33.0962 10.5144 32.7436 10.2877 32.3859C9.46598 31.0894 8.73883 29.7134 8.10624 28.2577C7.47366 26.802 6.97243 25.2574 6.60255 23.6239C6.30404 22.3056 4.49281 22.0169 4.15994 23.3269C3.58448 25.5917 3.38361 27.9073 3.55733 30.2737C3.73571 32.7195 4.23087 35.0728 5.04283 37.3335ZM12.0764 29.1848C13.4974 31.822 17.0413 32.0253 19.1681 29.9155L30.1468 19.0244C32.3081 16.8804 32.0811 13.2708 29.3727 11.8809C28.6964 11.5339 28.0165 11.2176 27.3327 10.9322C24.9873 9.95205 22.766 9.29761 20.6686 8.96885C18.5712 8.64008 16.6703 8.64525 14.9659 8.98435C13.2615 9.32346 11.9427 9.95205 11.0096 10.8701C10.0765 11.8006 9.43866 13.1033 9.0961 14.7781C8.75144 16.4551 8.73567 18.3284 9.04881 20.3982C9.36195 22.468 10.0166 24.664 11.0128 26.986C11.3282 27.7213 11.6827 28.4543 12.0764 29.1848ZM38.8539 10.5557C40.6051 8.84301 40.2333 5.91804 37.9292 5.08683C35.5754 4.23773 33.1329 3.74005 30.6018 3.59378C28.2236 3.45635 25.8986 3.65629 23.6266 4.19359C22.3847 4.4873 22.6509 6.26722 23.8903 6.57131C25.5506 6.97659 27.1205 7.48628 28.6 8.1004C30.0795 8.71451 31.4855 9.42581 32.8179 10.2343C33.2152 10.4754 33.6059 10.7197 33.99 10.9672C35.5218 11.9545 37.551 11.8298 38.8539 10.5557Z" fill="black"/>
</svg>
