<svg width="74" height="74" viewBox="0 0 74 74" fill="none" xmlns="http://www.w3.org/2000/svg">
<path d="M28.4997 20.2451C30.9089 20.2451 33.1675 20.865 35.2755 22.1047C37.3835 23.3444 39.2314 25.148 40.8193 27.5154C42.4071 25.148 44.255 23.3444 46.363 22.1047C48.471 20.865 50.7296 20.2451 53.1388 20.2451C56.6211 20.2451 59.5449 21.4352 61.9103 23.8155C64.2756 26.1958 65.4583 29.138 65.4583 32.6423C65.4583 32.9435 65.4473 33.2263 65.4254 33.4908C65.4035 33.7553 65.3743 34.0381 65.3378 34.3393H62.6001C62.6458 34.0381 62.6777 33.7553 62.696 33.4908C62.7124 33.2263 62.7206 32.9435 62.7206 32.6423C62.7206 29.8873 61.808 27.5916 59.9829 25.755C58.1578 23.9183 55.8764 23 53.1388 23C50.9596 23 48.9483 23.6263 47.1049 24.8789C45.2616 26.1296 43.6126 28.014 42.158 30.532H39.4805C37.9894 27.9791 36.3313 26.0856 34.5062 24.8513C32.6811 23.6171 30.6789 23 28.4997 23C25.7986 23 23.5263 23.9183 21.6829 25.755C19.8396 27.5916 18.9179 29.8873 18.9179 32.6423C18.9179 32.9435 18.927 33.2263 18.9453 33.4908C18.9635 33.7553 18.9946 34.0381 19.0384 34.3393H16.3007C16.266 34.0381 16.2368 33.7553 16.2131 33.4908C16.1894 33.2263 16.1784 32.9435 16.1802 32.6423C16.1802 29.138 17.3629 26.1958 19.7283 23.8155C22.0936 21.4352 25.0174 20.2451 28.4997 20.2451ZM26.0577 50.2325H29.8795C31.3396 51.6907 32.9713 53.273 34.7745 54.9792C36.5795 56.6836 38.5944 58.5587 40.8193 60.6047C43.0459 58.5606 45.0608 56.6854 46.864 54.9792C48.6672 53.2711 50.2989 51.6889 51.759 50.2325H55.5972C53.9692 51.913 52.1176 53.7551 50.0425 55.7588C47.9691 57.7607 45.5864 59.9904 42.8944 62.4478L40.8193 64.3349L38.7441 62.4478C36.0521 59.9904 33.6721 57.7607 31.6043 55.7588C29.5346 53.7551 27.6857 51.913 26.0577 50.2325ZM38.2185 51.9267C38.4959 51.9267 38.7286 51.8432 38.9166 51.676C39.1046 51.5071 39.2542 51.2885 39.3655 51.0204L43.9566 37.1438L47.6169 42.6867C47.845 42.9843 48.1115 43.2212 48.4163 43.3975C48.7211 43.5738 49.0669 43.662 49.4539 43.662H69.5648V40.907H49.7112L44.6739 33.3007C44.5407 33.0987 44.3627 32.9471 44.14 32.8461C43.9174 32.7451 43.6774 32.6946 43.42 32.6946C43.1426 32.6946 42.9017 32.7791 42.6973 32.9481C42.4911 33.1152 42.3496 33.3328 42.273 33.601L37.6819 47.5133L33.9313 41.8823C33.705 41.5847 33.4385 41.3478 33.1319 41.1715C32.8253 40.9952 32.4803 40.907 32.097 40.907H12.0737V43.662H31.8233L36.9126 51.3206C37.0458 51.5594 37.2329 51.7201 37.4738 51.8028C37.7147 51.8854 37.963 51.9267 38.2185 51.9267Z" fill="black"/>
</svg>
