<svg width="64" height="64" viewBox="0 0 64 64" fill="none" xmlns="http://www.w3.org/2000/svg">
<path d="M30.8511 24.2337V21.0861C29.3387 20.7853 28.0923 20.0352 27.1118 18.8356C26.1279 17.636 25.6359 16.2342 25.6359 14.6301C25.6359 12.7902 26.2678 11.231 27.5316 9.95226C28.7955 8.67354 30.3366 8.03418 32.155 8.03418C33.9733 8.03418 35.5144 8.67354 36.7783 9.95226C38.0421 11.231 38.674 12.7902 38.674 14.6301C38.674 16.2342 38.1829 17.6351 37.2007 18.833C36.2168 20.0325 34.9695 20.7827 33.4588 21.0835V24.2363L50.909 34.3966C51.5696 34.78 52.0859 35.3024 52.4579 35.9638C52.83 36.6251 53.016 37.3375 53.016 38.1008V41.288C53.016 42.0531 52.83 42.7654 52.4579 43.425C52.0842 44.0864 51.5679 44.6088 50.909 44.9922L34.2619 54.6987C33.6013 55.0804 32.899 55.2712 32.155 55.2712C31.4109 55.2712 30.7086 55.0804 30.048 54.6987L13.4009 44.9896C12.7403 44.6079 12.2249 44.0864 11.8546 43.425C11.4808 42.7637 11.2939 42.0513 11.2939 41.288V38.1008C11.2939 37.3357 11.4808 36.6234 11.8546 35.9638C12.2266 35.3007 12.742 34.7783 13.4009 34.3966L30.8511 24.2337ZM15.7869 36.0429L31.3544 45.1241C31.6204 45.293 31.8872 45.3774 32.155 45.3774C32.4227 45.3774 32.6904 45.293 32.9581 45.1241L48.4735 36.0429L33.4588 27.2572V35.7369H30.8511V27.2598L15.7869 36.0429Z" fill="black"/>
</svg>
