<svg width="80" height="81" viewBox="0 0 80 81" fill="none" xmlns="http://www.w3.org/2000/svg">
<g clip-path="url(#clip0_455_1058)">
<path d="M20.8407 72.8339C19.5272 72.8339 18.594 72.2481 18.0411 71.0764C17.4881 69.9048 17.6187 68.8102 18.4327 67.7927L36.2574 46.1508V26.5839H31.9901C31.5522 26.5839 31.1853 26.4359 30.8893 26.1399C30.5933 25.8439 30.4464 25.477 30.4484 25.0392C30.4505 24.6014 30.5974 24.2355 30.8893 23.9415C31.1812 23.6476 31.5481 23.5006 31.9901 23.5006H52.8612C53.2969 23.5006 53.6628 23.6486 53.9588 23.9446C54.2548 24.2406 54.4028 24.6075 54.4028 25.0454C54.4028 25.4832 54.2548 25.8491 53.9588 26.143C53.6628 26.437 53.2969 26.5839 52.8612 26.5839H48.5907V46.1508L66.4124 67.7958C67.2285 68.8112 67.36 69.9048 66.8071 71.0764C66.2541 72.2481 65.3209 72.8339 64.0074 72.8339H20.8407ZM27.0074 66.6673H57.8407L47.3574 54.3339H37.4907L27.0074 66.6673ZM20.8407 69.7506H64.0074L45.5074 47.2423V26.5839H39.3407V47.2423L20.8407 69.7506Z" fill="black"/>
</g>
<defs>
<clipPath id="clip0_455_1058">
<rect x="0.424316" y="0.167236" width="79" height="80" rx="5" fill="white"/>
</clipPath>
</defs>
</svg>
