<svg width="66" height="66" viewBox="0 0 66 66" fill="none" xmlns="http://www.w3.org/2000/svg">
<path d="M22.3531 54C20.5965 54 19.0989 53.4042 17.8603 52.2127C16.6201 51.0242 16 49.5861 16 47.8983V19C16 17.0431 16.7051 15.3872 18.1153 14.0323C19.5255 12.6774 21.249 12 23.2857 12H50V44.13C48.9266 44.13 48.0037 44.4994 47.2314 45.2383C46.4591 45.9772 46.0746 46.8639 46.0779 47.8983C46.0811 48.9328 46.4664 49.8187 47.2339 50.556C48.0013 51.2933 48.9233 51.6636 50 51.6667V54H22.3531ZM18.4286 43.1803C18.9629 42.7292 19.5579 42.3854 20.2136 42.149C20.866 41.9126 21.5784 41.7943 22.3507 41.7943H24.2207V14.3333H23.2857C21.963 14.3333 20.8223 14.793 19.8639 15.7123C18.907 16.6332 18.4286 17.7291 18.4286 19V43.1803ZM26.6493 41.7943H47.5714V14.3333H26.6493V41.7943ZM22.3531 51.6667H45.0919C44.6304 51.1533 44.2742 50.584 44.0233 49.9587C43.7723 49.3364 43.6469 48.6489 43.6469 47.896C43.6469 47.1851 43.7699 46.5084 44.016 45.866C44.2621 45.2236 44.6207 44.6441 45.0919 44.1277H22.3531C21.2376 44.1277 20.305 44.4979 19.5554 45.2383C18.8058 45.9788 18.4302 46.8654 18.4286 47.8983C18.4286 48.9686 18.8042 49.8638 19.5554 50.584C20.3067 51.3042 21.2392 51.6651 22.3531 51.6667Z" fill="black"/>
</svg>
