<svg width="65" height="65" viewBox="0 0 65 65" fill="none" xmlns="http://www.w3.org/2000/svg">
<path d="M32.4777 56.3975C29.2008 56.3975 26.1084 55.7654 23.2004 54.5012C20.2906 53.2352 17.7505 51.5169 15.5802 49.3463C13.4098 47.1757 11.6903 44.6295 10.4216 41.7075C9.15294 38.7855 8.52038 35.6694 8.52394 32.3592C8.52394 29.0063 9.17076 25.868 10.4644 22.9442C11.758 20.0205 13.5212 17.476 15.7539 15.3107C17.9866 13.1455 20.606 11.4397 23.612 10.1932C26.618 8.94681 29.8192 8.3227 33.2154 8.32092C36.3337 8.32092 39.3023 8.8471 42.1212 9.89944C44.942 10.9536 47.4241 12.4137 49.5677 14.2798C51.7113 16.1494 53.4246 18.3752 54.7075 20.9571C55.9905 23.539 56.632 26.3568 56.632 29.4105C56.632 33.538 55.4417 36.841 53.0611 39.3197C50.6805 41.7983 47.417 43.0394 43.2706 43.0429H38.5317C37.4109 43.0429 36.4727 43.4284 35.7172 44.1994C34.9617 44.9704 34.5839 45.8999 34.5839 46.9879C34.5839 48.1043 34.918 49.0516 35.5862 49.8297C36.2544 50.6079 36.5885 51.5062 36.5885 52.5247C36.5885 53.8246 36.2241 54.795 35.4953 55.436C34.7683 56.077 33.7642 56.3975 32.4777 56.3975ZM17.8788 33.6947C18.6272 33.6947 19.2598 33.4365 19.7765 32.9201C20.2932 32.4037 20.5516 31.7716 20.5516 31.0238C20.5516 30.2759 20.2932 29.6438 19.7765 29.1274C19.2598 28.611 18.6272 28.3528 17.8788 28.3528C17.1304 28.3528 16.4978 28.611 15.9811 29.1274C15.4644 29.6438 15.206 30.2759 15.206 31.0238C15.206 31.7716 15.4644 32.4037 15.9811 32.9201C16.4978 33.4365 17.1304 33.6947 17.8788 33.6947ZM25.8972 23.011C26.6456 23.011 27.2782 22.7528 27.7949 22.2364C28.3117 21.7201 28.5701 21.0879 28.5701 20.3401C28.5701 19.5922 28.3117 18.9601 27.7949 18.4437C27.2782 17.9273 26.6456 17.6692 25.8972 17.6692C25.1489 17.6692 24.5163 17.9273 23.9995 18.4437C23.4828 18.9601 23.2244 19.5922 23.2244 20.3401C23.2244 21.0879 23.4828 21.7201 23.9995 22.2364C24.5163 22.7528 25.1489 23.011 25.8972 23.011ZM39.2613 23.011C40.0097 23.011 40.6423 22.7528 41.159 22.2364C41.6758 21.7201 41.9341 21.0879 41.9341 20.3401C41.9341 19.5922 41.6758 18.9601 41.159 18.4437C40.6423 17.9273 40.0097 17.6692 39.2613 17.6692C38.5129 17.6692 37.8804 17.9273 37.3636 18.4437C36.8469 18.9601 36.5885 19.5922 36.5885 20.3401C36.5885 21.0879 36.8469 21.7201 37.3636 22.2364C37.8804 22.7528 38.5129 23.011 39.2613 23.011ZM47.2798 33.6947C48.0282 33.6947 48.6607 33.4365 49.1775 32.9201C49.6942 32.4037 49.9526 31.7716 49.9526 31.0238C49.9526 30.2759 49.6942 29.6438 49.1775 29.1274C48.6607 28.611 48.0282 28.3528 47.2798 28.3528C46.5314 28.3528 45.8988 28.611 45.3821 29.1274C44.8653 29.6438 44.607 30.2759 44.607 31.0238C44.607 31.7716 44.8653 32.4037 45.3821 32.9201C45.8988 33.4365 46.5314 33.6947 47.2798 33.6947ZM32.4777 53.7266C32.9464 53.7266 33.3027 53.6242 33.5469 53.4195C33.7927 53.2129 33.9157 52.9147 33.9157 52.5247C33.9157 51.9015 33.5816 51.2355 32.9134 50.5269C32.2452 49.8182 31.9111 48.6519 31.9111 47.0279C31.9111 45.0906 32.557 43.497 33.8489 42.247C35.1407 40.997 36.7222 40.372 38.5931 40.372H43.2706C46.6205 40.372 49.2398 39.3864 51.1286 37.4153C53.0174 35.4441 53.9618 32.7759 53.9618 29.4105C53.9618 23.9903 51.8761 19.5655 47.7048 16.136C43.5334 12.7066 38.7045 10.9918 33.2181 10.9918C27.0546 10.9918 21.8435 13.0618 17.5848 17.2017C13.3261 21.3417 11.1968 26.3942 11.1968 32.3592C11.1968 38.2798 13.2798 43.3216 17.4458 47.4847C21.6118 51.6478 26.6225 53.7284 32.4777 53.7266Z" fill="black"/>
</svg>
