<svg width="79" height="78" viewBox="0 0 79 78" fill="none" xmlns="http://www.w3.org/2000/svg">
<path d="M39.5795 63.8062L37.1087 61.5973C31.7892 56.7904 27.3888 52.6758 23.9076 49.2533C20.4286 45.8287 17.6819 42.8083 15.6675 40.1921C13.6531 37.5758 12.245 35.211 11.4432 33.0978C10.6413 30.9846 10.2415 28.8553 10.2437 26.7098C10.2437 22.608 11.6518 19.1641 14.468 16.378C17.2843 13.5919 20.7654 12.1989 24.9116 12.1989C27.7799 12.1989 30.4691 12.9244 32.9789 14.3755C35.4887 15.8266 37.6889 17.9377 39.5795 20.7087C41.47 17.9377 43.6702 15.8266 46.18 14.3755C48.6898 12.9244 51.379 12.1989 54.2474 12.1989C58.3935 12.1989 61.8747 13.5919 64.6909 16.378C67.5071 19.1641 68.9152 22.608 68.9152 26.7098C68.9152 28.851 68.5154 30.9792 67.7157 33.0946C66.9139 35.2143 65.5058 37.5812 63.4914 40.1953C61.477 42.8094 58.7401 45.8287 55.2806 49.2533C51.8212 52.6758 47.4099 56.7904 42.0469 61.5973L39.5795 63.8062ZM39.5795 59.44C44.7947 54.775 49.0864 50.7807 52.4546 47.4572C55.8228 44.1337 58.4847 41.2476 60.4405 38.799C62.3962 36.3504 63.7543 34.1845 64.5149 32.3013C65.2754 30.4138 65.6557 28.55 65.6557 26.7098C65.6557 23.4851 64.5692 20.7979 62.3962 18.6482C60.2232 16.4984 57.5069 15.4235 54.2474 15.4235C51.6528 15.4235 49.2581 16.1566 47.0633 17.6227C44.8686 19.0889 42.9064 21.2956 41.1766 24.2429H37.9888C36.2134 21.2547 34.2393 19.0373 32.0662 17.5905C29.8932 16.1458 27.5094 15.4235 24.9148 15.4235C21.6987 15.4235 18.9933 16.4984 16.7986 18.6482C14.6038 20.7979 13.5054 23.4851 13.5032 26.7098C13.5032 28.55 13.8835 30.4138 14.644 32.3013C15.4046 34.1888 16.7627 36.3547 18.7184 38.799C20.6742 41.2433 23.3361 44.1186 26.7043 47.4249C30.0725 50.7313 34.3642 54.7363 39.5795 59.44Z" fill="black"/>
</svg>
