<svg width="39" height="39" viewBox="0 0 39 39" fill="none" xmlns="http://www.w3.org/2000/svg">
<path fill-rule="evenodd" clip-rule="evenodd" d="M18.8533 30.2835C19.0479 30.4025 19.272 30.4644 19.5 30.4623C19.7281 30.4644 19.9522 30.4025 20.1468 30.2835L21.9911 29.1769C23.7755 28.105 25.7838 27.4607 27.8587 27.2944C29.9336 27.128 32.0188 27.4442 33.9511 28.2182C35.3974 28.7967 36.9688 27.7307 36.9688 26.1755V7.23129C36.9688 6.29203 36.3968 5.44866 35.5241 5.09929C33.035 4.10358 30.3493 3.69695 27.6769 3.91119C25.0045 4.12543 22.4179 4.95473 20.1191 6.33429L19.5 6.70154L18.8793 6.32941C16.5805 4.94986 13.9939 4.12056 11.3215 3.90632C8.64915 3.69208 5.96344 4.0987 3.47427 5.09441C3.04708 5.26465 2.681 5.5595 2.42365 5.9406C2.1663 6.32171 2.02958 6.77143 2.03127 7.23129V26.1788C2.03127 27.7339 3.60264 28.7983 5.04889 28.2198C6.98122 27.4458 9.06647 27.1297 11.1414 27.296C13.2163 27.4623 15.2245 28.1067 17.0089 29.1785L18.8533 30.2835ZM4.46877 7.32554V25.8294C6.71439 24.9867 9.12136 24.6621 11.51 24.8799C13.8986 25.0977 16.2072 25.8522 18.2634 27.0872L18.2813 27.0969V8.81566L17.6264 8.42241C15.6636 7.24443 13.4565 6.53292 11.1752 6.34275C8.89398 6.15257 6.59953 6.48881 4.46877 7.32554ZM20.7366 27.0855L20.7188 27.0969V8.81566L21.3736 8.42241C23.3364 7.24443 25.5436 6.53292 27.8248 6.34275C30.1061 6.15257 32.4005 6.48881 34.5313 7.32554V25.8294C32.2856 24.9867 29.8787 24.6621 27.49 24.8799C25.1014 25.0977 22.7928 25.8522 20.7366 27.0872" fill="black"/>
<path d="M15.0719 30.9432C13.4566 30.001 11.6201 29.5045 9.75007 29.5045C7.88003 29.5045 6.04352 30.001 4.42819 30.9432L4.26082 31.0407C4.12254 31.1214 4.0015 31.2285 3.90461 31.3559C3.80772 31.4834 3.73689 31.6286 3.69614 31.7835C3.6554 31.9383 3.64555 32.0996 3.66716 32.2582C3.68877 32.4169 3.7414 32.5697 3.82207 32.708C3.90273 32.8462 4.00984 32.9673 4.13729 33.0642C4.26473 33.161 4.41001 33.2319 4.56482 33.2726C4.71964 33.3134 4.88097 33.3232 5.0396 33.3016C5.19822 33.28 5.35104 33.2274 5.48932 33.1467L5.65669 33.0492C6.89916 32.3246 8.31173 31.9427 9.75007 31.9427C11.1884 31.9427 12.601 32.3246 13.8434 33.0492L15.6114 34.0795C16.7918 34.7678 18.1337 35.1305 19.5001 35.1305C20.8665 35.1305 22.2084 34.7678 23.3887 34.0795L25.1567 33.0492C26.3992 32.3246 27.8117 31.9427 29.2501 31.9427C30.6884 31.9427 32.101 32.3246 33.3434 33.0492L33.5108 33.1467C33.7901 33.3096 34.1226 33.3549 34.4353 33.2726C34.748 33.1903 35.0152 32.9872 35.1781 32.708C35.341 32.4287 35.3863 32.0961 35.304 31.7835C35.2217 31.4708 35.0186 31.2036 34.7393 31.0407L34.5719 30.9432C32.9566 30.001 31.1201 29.5045 29.2501 29.5045C27.38 29.5045 25.5435 30.001 23.9282 30.9432L22.1618 31.9735C21.354 32.4449 20.4354 32.6933 19.5001 32.6933C18.5647 32.6933 17.6462 32.4449 16.8383 31.9735L15.0719 30.9432Z" fill="black"/>
</svg>
