<svg width="88" height="88" viewBox="0 0 88 88" fill="none" xmlns="http://www.w3.org/2000/svg">
<g clip-path="url(#clip0_455_1055)">
<path d="M39.1047 51.1671L44.6406 45.7041C44.9386 45.4121 45.0978 45.0681 45.1181 44.6721C45.1363 44.2741 44.9782 43.9101 44.6436 43.5801C44.307 43.2501 43.945 43.0851 43.5577 43.0851C43.1704 43.0851 42.8085 43.2501 42.4718 43.5801L36.5011 49.4691C36.2354 49.7331 36.0489 50.0011 35.9414 50.2731C35.8339 50.5471 35.7802 50.8451 35.7802 51.1671C35.7802 51.4891 35.8339 51.7871 35.9414 52.0611C36.0489 52.3351 36.2354 52.6031 36.5011 52.8651L42.5327 58.8111C42.8287 59.1031 43.1806 59.2591 43.5881 59.2791C43.9957 59.2991 44.3668 59.1431 44.7014 58.8111C45.036 58.4791 45.2033 58.1251 45.2033 57.7491C45.2033 57.3731 45.036 57.0191 44.7014 56.6871L39.1047 51.1671ZM62.7476 51.1671L57.1509 56.6871C56.8528 56.9811 56.6937 57.3261 56.6734 57.7221C56.6531 58.1181 56.8113 58.4811 57.1479 58.8111C57.4845 59.1431 57.8465 59.3091 58.2338 59.3091C58.6211 59.3091 58.983 59.1431 59.3196 58.8111L65.3482 52.8651C65.6139 52.6011 65.8004 52.3331 65.9079 52.0611C66.0154 51.7891 66.0691 51.4911 66.0691 51.1671C66.0691 50.8431 66.0154 50.5451 65.9079 50.2731C65.8004 50.0011 65.6139 49.7341 65.3482 49.4721L59.3196 43.5231C59.1716 43.3771 59.0043 43.2671 58.8178 43.1931C58.6332 43.1211 58.4487 43.0851 58.2642 43.0851C58.0797 43.0851 57.884 43.1211 57.6771 43.1931C57.4703 43.2651 57.2939 43.3751 57.1479 43.5231C56.8133 43.8531 56.646 44.2071 56.646 44.5851C56.646 44.9631 56.8133 45.3171 57.1479 45.6471L62.7476 51.1671ZM31.5066 75.1671C30.1054 75.1671 28.9364 74.7051 27.9996 73.7811C27.0628 72.8571 26.5933 71.7031 26.5913 70.3191V32.0151C26.5913 30.6331 27.0607 29.4801 27.9996 28.5561C28.9385 27.6321 30.1075 27.1691 31.5066 27.1671H70.3457C71.7449 27.1671 72.9139 27.6301 73.8527 28.5561C74.7916 29.4821 75.26 30.6351 75.258 32.0151V70.3221C75.258 71.7021 74.7896 72.8551 73.8527 73.7811C72.9159 74.7071 71.7459 75.1691 70.3426 75.1671H31.5066ZM31.5066 72.1671H70.3457C70.8121 72.1671 71.2409 71.9751 71.6323 71.5911C72.0237 71.2071 72.2183 70.7831 72.2163 70.3191V32.0151C72.2163 31.5531 72.0216 31.1291 71.6323 30.7431C71.243 30.3571 70.8131 30.1651 70.3426 30.1671H31.5066C31.0382 30.1671 30.6083 30.3591 30.217 30.7431C29.8256 31.1271 29.6309 31.5511 29.633 32.0151V70.3221C29.633 70.7821 29.8276 71.2051 30.217 71.5911C30.6063 71.9771 31.0352 72.1691 31.5036 72.1671" fill="black"/>
</g>
<defs>
<clipPath id="clip0_455_1055">
<rect x="0.741211" y="0.87561" width="86.834" height="86.7725" rx="5" fill="white"/>
</clipPath>
</defs>
</svg>
