<svg width="89" height="91" viewBox="0 0 89 91" fill="none" xmlns="http://www.w3.org/2000/svg">
<path d="M32.4915 71.3356C30.6512 71.3356 29.0823 70.7033 27.7848 69.4387C26.4855 68.1773 25.8359 66.651 25.8359 64.8596V34.1884C25.8359 32.1114 26.5746 30.3539 28.0519 28.9159C29.5292 27.4779 31.3347 26.7589 33.4684 26.7589H61.4542V60.8601C60.3297 60.8601 59.3629 61.2522 58.5539 62.0364C57.7448 62.8207 57.342 63.7617 57.3454 64.8596C57.3488 65.9575 57.7525 66.8978 58.5564 67.6804C59.3604 68.4629 60.3263 68.8559 61.4542 68.8592V71.3356H32.4915ZM28.3801 59.8522C28.9398 59.3734 29.5631 59.0085 30.2501 58.7576C30.9336 58.5066 31.6799 58.3812 32.4889 58.3812H34.4479V29.2354H33.4684C32.0827 29.2354 30.8878 29.7233 29.8837 30.699C28.8813 31.6764 28.3801 32.8395 28.3801 34.1884V59.8522ZM36.9921 58.3812H58.9101V29.2354H36.9921V58.3812ZM32.4915 68.8592H56.3125C55.8291 68.3143 55.4559 67.7101 55.193 67.0464C54.9301 66.386 54.7987 65.6562 54.7987 64.8572C54.7987 64.1027 54.9276 63.3845 55.1854 62.7026C55.4432 62.0208 55.8189 61.4058 56.3125 60.8576H32.4915C31.3228 60.8576 30.3459 61.2506 29.5606 62.0364C28.7753 62.8223 28.3818 63.7634 28.3801 64.8596C28.3801 65.9955 28.7736 66.9457 29.5606 67.7101C30.3476 68.4745 31.3245 68.8575 32.4915 68.8592Z" fill="black"/>
</svg>
