<svg width="66" height="66" viewBox="0 0 66 66" fill="none" xmlns="http://www.w3.org/2000/svg">
<path d="M12.694 55C11.4272 55 10.3703 54.5765 9.52325 53.7295C8.67625 52.8825 8.25183 51.8247 8.25 50.556V23.694C8.25 22.4272 8.67442 21.3703 9.52325 20.5233C10.3721 19.6763 11.4281 19.2518 12.6912 19.25H24.75V15.4413C24.75 14.1763 25.1744 13.1193 26.0233 12.2705C26.8721 11.4217 27.929 10.9982 29.194 11H36.8088C38.0738 11 39.1307 11.4235 39.9795 12.2705C40.8283 13.1175 41.2518 14.1744 41.25 15.4413V19.25H53.3088C54.5738 19.25 55.6298 19.6744 56.4768 20.5233C57.3238 21.3721 57.7482 22.429 57.75 23.694V50.5588C57.75 51.8238 57.3256 52.8807 56.4768 53.7295C55.6279 54.5783 54.5719 55.0018 53.3088 55H12.694ZM12.694 52.25H53.3088C53.7304 52.25 54.1182 52.074 54.472 51.722C54.8258 51.37 55.0018 50.9813 55 50.556V23.694C55 23.2705 54.824 22.8818 54.472 22.528C54.12 22.1742 53.7323 21.9982 53.3088 22H12.6912C12.2696 22 11.8818 22.176 11.528 22.528C11.1742 22.88 10.9982 23.2687 11 23.694V50.5588C11 50.9804 11.176 51.3682 11.528 51.722C11.88 52.0758 12.2677 52.2518 12.6912 52.25M27.5 19.25H38.5V15.4413C38.5 15.0196 38.324 14.6318 37.972 14.278C37.62 13.9242 37.2323 13.7482 36.8088 13.75H29.1912C28.7696 13.75 28.3818 13.926 28.028 14.278C27.6742 14.63 27.4982 15.0178 27.5 15.4413V19.25Z" fill="black"/>
</svg>
