<svg width="64" height="63" viewBox="0 0 64 63" fill="none" xmlns="http://www.w3.org/2000/svg">
<path d="M21.7698 18.6908L28.5705 9.64875C28.9843 9.08937 29.4762 8.6794 30.0464 8.41882C30.6166 8.15824 31.226 8.02795 31.8744 8.02795C32.5228 8.02795 33.1321 8.15824 33.7023 8.41882C34.2725 8.6794 34.7645 9.08851 35.1783 9.64614L41.9789 18.6908L52.4616 22.2555C53.3899 22.5682 54.1044 23.0937 54.6051 23.832C55.1075 24.572 55.3587 25.3885 55.3587 26.2814C55.3587 26.6932 55.2978 27.1023 55.1761 27.5088C55.0545 27.9153 54.8563 28.3053 54.5816 28.6788L47.7105 37.9892L47.9713 47.9693C48.0147 49.1958 47.6097 50.2286 46.7561 51.0676C45.9026 51.9067 44.909 52.3262 43.7756 52.3262L42.5917 52.1803L31.8744 49.0247L21.1571 52.1803C20.9415 52.2671 20.7329 52.3132 20.5312 52.3184C20.3278 52.3236 20.1418 52.3262 19.9732 52.3262C18.8171 52.3262 17.8176 51.9067 16.9744 51.0676C16.1313 50.2286 15.7323 49.1967 15.7775 47.9719L16.0383 37.9241L9.18283 28.6788C8.90643 28.3018 8.70738 27.9083 8.58569 27.4983C8.46574 27.0884 8.40576 26.6784 8.40576 26.2684C8.40576 25.3894 8.66392 24.5712 9.18023 23.8138C9.6948 23.0581 10.4145 22.5213 11.3393 22.2034L21.7698 18.6908ZM23.41 20.9318L12.2181 24.6997C11.7157 24.8665 11.3724 25.2087 11.1881 25.7264C11.0038 26.2441 11.0794 26.7201 11.415 27.1544L18.6955 37.1606L18.3851 48.0006C18.3504 48.5687 18.5503 49.0203 18.9849 49.3556C19.4195 49.6892 19.9054 49.7725 20.4426 49.6058L31.8744 46.3225L43.3088 49.6709C43.8425 49.8377 44.3267 49.7543 44.7613 49.4208C45.1959 49.0855 45.3967 48.6338 45.3636 48.0658L45.0507 37.1632L52.3338 27.2873C52.6676 26.853 52.7432 26.3761 52.5607 25.8567C52.3764 25.339 52.0331 24.9968 51.5307 24.83L40.3388 20.9318L33.1287 11.3347C32.8279 10.9004 32.4098 10.6832 31.8744 10.6832C31.339 10.6832 30.9217 10.9004 30.6227 11.3347L23.41 20.9318Z" fill="black"/>
</svg>
