<svg xmlns="http://www.w3.org/2000/svg" xmlns:xlink="http://www.w3.org/1999/xlink" width="500" zoomAndPan="magnify" viewBox="0 0 375 374.999991" height="500" preserveAspectRatio="xMidYMid meet" version="1.0"><defs><g/></defs><path stroke-linecap="round" transform="matrix(0.75, 0, 0, 0.75, 79.158626, 72.587309)" fill="none" stroke-linejoin="miter" d="M 14.002042 13.998172 L 274.252059 13.998172 " stroke="#364cb4" stroke-width="28" stroke-opacity="1" stroke-miterlimit="4"/><path stroke-linecap="round" transform="matrix(0, 0.75, -0.75, 0, 99.810672, 72.772613)" fill="none" stroke-linejoin="miter" d="M 14.0011 13.997564 L 289.693827 13.997564 " stroke="#364cb4" stroke-width="28" stroke-opacity="1" stroke-miterlimit="4"/><path stroke-linecap="round" transform="matrix(0.000000001309, 0.75, -0.75, 0.000000001309, 297.039535, 72.42187)" fill="none" stroke-linejoin="miter" d="M 14.000008 14.00063 L 292.880235 14.000631 " stroke="#364cb4" stroke-width="28" stroke-opacity="1" stroke-miterlimit="4"/><path stroke-linecap="round" transform="matrix(0.75, 0, 0, 0.75, 78.967703, 283.753107)" fill="none" stroke-linejoin="miter" d="M 12.001396 12.001066 L 152.517031 12.001066 " stroke="#364cb4" stroke-width="24" stroke-opacity="1" stroke-miterlimit="4"/><path stroke-linecap="round" transform="matrix(0.75, 0, 0, 0.75, 184.219461, 131.530304)" fill="none" stroke-linejoin="miter" d="M 13.999053 14.001262 L 13.999053 212.720025 " stroke="#364cb4" stroke-width="28" stroke-opacity="1" stroke-miterlimit="4"/><path stroke-linecap="round" transform="matrix(0.75, 0, 0, 0.75, 121.977316, 121.030305)" fill="none" stroke-linejoin="miter" d="M 13.998997 14.001261 L 173.405257 14.001261 " stroke="#364cb4" stroke-width="28" stroke-opacity="1" stroke-miterlimit="4"/><path stroke-linecap="round" transform="matrix(0.749997, -0.00219515, 0.00219515, 0.749997, 110.923884, 267.428889)" fill="none" stroke-linejoin="miter" d="M 6.997695 7.000743 L 74.263616 6.999705 " stroke="#364cb4" stroke-width="14" stroke-opacity="1" stroke-miterlimit="4"/><path stroke-linecap="round" transform="matrix(0.749987, 0.00437744, -0.00437744, 0.749987, 110.791507, 218.238326)" fill="none" stroke-linejoin="miter" d="M 7.001263 7.000863 L 74.502397 6.997511 " stroke="#364cb4" stroke-width="14" stroke-opacity="1" stroke-miterlimit="4"/><path stroke-linecap="round" transform="matrix(0, 0.75, -0.75, 0, 121.124322, 219.111314)" fill="none" stroke-linejoin="miter" d="M 6.997415 6.999097 L 70.77346 6.999097 " stroke="#364cb4" stroke-width="14" stroke-opacity="1" stroke-miterlimit="4"/><path stroke-linecap="round" transform="matrix(0.000000001309, 0.75, -0.75, 0.000000001309, 172.193679, 219.112603)" fill="none" stroke-linejoin="miter" d="M 7.000904 6.997822 L 71.011325 6.997822 " stroke="#364cb4" stroke-width="14" stroke-opacity="1" stroke-miterlimit="4"/><path stroke-linecap="round" transform="matrix(-0.424163, 0.618535, -0.618535, -0.424163, 187.406683, 190.936804)" fill="none" stroke-linejoin="miter" d="M 9.000699 8.997843 L 106.883382 8.999977 " stroke="#e7f1a8" stroke-width="18" stroke-opacity="1" stroke-miterlimit="4"/><path stroke-linecap="round" transform="matrix(0.518438, 0.541961, -0.541961, 0.518438, 119.263487, 228.545375)" fill="none" stroke-linejoin="miter" d="M 8.999924 9.001768 L 38.208338 8.998485 " stroke="#e7f1a8" stroke-width="18" stroke-opacity="1" stroke-miterlimit="4"/><path stroke-linecap="round" transform="matrix(0.518885, 0.541533, -0.541533, 0.518885, 120.835552, 227.828834)" fill="none" stroke-linejoin="miter" d="M 4.000857 3.998731 L 28.567418 4.000828 " stroke="#bdb17a" stroke-width="8" stroke-opacity="1" stroke-miterlimit="4"/><path stroke-linecap="round" transform="matrix(0.43076, -0.613959, 0.613959, 0.43076, 136.403067, 257.068226)" fill="none" stroke-linejoin="miter" d="M 3.999517 4.000482 L 107.152407 3.999519 " stroke="#bdb17a" stroke-width="8" stroke-opacity="1" stroke-miterlimit="4"/><path stroke-linecap="round" transform="matrix(0.435138, -0.610864, 0.610864, 0.435138, 129.897901, 245.337289)" fill="none" stroke-linejoin="miter" d="M 4.001804 3.998914 L 98.603249 3.997842 " stroke="#bdb17a" stroke-width="8" stroke-opacity="1" stroke-miterlimit="4"/><path stroke-linecap="round" transform="matrix(-0.519039, -0.541386, 0.541386, -0.519039, 129.971216, 261.090511)" fill="none" stroke-linejoin="miter" d="M 3.999362 4.002892 L 36.566548 3.998069 " stroke="#bdb17a" stroke-width="8" stroke-opacity="1" stroke-miterlimit="4"/><path stroke-linecap="round" transform="matrix(0.631123, 0.405195, -0.405195, 0.631123, 175.560754, 178.379988)" fill="none" stroke-linejoin="miter" d="M 5.794671 8.365798 C 10.767278 2.518039 15.743921 2.54758 20.724601 8.454422 " stroke="#bdb17a" stroke-width="8" stroke-opacity="1" stroke-miterlimit="4"/><path stroke-linecap="round" transform="matrix(-0.749071, 0.0373183, -0.0373183, -0.749071, 144.304243, 260.492385)" fill="none" stroke-linejoin="miter" d="M 5.605537 5.019776 C 9.635937 3.671775 13.568522 3.659102 17.408236 4.98722 " stroke="#bdb17a" stroke-width="8" stroke-opacity="1" stroke-miterlimit="4"/><path stroke-linecap="round" transform="matrix(-0.521639, 0.538881, -0.538881, -0.521639, 125.76051, 231.500668)" fill="none" stroke-linejoin="miter" d="M 5.711926 5.385309 C 10.132716 11.000603 14.553226 10.96934 18.980821 5.29164 " stroke="#bdb17a" stroke-width="8" stroke-opacity="1" stroke-miterlimit="4"/><path stroke-linecap="butt" transform="matrix(0.500378, 0, 0, 0.500378, 218.791207, 150.51456)" fill="none" stroke-linejoin="miter" d="M 37.030186 14.538003 L 58.623218 59.160481 C 59.53659 60.963804 59.989372 62.329957 59.989372 63.235522 C 59.989372 65.16375 58.443667 66.896814 55.34445 68.434712 C 53.53332 69.348083 52.112521 69.800866 51.066438 69.800866 C 50.028161 69.800866 49.177242 69.558861 48.505875 69.074853 C 47.842315 68.598651 47.366113 68.091222 47.061656 67.552567 C 46.780619 67.021719 46.366869 66.21764 45.836021 65.155944 L 41.675108 56.521853 L 19.512194 56.521853 L 15.35128 65.155944 C 14.812625 66.21764 14.398876 66.998299 14.102226 67.474501 C 13.813382 67.95851 13.33718 68.450325 12.673619 68.957754 C 12.010059 69.465182 11.159141 69.7228 10.113057 69.7228 C 9.074781 69.7228 7.646174 69.270017 5.842852 68.356646 C 2.743635 66.873394 1.190123 65.16375 1.190123 63.235522 C 1.190123 62.329957 1.650712 60.963804 2.556276 59.160481 L 24.157116 14.459937 C 24.74261 13.218689 25.632562 12.227252 26.834777 11.485625 C 28.029185 10.743999 29.30166 10.377089 30.644394 10.377089 C 33.517219 10.377089 35.648419 11.758856 37.030186 14.538003 Z M 30.566328 33.734412 L 25.273458 44.68706 L 35.913843 44.68706 Z M 30.566328 33.734412 " stroke="#1e3a77" stroke-width="12.799888" stroke-opacity="1" stroke-miterlimit="4"/><path stroke-linecap="butt" transform="matrix(0.500378, 0, 0, 0.500378, 218.791207, 150.51456)" fill="none" stroke-linejoin="miter" d="M 11.362112 139.755734 C 9.972539 138.053897 9.269945 136.523805 9.269945 135.173265 C 9.269945 133.799305 10.425321 131.995982 12.728265 129.763297 C 14.055386 128.483016 15.460573 127.842875 16.951632 127.842875 C 18.442691 127.842875 20.527051 129.177802 23.196905 131.847657 C 23.938531 132.745415 25.000228 133.611947 26.381994 134.447252 C 27.771568 135.266944 29.059655 135.680693 30.246257 135.680693 C 35.195637 135.680693 37.670326 133.650979 37.670326 129.607165 C 37.670326 128.38153 36.991153 127.358867 35.640612 126.539174 C 34.282265 125.703869 32.588235 125.102762 30.558521 124.720239 C 28.528807 124.345522 26.342961 123.744415 24.000984 122.924722 C 21.6512 122.089417 19.465354 121.113593 17.43564 119.997251 C 15.42154 118.873101 13.727509 117.108812 12.361356 114.680962 C 11.003009 112.260918 10.331642 109.349059 10.331642 105.937579 C 10.331642 101.238011 12.072512 97.13955 15.562058 93.650003 C 19.051605 90.15265 23.805819 88.396167 29.840315 88.396167 C 33.041017 88.396167 35.952876 88.817723 38.583697 89.645222 C 41.230132 90.464914 43.056874 91.308026 44.071731 92.166751 L 46.085832 93.689036 C 47.740829 95.242548 48.568328 96.546249 48.568328 97.615752 C 48.568328 98.669642 47.920381 100.137281 46.632293 102.010863 C 44.821164 104.680718 42.963195 106.015645 41.042774 106.015645 C 39.910818 106.015645 38.529051 105.47699 36.889667 104.415293 C 36.717922 104.298195 36.405658 104.024964 35.952876 103.611214 C 35.5079 103.181852 35.094151 102.830555 34.719434 102.557325 C 33.603092 101.870345 32.174486 101.519048 30.441422 101.519048 C 28.708359 101.519048 27.271946 101.940604 26.124377 102.768103 C 24.984615 103.587795 24.406927 104.735364 24.406927 106.21081 C 24.406927 107.662836 25.0861 108.849438 26.436641 109.762809 C 27.794988 110.67618 29.489018 111.292901 31.518732 111.620778 C 33.548446 111.933041 35.757711 112.41705 38.154335 113.08061 C 40.550958 113.744171 42.76803 114.563863 44.797744 115.524073 C 46.827458 116.484284 48.521489 118.154895 49.872029 120.520292 C 51.238183 122.893496 51.925163 125.813161 51.925163 129.294901 C 51.925163 132.753221 51.230376 135.805599 49.832996 138.452033 C 48.451229 141.082855 46.647907 143.120375 44.407415 144.564595 C 40.082563 147.390581 35.468867 148.803574 30.558521 148.803574 C 28.044798 148.803574 25.671595 148.49131 23.431103 147.882396 C 21.190611 147.273482 19.379482 146.508436 18.005522 145.595065 C 15.179535 143.893228 13.204468 142.23823 12.088125 140.637879 Z M 11.362112 139.755734 " stroke="#1e3a77" stroke-width="12.799888" stroke-opacity="1" stroke-miterlimit="4"/><path stroke-linecap="butt" transform="matrix(0.500378, 0, 0, 0.500378, 218.791207, 150.51456)" fill="none" stroke-linejoin="miter" d="M 33.345474 197.571353 C 41.511169 205.409171 47.295854 211.295341 50.707334 215.245476 C 52.463817 217.212737 53.345962 218.875541 53.345962 220.241695 C 53.345962 221.600042 52.276459 223.200393 50.14526 225.050555 C 48.006254 226.885105 46.257577 227.798476 44.891423 227.798476 C 43.533076 227.798476 41.901499 226.682133 39.988884 224.441641 L 22.392826 204.363087 L 22.392826 219.968464 C 22.392826 221.248745 22.353793 222.17773 22.275727 222.763224 C 22.197661 223.348718 21.940044 224.035699 21.510681 224.831971 C 20.761248 226.27619 18.676888 227.002203 15.265408 227.002203 C 11.541664 227.002203 9.355818 225.987347 8.700064 223.949826 C 8.3878 223.106714 8.231669 221.748367 8.231669 219.874785 L 8.231669 175.408439 C 8.231669 174.182804 8.270702 173.261626 8.348768 172.652712 C 8.426833 172.035991 8.684451 171.333398 9.113814 170.521512 C 9.85544 169.092906 11.931993 168.374699 15.343474 168.374699 C 19.082831 168.374699 21.292097 169.35833 21.979077 171.325591 C 22.252307 172.231156 22.392826 173.620729 22.392826 175.486505 L 22.392826 190.771811 C 29.64515 182.613923 35.5079 175.915867 39.988884 170.677644 C 41.846853 168.491798 43.470624 167.398876 44.85239 167.398876 C 46.241964 167.398876 48.006254 168.320053 50.14526 170.170216 C 52.276459 172.004765 53.345962 173.605116 53.345962 174.979076 C 53.345962 176.329616 52.541883 177.937774 50.941532 179.795743 C 47.857928 183.378969 43.056874 188.289315 36.553983 194.526782 Z M 33.345474 197.571353 " stroke="#1e3a77" stroke-width="12.799888" stroke-opacity="1" stroke-miterlimit="4"/><g fill="#95b1ee" fill-opacity="1"><g transform="translate(218.791207, 185.04067)"><g><path d="M 18.53125 -27.265625 L 29.34375 -4.921875 C 29.789062 -4.015625 30.015625 -3.332031 30.015625 -2.875 C 30.015625 -1.914062 29.242188 -1.050781 27.703125 -0.28125 C 26.796875 0.175781 26.082031 0.40625 25.5625 0.40625 C 25.039062 0.40625 24.613281 0.285156 24.28125 0.046875 C 23.945312 -0.191406 23.707031 -0.445312 23.5625 -0.71875 C 23.414062 -0.988281 23.207031 -1.390625 22.9375 -1.921875 L 20.859375 -6.25 L 9.765625 -6.25 L 7.6875 -1.921875 C 7.414062 -1.390625 7.207031 -1.003906 7.0625 -0.765625 C 6.914062 -0.523438 6.675781 -0.273438 6.34375 -0.015625 C 6.007812 0.234375 5.582031 0.359375 5.0625 0.359375 C 4.539062 0.359375 3.828125 0.132812 2.921875 -0.3125 C 1.367188 -1.0625 0.59375 -1.914062 0.59375 -2.875 C 0.59375 -3.332031 0.820312 -4.015625 1.28125 -4.921875 L 12.09375 -27.296875 C 12.382812 -27.910156 12.828125 -28.40625 13.421875 -28.78125 C 14.023438 -29.15625 14.660156 -29.34375 15.328125 -29.34375 C 16.773438 -29.34375 17.84375 -28.648438 18.53125 -27.265625 Z M 15.296875 -17.65625 L 12.65625 -12.171875 L 17.96875 -12.171875 Z M 15.296875 -17.65625 "/></g></g></g><g fill="#95b1ee" fill-opacity="1"><g transform="translate(222.434587, 224.570565)"><g><path d="M 2.046875 -4.125 C 1.347656 -4.976562 1 -5.742188 1 -6.421875 C 1 -7.109375 1.570312 -8.007812 2.71875 -9.125 C 3.382812 -9.769531 4.09375 -10.09375 4.84375 -10.09375 C 5.59375 -10.09375 6.632812 -9.425781 7.96875 -8.09375 C 8.34375 -7.632812 8.875 -7.195312 9.5625 -6.78125 C 10.257812 -6.375 10.898438 -6.171875 11.484375 -6.171875 C 13.972656 -6.171875 15.21875 -7.179688 15.21875 -9.203125 C 15.21875 -9.816406 14.875 -10.332031 14.1875 -10.75 C 13.507812 -11.164062 12.660156 -11.460938 11.640625 -11.640625 C 10.628906 -11.828125 9.535156 -12.128906 8.359375 -12.546875 C 7.191406 -12.960938 6.097656 -13.453125 5.078125 -14.015625 C 4.066406 -14.578125 3.21875 -15.460938 2.53125 -16.671875 C 1.851562 -17.890625 1.515625 -19.351562 1.515625 -21.0625 C 1.515625 -23.40625 2.390625 -25.453125 4.140625 -27.203125 C 5.890625 -28.953125 8.269531 -29.828125 11.28125 -29.828125 C 12.882812 -29.828125 14.347656 -29.617188 15.671875 -29.203125 C 16.992188 -28.785156 17.910156 -28.363281 18.421875 -27.9375 L 19.421875 -27.1875 C 20.242188 -26.40625 20.65625 -25.75 20.65625 -25.21875 C 20.65625 -24.6875 20.335938 -23.953125 19.703125 -23.015625 C 18.785156 -21.679688 17.847656 -21.015625 16.890625 -21.015625 C 16.328125 -21.015625 15.632812 -21.28125 14.8125 -21.8125 C 14.726562 -21.863281 14.570312 -21.992188 14.34375 -22.203125 C 14.125 -22.421875 13.921875 -22.597656 13.734375 -22.734375 C 13.171875 -23.085938 12.453125 -23.265625 11.578125 -23.265625 C 10.710938 -23.265625 9.992188 -23.054688 9.421875 -22.640625 C 8.847656 -22.222656 8.5625 -21.644531 8.5625 -20.90625 C 8.5625 -20.175781 8.898438 -19.582031 9.578125 -19.125 C 10.265625 -18.675781 11.113281 -18.367188 12.125 -18.203125 C 13.144531 -18.046875 14.253906 -17.800781 15.453125 -17.46875 C 16.648438 -17.132812 17.753906 -16.726562 18.765625 -16.25 C 19.785156 -15.769531 20.632812 -14.9375 21.3125 -13.75 C 22 -12.5625 22.34375 -11.097656 22.34375 -9.359375 C 22.34375 -7.628906 21.992188 -6.101562 21.296875 -4.78125 C 20.597656 -3.457031 19.691406 -2.4375 18.578125 -1.71875 C 16.410156 -0.300781 14.101562 0.40625 11.65625 0.40625 C 10.394531 0.40625 9.203125 0.253906 8.078125 -0.046875 C 6.960938 -0.359375 6.054688 -0.742188 5.359375 -1.203125 C 3.953125 -2.054688 2.96875 -2.882812 2.40625 -3.6875 Z M 2.046875 -4.125 "/></g></g></g><g fill="#95b1ee" fill-opacity="1"><g transform="translate(221.308736, 264.10046)"><g><path d="M 14.171875 -14.734375 C 18.253906 -10.804688 21.148438 -7.859375 22.859375 -5.890625 C 23.734375 -4.898438 24.171875 -4.0625 24.171875 -3.375 C 24.171875 -2.695312 23.632812 -1.894531 22.5625 -0.96875 C 21.5 -0.0507812 20.628906 0.40625 19.953125 0.40625 C 19.273438 0.40625 18.457031 -0.15625 17.5 -1.28125 L 8.6875 -11.328125 L 8.6875 -3.515625 C 8.6875 -2.878906 8.664062 -2.414062 8.625 -2.125 C 8.582031 -1.832031 8.457031 -1.484375 8.25 -1.078125 C 7.875 -0.359375 6.832031 0 5.125 0 C 3.257812 0 2.164062 -0.503906 1.84375 -1.515625 C 1.675781 -1.941406 1.59375 -2.625 1.59375 -3.5625 L 1.59375 -25.8125 C 1.59375 -26.425781 1.613281 -26.882812 1.65625 -27.1875 C 1.695312 -27.5 1.828125 -27.859375 2.046875 -28.265625 C 2.421875 -28.984375 3.457031 -29.34375 5.15625 -29.34375 C 7.03125 -29.34375 8.140625 -28.847656 8.484375 -27.859375 C 8.617188 -27.410156 8.6875 -26.71875 8.6875 -25.78125 L 8.6875 -18.140625 C 12.3125 -22.222656 15.25 -25.570312 17.5 -28.1875 C 18.425781 -29.28125 19.234375 -29.828125 19.921875 -29.828125 C 20.617188 -29.828125 21.5 -29.363281 22.5625 -28.4375 C 23.632812 -27.519531 24.171875 -26.71875 24.171875 -26.03125 C 24.171875 -25.351562 23.773438 -24.550781 22.984375 -23.625 C 21.429688 -21.832031 19.023438 -19.375 15.765625 -16.25 Z M 14.171875 -14.734375 "/></g></g></g></svg>