<svg width="38" height="38" viewBox="0 0 38 38" fill="none" xmlns="http://www.w3.org/2000/svg">
<path fill-rule="evenodd" clip-rule="evenodd" d="M18.9998 34.8333C10.2551 34.8333 3.1665 27.7447 3.1665 19C3.1665 10.2552 10.2551 3.16666 18.9998 3.16666C27.7446 3.16666 34.8332 10.2552 34.8332 19C34.8332 27.7447 27.7446 34.8333 18.9998 34.8333ZM18.9998 32.9333C22.6952 32.9333 26.2392 31.4654 28.8522 28.8523C31.4652 26.2393 32.9332 22.6953 32.9332 19C32.9332 15.3046 31.4652 11.7606 28.8522 9.14763C26.2392 6.53463 22.6952 5.06666 18.9998 5.06666C15.3045 5.06666 11.7605 6.53463 9.14748 9.14763C6.53448 11.7606 5.0665 15.3046 5.0665 19C5.0665 22.6953 6.53448 26.2393 9.14748 28.8523C11.7605 31.4654 15.3045 32.9333 18.9998 32.9333ZM17.1442 23.0502L26.3418 13.8542L27.6844 15.1984L18.2636 24.6192C17.9667 24.9161 17.564 25.0828 17.1442 25.0828C16.7243 25.0828 16.3217 24.9161 16.0248 24.6192L11.0832 19.6745L12.4274 18.3302L17.1458 23.0486L17.1442 23.0502Z" fill="black"/>
</svg>
