<svg width="34" height="34" viewBox="0 0 34 34" fill="none" xmlns="http://www.w3.org/2000/svg">
<path fill-rule="evenodd" clip-rule="evenodd" d="M20.8707 7.84621H13.1292C12.7369 7.84621 12.5407 8.14305 12.5695 8.39544C12.7186 9.69397 12.9984 11.1847 13.4666 12.1381C14.0903 13.4104 15.5955 14.8397 16.7319 15.7852C16.8059 15.8505 16.9012 15.8865 16.9999 15.8865C17.0987 15.8865 17.194 15.8505 17.268 15.7852C18.4057 14.8397 19.9096 13.4104 20.5333 12.1367C21.0015 11.1847 21.2813 9.69397 21.4317 8.39544C21.4605 8.14305 21.263 7.84621 20.872 7.84621M13.1305 6.53851C12.0268 6.53851 11.1441 7.44867 11.2709 8.54451C11.4226 9.85874 11.7195 11.5444 12.2936 12.7134C13.0533 14.2617 14.7625 15.8467 15.8976 16.7908C16.5436 17.327 17.4589 17.327 18.1049 16.7908C19.24 15.8467 20.9492 14.2617 21.7089 12.7134C22.283 11.5444 22.5799 9.85874 22.7316 8.54451C22.8571 7.44867 21.9744 6.53851 20.8707 6.53851H13.1305Z" fill="black"/>
<path d="M20.8707 7.84621H13.1292C12.7369 7.84621 12.5407 8.14305 12.5695 8.39544C12.7186 9.69397 12.9984 11.1847 13.4666 12.1381C14.0903 13.4104 15.5955 14.8397 16.7319 15.7852C16.8059 15.8505 16.9012 15.8865 16.9999 15.8865C17.0987 15.8865 17.194 15.8505 17.268 15.7852C18.4057 14.8397 19.9096 13.4104 20.5333 12.1367C21.0015 11.1847 21.2813 9.69397 21.4317 8.39544C21.4605 8.14305 21.263 7.84621 20.872 7.84621M13.1305 6.53851C12.0268 6.53851 11.1441 7.44867 11.2709 8.54451C11.4226 9.85874 11.7195 11.5444 12.2936 12.7134C13.0533 14.2617 14.7625 15.8467 15.8976 16.7908C16.5436 17.327 17.4589 17.327 18.1049 16.7908C19.24 15.8467 20.9492 14.2617 21.7089 12.7134C22.283 11.5444 22.5799 9.85874 22.7316 8.54451C22.8571 7.44867 21.9744 6.53851 20.8707 6.53851H13.1305Z" stroke="black" stroke-width="0.5"/>
<path fill-rule="evenodd" clip-rule="evenodd" d="M13.1292 26.1539H20.8707C21.263 26.1539 21.4592 25.8571 21.4304 25.6047C21.2813 24.3061 21.0015 22.8154 20.5333 21.8634C19.9096 20.5897 18.4044 19.1591 17.268 18.2149C17.194 18.1496 17.0987 18.1136 17 18.1136C16.9013 18.1136 16.8059 18.1496 16.7319 18.2149C15.5942 19.1604 14.0903 20.5897 13.4666 21.8634C12.9984 22.8154 12.7186 24.3061 12.5682 25.6047C12.5394 25.8571 12.7369 26.1539 13.1279 26.1539M20.8694 27.4616C21.9731 27.4616 22.8558 26.5514 22.729 25.4556C22.5773 24.1401 22.2804 22.4557 21.7063 21.2867C20.9466 19.7384 19.2374 18.1534 18.1023 17.2093C17.7935 16.9491 17.4025 16.8064 16.9987 16.8064C16.5948 16.8064 16.2039 16.9491 15.895 17.2093C14.7599 18.1534 13.0507 19.7384 12.291 21.2867C11.7169 22.4557 11.42 24.1414 11.2683 25.4556C11.1415 26.5514 12.0242 27.4616 13.1266 27.4616H20.8694ZM9.15381 7.19236C9.15381 7.01895 9.2227 6.85264 9.34532 6.73002C9.46794 6.6074 9.63424 6.53851 9.80765 6.53851H24.1923C24.3657 6.53851 24.532 6.6074 24.6546 6.73002C24.7772 6.85264 24.8461 7.01895 24.8461 7.19236C24.8461 7.36577 24.7772 7.53208 24.6546 7.6547C24.532 7.77732 24.3657 7.84621 24.1923 7.84621H9.80765C9.63424 7.84621 9.46794 7.77732 9.34532 7.6547C9.2227 7.53208 9.15381 7.36577 9.15381 7.19236Z" fill="black"/>
<path d="M13.1292 26.1539H20.8707C21.263 26.1539 21.4592 25.8571 21.4304 25.6047C21.2813 24.3061 21.0015 22.8154 20.5333 21.8634C19.9096 20.5897 18.4044 19.1591 17.268 18.2149C17.194 18.1496 17.0987 18.1136 17 18.1136C16.9013 18.1136 16.8059 18.1496 16.7319 18.2149C15.5942 19.1604 14.0903 20.5897 13.4666 21.8634C12.9984 22.8154 12.7186 24.3061 12.5682 25.6047C12.5394 25.8571 12.7369 26.1539 13.1279 26.1539M20.8694 27.4616C21.9731 27.4616 22.8558 26.5514 22.729 25.4556C22.5773 24.1401 22.2804 22.4557 21.7063 21.2867C20.9466 19.7384 19.2374 18.1534 18.1023 17.2093C17.7935 16.9491 17.4025 16.8064 16.9987 16.8064C16.5948 16.8064 16.2039 16.9491 15.895 17.2093C14.7599 18.1534 13.0507 19.7384 12.291 21.2867C11.7169 22.4557 11.42 24.1414 11.2683 25.4556C11.1415 26.5514 12.0242 27.4616 13.1266 27.4616H20.8694ZM9.15381 7.19236C9.15381 7.01895 9.2227 6.85264 9.34532 6.73002C9.46794 6.6074 9.63424 6.53851 9.80765 6.53851H24.1923C24.3657 6.53851 24.532 6.6074 24.6546 6.73002C24.7772 6.85264 24.8461 7.01895 24.8461 7.19236C24.8461 7.36577 24.7772 7.53208 24.6546 7.6547C24.532 7.77732 24.3657 7.84621 24.1923 7.84621H9.80765C9.63424 7.84621 9.46794 7.77732 9.34532 7.6547C9.2227 7.53208 9.15381 7.36577 9.15381 7.19236Z" stroke="black" stroke-width="0.5"/>
<path fill-rule="evenodd" clip-rule="evenodd" d="M9.15381 26.8077C9.15381 26.6343 9.2227 26.468 9.34532 26.3454C9.46794 26.2228 9.63424 26.1539 9.80765 26.1539H24.1923C24.3657 26.1539 24.532 26.2228 24.6546 26.3454C24.7772 26.468 24.8461 26.6343 24.8461 26.8077C24.8461 26.9811 24.7772 27.1474 24.6546 27.2701C24.532 27.3927 24.3657 27.4616 24.1923 27.4616H9.80765C9.63424 27.4616 9.46794 27.3927 9.34532 27.2701C9.2227 27.1474 9.15381 26.9811 9.15381 26.8077Z" fill="black" stroke="black" stroke-width="0.5"/>
<path d="M5.42668 6.37895C5.30061 6.2527 5.22986 6.08155 5.22998 5.90314C5.2301 5.72473 5.30109 5.55367 5.42734 5.4276C5.55358 5.30153 5.72473 5.23077 5.90315 5.2309C6.08156 5.23102 6.25261 5.30201 6.37868 5.42825L28.5715 27.6211C28.6976 27.7472 28.7684 27.9182 28.7684 28.0964C28.7684 28.2747 28.6976 28.4457 28.5715 28.5718C28.4455 28.6979 28.2745 28.7687 28.0962 28.7687C27.9179 28.7687 27.7469 28.6979 27.6208 28.5718L5.42668 6.37895Z" fill="black" stroke="black" stroke-width="0.5"/>
<path fill-rule="evenodd" clip-rule="evenodd" d="M17 32.0385C25.3051 32.0385 32.0384 25.3052 32.0384 17C32.0384 8.69487 25.3051 1.96156 17 1.96156C8.69481 1.96156 1.9615 8.69487 1.9615 17C1.9615 25.3052 8.69481 32.0385 17 32.0385ZM17 33.3462C26.0283 33.3462 33.3461 26.0283 33.3461 17C33.3461 7.97172 26.0283 0.65387 17 0.65387C7.97165 0.65387 0.653809 7.97172 0.653809 17C0.653809 26.0283 7.97165 33.3462 17 33.3462Z" fill="black" stroke="black" stroke-width="0.5"/>
</svg>
