<svg width="40" height="40" viewBox="0 0 40 40" fill="none" xmlns="http://www.w3.org/2000/svg">
<mask id="path-1-inside-1_279_1049" fill="white">
<path d="M20 5C20 4.73478 19.8946 4.48043 19.7071 4.29289C19.5196 4.10536 19.2652 4 19 4C18.7348 4 18.4804 4.10536 18.2929 4.29289C18.1054 4.48043 18 4.73478 18 5V18H5C4.73478 18 4.48043 18.1054 4.29289 18.2929C4.10536 18.4804 4 18.7348 4 19C4 19.2652 4.10536 19.5196 4.29289 19.7071C4.48043 19.8946 4.73478 20 5 20H18V33C18 33.2652 18.1054 33.5196 18.2929 33.7071C18.4804 33.8946 18.7348 34 19 34C19.2652 34 19.5196 33.8946 19.7071 33.7071C19.8946 33.5196 20 33.2652 20 33V20H33C33.2652 20 33.5196 19.8946 33.7071 19.7071C33.8946 19.5196 34 19.2652 34 19C34 18.7348 33.8946 18.4804 33.7071 18.2929C33.5196 18.1054 33.2652 18 33 18H20V5Z"/>
</mask>
<path d="M20 5C20 4.73478 19.8946 4.48043 19.7071 4.29289C19.5196 4.10536 19.2652 4 19 4C18.7348 4 18.4804 4.10536 18.2929 4.29289C18.1054 4.48043 18 4.73478 18 5V18H5C4.73478 18 4.48043 18.1054 4.29289 18.2929C4.10536 18.4804 4 18.7348 4 19C4 19.2652 4.10536 19.5196 4.29289 19.7071C4.48043 19.8946 4.73478 20 5 20H18V33C18 33.2652 18.1054 33.5196 18.2929 33.7071C18.4804 33.8946 18.7348 34 19 34C19.2652 34 19.5196 33.8946 19.7071 33.7071C19.8946 33.5196 20 33.2652 20 33V20H33C33.2652 20 33.5196 19.8946 33.7071 19.7071C33.8946 19.5196 34 19.2652 34 19C34 18.7348 33.8946 18.4804 33.7071 18.2929C33.5196 18.1054 33.2652 18 33 18H20V5Z" fill="black"/>
<path d="M19 4L19 0L19 4ZM18 18V22H22V18H18ZM4 19L0 19L4 19ZM18 20H22V16H18V20ZM20 20V16H16V20H20ZM20 18H16V22H20V18ZM20 5H24C24 3.67392 23.4732 2.40215 22.5355 1.46447L19.7071 4.29289L16.8787 7.12132C16.3161 6.55871 16 5.79564 16 5H20ZM19.7071 4.29289L22.5355 1.46447C21.5979 0.526784 20.3261 0 19 0L19 4L19 8C18.2044 8 17.4413 7.68393 16.8787 7.12132L19.7071 4.29289ZM19 4L19 0C17.6739 0 16.4021 0.526784 15.4645 1.46447L18.2929 4.29289L21.1213 7.12132C20.5587 7.68393 19.7956 8 19 8L19 4ZM18.2929 4.29289L15.4645 1.46447C14.5268 2.40215 14 3.67392 14 5H18H22C22 5.79564 21.6839 6.55871 21.1213 7.12132L18.2929 4.29289ZM18 5H14V18H18H22V5H18ZM18 18V14H5V18V22H18V18ZM5 18V14C3.67392 14 2.40215 14.5268 1.46447 15.4645L4.29289 18.2929L7.12132 21.1213C6.55871 21.6839 5.79564 22 5 22V18ZM4.29289 18.2929L1.46447 15.4645C0.526784 16.4021 0 17.6739 0 19L4 19L8 19C8 19.7956 7.68393 20.5587 7.12132 21.1213L4.29289 18.2929ZM4 19L0 19C0 20.3261 0.526784 21.5979 1.46447 22.5355L4.29289 19.7071L7.12132 16.8787C7.68393 17.4413 8 18.2044 8 19L4 19ZM4.29289 19.7071L1.46447 22.5355C2.40215 23.4732 3.67392 24 5 24V20V16C5.79564 16 6.55871 16.3161 7.12132 16.8787L4.29289 19.7071ZM5 20V24H18V20V16H5V20ZM18 20H14V33H18H22V20H18ZM18 33H14C14 34.3261 14.5268 35.5978 15.4645 36.5355L18.2929 33.7071L21.1213 30.8787C21.6839 31.4413 22 32.2044 22 33H18ZM18.2929 33.7071L15.4645 36.5355C16.4022 37.4732 17.6739 38 19 38V34V30C19.7956 30 20.5587 30.3161 21.1213 30.8787L18.2929 33.7071ZM19 34V38C20.3261 38 21.5978 37.4732 22.5355 36.5355L19.7071 33.7071L16.8787 30.8787C17.4413 30.3161 18.2044 30 19 30V34ZM19.7071 33.7071L22.5355 36.5355C23.4732 35.5978 24 34.3261 24 33H20H16C16 32.2044 16.3161 31.4413 16.8787 30.8787L19.7071 33.7071ZM20 33H24V20H20H16V33H20ZM20 20V24H33V20V16H20V20ZM33 20V24C34.3261 24 35.5978 23.4732 36.5355 22.5355L33.7071 19.7071L30.8787 16.8787C31.4413 16.3161 32.2044 16 33 16V20ZM33.7071 19.7071L36.5355 22.5355C37.4732 21.5978 38 20.3261 38 19H34H30C30 18.2044 30.3161 17.4413 30.8787 16.8787L33.7071 19.7071ZM34 19H38C38 17.6739 37.4732 16.4022 36.5355 15.4645L33.7071 18.2929L30.8787 21.1213C30.3161 20.5587 30 19.7956 30 19H34ZM33.7071 18.2929L36.5355 15.4645C35.5978 14.5268 34.3261 14 33 14V18V22C32.2044 22 31.4413 21.6839 30.8787 21.1213L33.7071 18.2929ZM33 18V14H20V18V22H33V18ZM20 18H24V5H20H16V18H20Z" fill="black" mask="url(#path-1-inside-1_279_1049)"/>
</svg>
